<svg width="148" height="124" viewBox="0 0 148 124" fill="none" xmlns="http://www.w3.org/2000/svg">
<rect width="148" height="124" fill="white"/>
<path d="M44.0403 93.3984C47.6238 93.3984 50.5288 90.4934 50.5288 86.9099C50.5288 83.3264 47.6238 80.4214 44.0403 80.4214C40.4568 80.4214 37.5518 83.3264 37.5518 86.9099C37.5518 90.4934 40.4568 93.3984 44.0403 93.3984Z" fill="#F7BD4F"/>
<path opacity="0.2" d="M39.2496 82.5759C38.6444 83.9917 38.5623 85.5765 39.018 87.0472C39.4737 88.5179 40.4375 89.7787 41.7371 90.6042C43.0368 91.4297 44.5877 91.7662 46.1126 91.5535C47.6375 91.3408 49.0372 90.5928 50.0614 89.4432C49.6916 90.3081 49.1383 91.0824 48.4396 91.7122C47.741 92.3421 46.9138 92.8126 46.0152 93.091C45.1167 93.3694 44.1684 93.4492 43.236 93.3247C42.3036 93.2003 41.4094 92.8746 40.6154 92.3702C39.8214 91.8659 39.1465 91.195 38.6375 90.4039C38.1285 89.6128 37.7976 88.7206 37.6677 87.7889C37.5377 86.8573 37.6119 85.9085 37.8851 85.0084C38.1582 84.1082 38.6238 83.2783 39.2496 82.5759V82.5759Z" fill="black"/>
<path d="M44.058 86.9097H44.0757L44.3967 105.306H43.7192L44.058 86.9097Z" fill="#74411C"/>
<path d="M30.9121 81.298C38.1371 81.298 43.9941 75.441 43.9941 68.216C43.9941 60.991 38.1371 55.134 30.9121 55.134C23.6871 55.134 17.8301 60.991 17.8301 68.216C17.8301 75.441 23.6871 81.298 30.9121 81.298Z" fill="#FDD27F"/>
<path opacity="0.2" d="M21.2528 59.4783C20.0326 62.3327 19.867 65.528 20.7858 68.4932C21.7046 71.4584 23.6478 74.0003 26.2682 75.6647C28.8886 77.3291 32.0154 78.0075 35.0899 77.5786C38.1645 77.1498 40.9864 75.6417 43.0513 73.3239C42.3059 75.0678 41.1902 76.6288 39.7816 77.8987C38.373 79.1687 36.7052 80.1172 34.8936 80.6786C33.082 81.2399 31.1701 81.4007 29.2902 81.1498C27.4103 80.8989 25.6075 80.2422 24.0065 79.2254C22.4056 78.2086 21.0449 76.8558 20.0187 75.2609C18.9925 73.6659 18.3253 71.867 18.0634 69.9886C17.8014 68.1102 17.951 66.1974 18.5017 64.3825C19.0525 62.5677 19.9912 60.8943 21.2528 59.4783V59.4783Z" fill="black"/>
<path d="M30.9479 68.2161H30.9839L31.6309 105.306H30.2651L30.9479 68.2161Z" fill="#74411C"/>
<path d="M117.162 86.1084H57.2002V103.884H117.162V86.1084Z" fill="#FDD27F"/>
<path d="M90.6767 89.782H83.6851V103.884H90.6767V89.782Z" fill="#D9A885"/>
<path d="M113.666 65.1333H60.6958V81.4866H113.666V65.1333Z" fill="#FDD27F"/>
<path d="M119.037 66.1405H55.3257C55.2194 66.1405 55.1154 66.1087 55.0273 66.0491C54.9391 65.9896 54.8708 65.9051 54.8311 65.8064C54.7913 65.7078 54.782 65.5995 54.8043 65.4955C54.8266 65.3915 54.8795 65.2965 54.9562 65.2228L72.3685 48.4859V41.1957C72.3687 41.0544 72.4249 40.9188 72.5249 40.8188C72.6248 40.7189 72.7604 40.6626 72.9017 40.6625H76.3383C76.4797 40.6626 76.6153 40.7189 76.7152 40.8188C76.8152 40.9188 76.8714 41.0543 76.8716 41.1957V44.1576L78.1868 42.8934C80.3389 40.8247 83.1943 39.6472 86.1791 39.5976C89.1639 39.5479 92.0568 40.6298 94.2766 42.6259L119.393 65.2106C119.474 65.2828 119.53 65.3775 119.555 65.4824C119.581 65.5873 119.573 65.6974 119.535 65.7981C119.496 65.8989 119.428 65.9855 119.339 66.0466C119.25 66.1078 119.145 66.1405 119.037 66.1405V66.1405Z" fill="#74411C"/>
<path d="M74.6791 69.281C75.1226 69.281 75.5618 69.3684 75.9715 69.5381C76.3813 69.7078 76.7536 69.9566 77.0672 70.2702C77.3808 70.5838 77.6296 70.9561 77.7993 71.3659C77.969 71.7756 78.0564 72.2148 78.0564 72.6583V77.2207H71.3018V72.6583C71.3018 71.7626 71.6576 70.9036 72.2909 70.2702C72.9243 69.6368 73.7834 69.281 74.6791 69.281V69.281Z" fill="white"/>
<path d="M87.181 69.3401C87.6245 69.3401 88.0637 69.4274 88.4735 69.5972C88.8832 69.7669 89.2555 70.0157 89.5692 70.3293C89.8828 70.6429 90.1315 71.0152 90.3013 71.425C90.471 71.8347 90.5583 72.2739 90.5583 72.7174V77.2798H83.8037V72.7174C83.8037 72.2739 83.8911 71.8347 84.0608 71.425C84.2305 71.0152 84.4793 70.6429 84.7929 70.3293C85.1065 70.0157 85.4788 69.7669 85.8886 69.5972C86.2983 69.4274 86.7375 69.3401 87.181 69.3401Z" fill="white"/>
<path d="M99.683 69.3994C100.126 69.3994 100.566 69.4868 100.975 69.6565C101.385 69.8262 101.757 70.075 102.071 70.3886C102.385 70.7022 102.633 71.0745 102.803 71.4843C102.973 71.894 103.06 72.3332 103.06 72.7767V77.3391H96.3057V72.7767C96.3057 72.3332 96.393 71.894 96.5627 71.4843C96.7325 71.0745 96.9812 70.7022 97.2949 70.3886C97.6085 70.075 97.9808 69.8262 98.3905 69.6565C98.8003 69.4868 99.2395 69.3994 99.683 69.3994V69.3994Z" fill="white"/>
<path d="M104.66 89.604C105.556 89.604 106.415 89.9598 107.048 90.5932C107.682 91.2266 108.037 92.0856 108.037 92.9813V97.5437H101.283V92.9813C101.283 92.0856 101.639 91.2266 102.272 90.5932C102.905 89.9598 103.764 89.604 104.66 89.604Z" fill="white"/>
<path d="M71.2426 89.604C72.1383 89.604 72.9973 89.9598 73.6307 90.5932C74.264 91.2266 74.6199 92.0856 74.6199 92.9813V97.5437H67.8652V92.9813C67.8652 92.5378 67.9526 92.0986 68.1223 91.6889C68.292 91.2791 68.5408 90.9068 68.8544 90.5932C69.168 90.2796 69.5404 90.0308 69.9501 89.8611C70.3599 89.6914 70.799 89.604 71.2426 89.604V89.604Z" fill="white"/>
<path d="M125.923 86.3858L114.674 81.4087C114.614 81.382 114.549 81.3682 114.483 81.3682H60.8754C60.8142 81.3682 60.7536 81.38 60.6969 81.4031L48.4532 86.3802C48.3514 86.4216 48.2671 86.4971 48.2148 86.5938C48.1625 86.6905 48.1454 86.8023 48.1665 86.9102C48.1876 87.0181 48.2455 87.1153 48.3304 87.1852C48.4153 87.2551 48.5218 87.2933 48.6317 87.2933H51.8084V103.647H51.4529V105.306H122.91V103.647H122.317V87.2933H125.731C125.84 87.2933 125.945 87.2559 126.029 87.1875C126.114 87.119 126.172 87.0236 126.195 86.9173C126.217 86.8109 126.202 86.7001 126.153 86.6033C126.103 86.5066 126.022 86.4298 125.923 86.3858V86.3858ZM121.369 103.647H52.7564V87.2933H121.369V103.647Z" fill="#74411C"/>
<path d="M78.886 76.5688H70.2354V77.9909H78.886V76.5688Z" fill="#D9A885"/>
<path d="M91.5657 76.5688H82.915V77.9909H91.5657V76.5688Z" fill="#D9A885"/>
<path d="M104.245 76.5688H95.5947V77.9909H104.245V76.5688Z" fill="#D9A885"/>
<path d="M108.986 97.0698H100.335V98.4919H108.986V97.0698Z" fill="#D9A885"/>
<path d="M75.4495 97.0698H66.7988V98.4919H75.4495V97.0698Z" fill="#D9A885"/>
<path d="M139.855 105.378H8.14521C8.1067 105.378 8.06977 105.363 8.04253 105.336C8.0153 105.309 8 105.272 8 105.233C8 105.195 8.0153 105.158 8.04253 105.13C8.06977 105.103 8.1067 105.088 8.14521 105.088H139.855C139.893 105.088 139.93 105.103 139.957 105.13C139.985 105.158 140 105.195 140 105.233C140 105.272 139.985 105.309 139.957 105.336C139.93 105.363 139.893 105.378 139.855 105.378Z" fill="#74411C"/>
<path d="M105.002 93.1306L104.961 92.6202C104.907 92.42 104.407 93.0483 104.348 93.0619C104.19 93.0286 104.027 93.0213 103.867 93.0403C103.889 92.1245 103.748 92.5397 103.339 92.953C102.02 93.6212 102.504 95.7324 104.005 95.743C105.373 95.8226 106.054 93.9624 105.002 93.1306Z" fill="#A36E08"/>
<path d="M105.187 95.2017C105.733 95.193 106.419 97.1086 105.126 97.1185C104.457 97.1236 103.272 97.2542 103.272 97.2542C103.272 97.2542 102.35 95.8718 102.761 95.0117L105.187 95.2017Z" fill="#A36E08"/>
<path d="M103.986 96.214V97.2063H104.45L104.818 96.1958" fill="#A36E08"/>
<path d="M104.45 97.2244C104.441 97.2139 103.948 97.2468 103.968 97.2063L103.968 96.2138C104.05 96.0809 103.984 97.201 104.004 97.1882H104.437C104.459 97.1757 104.779 96.1591 104.824 96.1787C104.826 96.1795 104.829 96.1808 104.83 96.1824C104.832 96.184 104.833 96.1859 104.834 96.1881C104.836 96.1902 104.836 96.1926 104.836 96.1949C104.836 96.1973 104.836 96.1997 104.835 96.2019C104.818 96.2142 104.485 97.2306 104.45 97.2244Z" fill="white"/>
<path d="M105.569 97.1455C105.582 97.3087 104.796 97.3087 104.809 97.1455C104.796 96.9824 105.582 96.9824 105.569 97.1455Z" fill="#A36E08"/>
<path d="M104.999 97.0371C104.954 97.0481 104.8 96.2952 105.267 96.1887C104.813 96.4306 105.047 96.9895 104.999 97.0371Z" fill="white"/>
<path d="M105.644 96.8716C105.641 96.8679 105.639 96.8641 105.637 96.8604L105.578 96.8625L105.644 96.8716Z" fill="#3F3D56"/>
<path d="M107.615 96.2983C107.348 95.9007 106.831 96.0815 106.63 96.4451C106.39 96.8839 105.366 96.5575 105.494 97.1468C106.133 97.0118 108.025 97.4734 107.615 96.2983Z" fill="#A36E08"/>
<path d="M103.926 95.6124C103.506 95.6943 102.766 95.1742 102.746 95.021C102.744 95.0169 102.743 95.012 102.744 95.0075C102.745 95.0029 102.748 94.999 102.752 94.9966C102.756 94.9941 102.761 94.9933 102.766 94.9943C102.77 94.9954 102.774 94.9981 102.777 95.0021C102.92 95.2049 103.116 95.3638 103.345 95.4607C103.698 95.6399 104.345 95.644 105.203 95.1924C104.828 95.4566 104.384 95.6028 103.926 95.6124V95.6124Z" fill="white"/>
<path d="M104.004 94.6943C103.91 94.7238 103.827 94.495 103.914 94.5676C103.914 94.5916 103.924 94.6146 103.941 94.6316C103.957 94.6486 103.98 94.6581 104.004 94.6581C104.082 94.6657 104.078 94.5813 104.113 94.5496C104.173 94.598 104.07 94.7035 104.004 94.6943Z" fill="white"/>
<path d="M103.832 97.1485C103.796 97.1534 103.543 96.2421 103.526 96.2283C103.524 96.2237 103.525 96.2188 103.527 96.2145C103.529 96.2103 103.533 96.2071 103.538 96.2056C103.585 96.1867 103.828 97.1128 103.85 97.125C103.851 97.1277 103.851 97.1305 103.85 97.1333C103.85 97.1361 103.849 97.1388 103.847 97.1411C103.845 97.1434 103.843 97.1452 103.841 97.1465C103.838 97.1478 103.835 97.1485 103.832 97.1485V97.1485Z" fill="white"/>
<path d="M104.592 97.2723C104.606 97.4354 103.82 97.4354 103.833 97.2722C103.82 97.1091 104.606 97.1091 104.592 97.2723Z" fill="#A36E08"/>
<path d="M103.977 97.2542C103.99 97.4173 103.204 97.4173 103.217 97.2542C103.204 97.0911 103.99 97.0911 103.977 97.2542Z" fill="#A36E08"/>
<path d="M104.158 94.3417C104.163 94.4135 103.864 94.4135 103.869 94.3417C103.864 94.2699 104.163 94.2699 104.158 94.3417Z" fill="white"/>
<path d="M103.04 94.3456C103.082 94.2962 103.134 94.2565 103.192 94.2292C103.251 94.202 103.314 94.1879 103.379 94.1879C103.443 94.1879 103.507 94.202 103.566 94.2292C103.624 94.2565 103.676 94.2962 103.718 94.3456C104.184 93.9129 103.494 93.1899 103.04 93.6361C102.992 93.6819 102.954 93.737 102.928 93.798C102.902 93.8589 102.889 93.9245 102.889 93.9909C102.889 94.0572 102.902 94.1228 102.928 94.1837C102.954 94.2447 102.992 94.2998 103.04 94.3456V94.3456Z" fill="white"/>
<path d="M104.365 94.3456C104.406 94.2962 104.458 94.2565 104.516 94.2292C104.575 94.202 104.639 94.1879 104.703 94.1879C104.768 94.1879 104.831 94.202 104.89 94.2292C104.948 94.2565 105 94.2962 105.042 94.3456C105.508 93.9129 104.818 93.1899 104.364 93.6361C104.317 93.6819 104.278 93.737 104.252 93.798C104.226 93.8589 104.213 93.9245 104.213 93.9909C104.213 94.0572 104.226 94.1228 104.252 94.1837C104.278 94.2447 104.317 94.2998 104.365 94.3456V94.3456Z" fill="white"/>
<path d="M103.164 93.8699C103.208 93.8711 103.249 93.8894 103.28 93.9209C103.311 93.9524 103.328 93.9946 103.328 94.0386C103.328 94.0825 103.311 94.1248 103.28 94.1563C103.249 94.1878 103.208 94.2061 103.164 94.2073C103.12 94.2061 103.078 94.1878 103.047 94.1563C103.017 94.1248 103 94.0825 103 94.0386C103 93.9946 103.017 93.9524 103.047 93.9209C103.078 93.8894 103.12 93.8711 103.164 93.8699V93.8699Z" fill="#A36E08"/>
<path d="M104.488 93.8699C104.532 93.8711 104.574 93.8894 104.604 93.9209C104.635 93.9524 104.652 93.9946 104.652 94.0386C104.652 94.0825 104.635 94.1248 104.604 94.1563C104.574 94.1878 104.532 94.2061 104.488 94.2073C104.444 94.2061 104.402 94.1878 104.372 94.1563C104.341 94.1248 104.324 94.0825 104.324 94.0386C104.324 93.9946 104.341 93.9524 104.372 93.9209C104.402 93.8894 104.444 93.8711 104.488 93.8699V93.8699Z" fill="#A36E08"/>
<path d="M104.719 94.407C104.758 94.408 104.794 94.4241 104.821 94.4517C104.848 94.4793 104.863 94.5163 104.863 94.5548C104.863 94.5933 104.848 94.6304 104.821 94.658C104.794 94.6856 104.758 94.7016 104.719 94.7026C104.681 94.7016 104.644 94.6856 104.617 94.658C104.59 94.6304 104.575 94.5933 104.575 94.5548C104.575 94.5163 104.59 94.4793 104.617 94.4517C104.644 94.4241 104.681 94.408 104.719 94.407V94.407Z" fill="#FDD27F"/>
<path d="M103.383 94.407C103.422 94.408 103.458 94.4241 103.485 94.4517C103.512 94.4793 103.527 94.5163 103.527 94.5548C103.527 94.5933 103.512 94.6304 103.485 94.658C103.458 94.6856 103.422 94.7016 103.383 94.7026C103.345 94.7016 103.308 94.6856 103.281 94.658C103.254 94.6304 103.239 94.5933 103.239 94.5548C103.239 94.5163 103.254 94.4793 103.281 94.4517C103.308 94.4241 103.345 94.408 103.383 94.407V94.407Z" fill="#FDD27F"/>
<path d="M60.9582 36.9687C60.9208 36.9687 60.8848 36.9545 60.8574 36.929C60.8301 36.9034 60.8134 36.8685 60.8108 36.8312C60.7141 35.5174 60.1249 34.2887 59.1611 33.3907C58.1973 32.4928 56.9299 31.9919 55.6126 31.9884C55.4549 31.9884 55.2893 31.9964 55.1203 32.0122C55.0921 32.0149 55.0636 32.0093 55.0384 31.9962C55.0132 31.9832 54.9923 31.9631 54.9782 31.9385C54.3731 30.8793 53.4695 30.0218 52.3801 29.473C51.2908 28.9242 50.0639 28.7084 48.8526 28.8524C47.6414 28.9965 46.4993 29.4941 45.5691 30.2831C44.6388 31.0721 43.9615 32.1176 43.6217 33.2892C43.6128 33.3205 43.5936 33.3481 43.5673 33.3674C43.541 33.3867 43.509 33.3967 43.4763 33.3958L43.437 33.3946C43.4165 33.394 43.3961 33.3932 43.3755 33.3932C42.3763 33.3964 41.4083 33.741 40.632 34.37C39.8556 34.999 39.3177 35.8746 39.1074 36.8513C39.1004 36.8845 39.0822 36.9143 39.0559 36.9357C39.0295 36.9571 38.9967 36.9687 38.9627 36.9687H29.0556C29.0361 36.9688 29.0168 36.965 28.9988 36.9576C28.9808 36.9502 28.9645 36.9393 28.9507 36.9256C28.9369 36.9118 28.926 36.8955 28.9185 36.8775C28.9111 36.8596 28.9072 36.8403 28.9072 36.8208C28.9072 36.8014 28.9111 36.7821 28.9185 36.7641C28.926 36.7462 28.9369 36.7298 28.9507 36.7161C28.9645 36.7024 28.9808 36.6915 28.9988 36.6841C29.0168 36.6767 29.0361 36.6729 29.0556 36.673H38.8444C39.0908 35.657 39.6704 34.7528 40.4908 34.1047C41.3112 33.4567 42.3249 33.102 43.3704 33.0975C43.7426 31.8936 44.4564 30.8237 45.425 30.0178C46.3937 29.2118 47.5756 28.7046 48.8271 28.5576C50.0786 28.4106 51.3459 28.6302 52.4749 29.1898C53.604 29.7494 54.5462 30.6248 55.1872 31.7097C55.3327 31.6983 55.4754 31.6926 55.6126 31.6926C57.0047 31.6964 58.344 32.2257 59.3625 33.1746C60.3811 34.1236 61.0037 35.4221 61.1059 36.8105C61.1072 36.8299 61.1048 36.8493 61.0986 36.8677C61.0924 36.8862 61.0827 36.9032 61.07 36.9178C61.0572 36.9325 61.0417 36.9445 61.0244 36.9532C61.007 36.9618 60.9881 36.967 60.9687 36.9684C60.9652 36.9686 60.9617 36.9687 60.9582 36.9687Z" fill="#FDD27F"/>
<path d="M59.1986 38.8649H34.9462C34.907 38.8649 34.8694 38.8493 34.8417 38.8215C34.8139 38.7938 34.7983 38.7562 34.7983 38.717C34.7983 38.6778 34.8139 38.6401 34.8417 38.6124C34.8694 38.5847 34.907 38.5691 34.9462 38.5691H59.1986C59.2378 38.5691 59.2754 38.5847 59.3031 38.6124C59.3309 38.6401 59.3465 38.6778 59.3465 38.717C59.3465 38.7562 59.3309 38.7938 59.3031 38.8215C59.2754 38.8493 59.2378 38.8649 59.1986 38.8649V38.8649Z" fill="#FDD27F"/>
<path d="M40.8619 41.0091H32.7284C32.6892 41.0091 32.6516 40.9936 32.6239 40.9658C32.5961 40.9381 32.5806 40.9005 32.5806 40.8613C32.5806 40.822 32.5961 40.7844 32.6239 40.7567C32.6516 40.729 32.6892 40.7134 32.7284 40.7134H40.8619C40.9011 40.7134 40.9387 40.729 40.9664 40.7567C40.9942 40.7844 41.0097 40.822 41.0097 40.8613C41.0097 40.9005 40.9942 40.9381 40.9664 40.9658C40.9387 40.9936 40.9011 41.0091 40.8619 41.0091V41.0091Z" fill="#FDD27F"/>
<path d="M138.648 48.0048C138.611 48.0048 138.575 47.9906 138.547 47.9651C138.52 47.9396 138.503 47.9046 138.501 47.8673C138.404 46.5536 137.815 45.3248 136.851 44.4268C135.887 43.5289 134.62 43.0281 133.303 43.0245C133.145 43.0245 132.979 43.0325 132.81 43.0483C132.782 43.051 132.754 43.0454 132.728 43.0324C132.703 43.0193 132.682 42.9992 132.668 42.9746C132.063 41.9155 131.159 41.058 130.07 40.5092C128.981 39.9603 127.754 39.7445 126.543 39.8885C125.331 40.0326 124.189 40.5302 123.259 41.3192C122.329 42.1082 121.651 43.1538 121.312 44.3253C121.303 44.3567 121.284 44.3842 121.257 44.4035C121.231 44.4228 121.199 44.4328 121.166 44.432L121.127 44.4308C121.106 44.4301 121.086 44.4294 121.065 44.4294C120.066 44.4325 119.098 44.7772 118.322 45.4062C117.546 46.0352 117.008 46.9107 116.797 47.8875C116.79 47.9207 116.772 47.9505 116.746 47.9718C116.719 47.9932 116.687 48.0049 116.653 48.0049H106.746C106.726 48.0049 106.707 48.0011 106.689 47.9937C106.671 47.9863 106.654 47.9754 106.641 47.9617C106.627 47.948 106.616 47.9316 106.608 47.9137C106.601 47.8957 106.597 47.8764 106.597 47.857C106.597 47.8375 106.601 47.8182 106.608 47.8003C106.616 47.7823 106.627 47.766 106.641 47.7522C106.654 47.7385 106.671 47.7276 106.689 47.7202C106.707 47.7128 106.726 47.709 106.746 47.7091H116.534C116.781 46.6931 117.36 45.7889 118.181 45.1409C119.001 44.4928 120.015 44.1382 121.06 44.1336C121.433 42.9297 122.146 41.8598 123.115 41.0539C124.084 40.248 125.266 39.7407 126.517 39.5937C127.769 39.4467 129.036 39.6664 130.165 40.2259C131.294 40.7855 132.236 41.6609 132.877 42.7458C133.023 42.7345 133.165 42.7288 133.303 42.7288C134.695 42.7325 136.034 43.2618 137.052 44.2108C138.071 45.1597 138.694 46.4583 138.796 47.8466C138.797 47.866 138.795 47.8854 138.789 47.9039C138.782 47.9223 138.773 47.9393 138.76 47.954C138.747 47.9686 138.732 47.9806 138.714 47.9893C138.697 47.998 138.678 48.0031 138.659 48.0045C138.655 48.0047 138.652 48.0048 138.648 48.0048Z" fill="#FDD27F"/>
<path d="M136.889 49.901H112.636C112.597 49.901 112.559 49.8854 112.532 49.8577C112.504 49.8299 112.488 49.7923 112.488 49.7531C112.488 49.7139 112.504 49.6763 112.532 49.6485C112.559 49.6208 112.597 49.6052 112.636 49.6052H136.889C136.928 49.6052 136.965 49.6208 136.993 49.6485C137.021 49.6763 137.036 49.7139 137.036 49.7531C137.036 49.7923 137.021 49.8299 136.993 49.8577C136.965 49.8854 136.928 49.901 136.889 49.901Z" fill="#FDD27F"/>
<path d="M118.551 52.0455H110.418C110.379 52.0455 110.341 52.0299 110.313 52.0022C110.286 51.9745 110.27 51.9369 110.27 51.8976C110.27 51.8584 110.286 51.8208 110.313 51.7931C110.341 51.7653 110.379 51.7498 110.418 51.7498H118.551C118.591 51.7498 118.628 51.7653 118.656 51.7931C118.684 51.8208 118.699 51.8584 118.699 51.8976C118.699 51.9369 118.684 51.9745 118.656 52.0022C118.628 52.0299 118.591 52.0455 118.551 52.0455V52.0455Z" fill="#FDD27F"/>
<path d="M34.066 102.769C35.9402 103.307 35.9624 100.658 36.2607 99.4663C35.2013 100.188 33.4151 101.216 34.0729 102.737" fill="#F7BD4F"/>
<path d="M34.1693 104.824C33.9231 103.431 33.9075 101.668 35.2739 100.845C35.3391 100.804 35.3992 100.907 35.3342 100.948C34.0151 101.746 34.0542 103.45 34.2848 104.792C34.2884 104.807 34.2859 104.823 34.278 104.836C34.2701 104.85 34.2573 104.859 34.2424 104.864C34.2274 104.868 34.2114 104.866 34.1978 104.858C34.1842 104.851 34.1739 104.839 34.1693 104.824L34.1693 104.824Z" fill="#74411C"/>
<path d="M34.7759 103.839C35.6335 104.99 36.8279 103.448 37.5342 102.883C36.5921 102.833 35.0872 102.639 34.7944 103.823" fill="#FDD27F"/>
<path d="M33.9307 105.177C34.4155 104.249 35.1898 103.199 36.37 103.331C36.4467 103.338 36.4275 103.456 36.351 103.45C35.2299 103.334 34.5005 104.342 34.0401 105.225C34.0025 105.292 33.8927 105.244 33.9307 105.177Z" fill="#74411C"/>
<path d="M129.293 102.769C127.419 103.307 127.396 100.658 127.098 99.4663C128.158 100.188 129.944 101.216 129.286 102.737" fill="#F7BD4F"/>
<path d="M129.189 104.824C129.435 103.431 129.451 101.668 128.084 100.845C128.019 100.804 127.959 100.907 128.024 100.948C129.343 101.746 129.304 103.45 129.074 104.792C129.07 104.807 129.072 104.823 129.08 104.836C129.088 104.85 129.101 104.859 129.116 104.864C129.131 104.868 129.147 104.866 129.16 104.858C129.174 104.851 129.184 104.839 129.189 104.824L129.189 104.824Z" fill="#74411C"/>
<path d="M128.582 103.839C127.725 104.99 126.53 103.448 125.824 102.883C126.766 102.833 128.271 102.639 128.564 103.823" fill="#FDD27F"/>
<path d="M129.428 105.177C128.943 104.249 128.169 103.199 126.988 103.331C126.912 103.338 126.931 103.456 127.007 103.45C128.128 103.334 128.858 104.342 129.318 105.225C129.356 105.292 129.466 105.244 129.428 105.177Z" fill="#74411C"/>
<path d="M137.173 100.919C133.906 101.857 133.868 97.2401 133.348 95.1624C135.194 96.4198 138.308 98.2125 137.161 100.863" fill="#F7BD4F"/>
<path d="M136.993 104.502C137.422 102.074 137.449 98.9998 135.068 97.5652C134.954 97.4933 134.849 97.6737 134.962 97.7453C137.262 99.1362 137.194 102.106 136.792 104.446C136.785 104.472 136.79 104.5 136.803 104.523C136.817 104.547 136.84 104.564 136.866 104.571C136.892 104.578 136.92 104.575 136.943 104.562C136.967 104.549 136.985 104.527 136.993 104.501L136.993 104.502Z" fill="#74411C"/>
<path d="M135.936 102.785C134.441 104.791 132.359 102.104 131.127 101.119C132.77 101.032 135.393 100.693 135.903 102.757" fill="#FDD27F"/>
<path d="M137.409 105.117C136.563 103.499 135.214 101.669 133.156 101.9C133.023 101.912 133.056 102.118 133.19 102.106C135.144 101.904 136.415 103.662 137.218 105.202C137.283 105.318 137.475 105.234 137.409 105.117Z" fill="#74411C"/>
<path d="M19.6025 104.768H20.1544L20.4169 102.64H19.6025V104.768Z" fill="#D9B59C"/>
<path d="M19.4614 104.588L20.5482 104.588H20.5482C20.7319 104.588 20.9081 104.661 21.038 104.791C21.1678 104.921 21.2408 105.097 21.2408 105.281V105.303L19.4615 105.303L19.4614 104.588Z" fill="#856852"/>
<path d="M22.213 104.768H22.7649L23.0274 102.64H22.2129L22.213 104.768Z" fill="#D9B59C"/>
<path d="M22.0723 104.588L23.159 104.588H23.1591C23.3428 104.588 23.5189 104.661 23.6488 104.791C23.7787 104.921 23.8516 105.097 23.8517 105.281V105.303L22.0723 105.303L22.0723 104.588Z" fill="#856852"/>
<path d="M23.2429 95.0371C23.2896 94.984 23.324 94.9213 23.3438 94.8534C23.3636 94.7856 23.3683 94.7142 23.3575 94.6443C23.3467 94.5745 23.3207 94.5078 23.2814 94.4491C23.2421 94.3903 23.1903 94.3409 23.1299 94.3043L22.2318 89.9927L21.2534 90.3781L22.4438 94.4952C22.3891 94.6009 22.3751 94.7229 22.4043 94.8383C22.4336 94.9536 22.5042 95.0542 22.6027 95.121C22.7012 95.1878 22.8208 95.2162 22.9388 95.2007C23.0568 95.1853 23.165 95.1271 23.2429 95.0371H23.2429Z" fill="#D9B59C"/>
<path d="M19.0104 94.207L18.6036 94.6199C18.6036 94.6199 18.1675 96.2179 19.002 98.1888L19.5602 103.903L20.5644 103.979L20.8642 97.3307L22.2474 99.5374L22.0058 103.955L23.1159 103.93L23.6175 99.0344L22.2474 93.9263L19.0104 94.207Z" fill="#856852"/>
<path d="M20.433 94.7633C19.8206 94.759 19.2089 94.7186 18.6011 94.6423L18.5767 94.639L19.1828 91.975L18.9741 88.5472L20.9451 88.4797C21.1235 88.4733 21.298 88.5329 21.4351 88.6473C21.5723 88.7616 21.6623 88.9226 21.688 89.0993L22.0914 91.834L22.4645 94.2602L22.4595 94.2675C22.1914 94.6607 21.2948 94.7633 20.433 94.7633Z" fill="#D0CDE1"/>
<path d="M20.7656 89.0465L21.1661 88.5445C21.1661 88.5445 21.8681 88.0644 22.0903 89.0932C22.3125 90.122 22.7253 91.7921 22.7253 91.7921L21.3526 91.9033L20.7656 89.0465Z" fill="#D0CDE1"/>
<path d="M16.9708 95.0823C16.9241 95.0292 16.8897 94.9665 16.8699 94.8986C16.8501 94.8308 16.8455 94.7594 16.8562 94.6895C16.867 94.6196 16.893 94.553 16.9323 94.4942C16.9716 94.4355 17.0234 94.3861 17.0839 94.3495L17.9819 90.0378L18.9603 90.4233L17.7699 94.5403C17.8246 94.646 17.8387 94.7681 17.8094 94.8835C17.7801 94.9988 17.7095 95.0994 17.611 95.1662C17.5125 95.233 17.393 95.2614 17.275 95.2459C17.157 95.2304 17.0487 95.1722 16.9708 95.0823V95.0823Z" fill="#D9B59C"/>
<path d="M19.448 89.0915L19.0475 88.5894C19.0475 88.5894 18.3455 88.1093 18.1233 89.1381C17.9011 90.1669 17.4883 91.8371 17.4883 91.8371L18.8611 91.9482L19.448 89.0915Z" fill="#D0CDE1"/>
<path d="M21.1355 87.9783H18.5248C18.4711 87.9783 18.4196 87.9569 18.3817 87.919C18.3437 87.881 18.3223 87.8295 18.3223 87.7758V86.6505C18.3223 86.2506 18.4811 85.867 18.7639 85.5842C19.0467 85.3014 19.4303 85.1426 19.8302 85.1426C20.2301 85.1426 20.6136 85.3014 20.8964 85.5842C21.1792 85.867 21.3381 86.2506 21.3381 86.6505V87.7758C21.338 87.8295 21.3167 87.881 21.2787 87.919C21.2407 87.9569 21.1892 87.9783 21.1355 87.9783V87.9783Z" fill="#74411C"/>
<path d="M20.1187 87.9106C20.7293 87.9106 21.2243 87.4156 21.2243 86.805C21.2243 86.1944 20.7293 85.6995 20.1187 85.6995C19.5082 85.6995 19.0132 86.1944 19.0132 86.805C19.0132 87.4156 19.5082 87.9106 20.1187 87.9106Z" fill="#D9B59C"/>
<path d="M21.6952 86.7629H20.0988L20.0824 86.5337L20.0006 86.7629H19.7548L19.7223 86.3087L19.5601 86.7629H19.0845V86.7404C19.0848 86.4242 19.2106 86.121 19.4342 85.8974C19.6578 85.6738 19.961 85.548 20.2773 85.5476H20.5024C20.8186 85.548 21.1218 85.6738 21.3454 85.8974C21.569 86.121 21.6948 86.4242 21.6952 86.7404V86.7629Z" fill="#74411C"/>
<path d="M20.0857 88.1884C20.0736 88.1884 20.0616 88.1874 20.0498 88.1853L18.8809 87.979V86.0471H20.1676L20.1358 86.0843C19.6925 86.6012 20.0265 87.4394 20.265 87.893C20.2826 87.9263 20.2904 87.9638 20.2876 88.0013C20.2848 88.0387 20.2714 88.0747 20.2491 88.1049C20.2304 88.1308 20.2058 88.1518 20.1774 88.1664C20.149 88.1809 20.1176 88.1884 20.0857 88.1884V88.1884Z" fill="#74411C"/>
</svg>
