<svg width="148" height="124" viewBox="0 0 148 124" fill="none" xmlns="http://www.w3.org/2000/svg">
<rect width="148" height="124" fill="white"/>
<path d="M92.914 58.4504H84.0591V64.1135H92.914V58.4504Z" fill="#74411C"/>
<path d="M79.1167 67.3057H70.2617V72.9687H79.1167V67.3057Z" fill="#74411C"/>
<path d="M118.8 60.304V48.2572H112.107V40.4319H107.576V48.2572H100.884V60.304H97.177V33.2244H89.6606V30.6503H79.6731V28.0762H69.7885V30.6503H60.4187V33.2244H52.2845V60.2011H47.96V48.1542H41.2674V40.3289H36.7369V48.1542H30.0442V60.2011H25.7197V102.931H35.6043V87.7955H42.4V102.931H68.9648V85.3244H80.4968V102.931H96.5592V103.034H106.444V87.8985H113.239V103.034H123.124V60.304H118.8ZM29.272 65.4523H33.1846V68.5412H29.272V65.4523ZM29.3235 74.1013H33.2361V77.1902H29.3235V74.1013ZM33.2876 85.8392H29.375V82.7503H33.2876V85.8392ZM43.5326 57.9359H34.4717V56.0825H43.5326V57.9359ZM43.5326 55.2588H34.4717V53.4054H43.5326V55.2588ZM43.5326 52.5817H34.4717V50.7283H43.5326V52.5817ZM44.8196 65.4523H48.7323V68.5412H44.8196V65.4523ZM44.8711 74.1013H48.7838V77.1902H44.8711V74.1013ZM48.8352 85.8392H44.9226V82.7503H48.8352V85.8392ZM64.8462 80.691H57.6387V77.4991H64.8462V80.691ZM64.8462 71.5272H57.6387V68.3353H64.8462V71.5272ZM64.8462 62.3633H57.6387V59.1714H64.8462V62.3633ZM64.8462 53.1995H57.6387V50.0076H64.8462V53.1995ZM64.8462 44.0357H57.6387V40.8438H64.8462V44.0357ZM78.3345 80.691H71.127V77.4991H78.3345V80.691ZM78.3345 71.5272H71.127V68.3353H78.3345V71.5272ZM78.3345 62.3633H71.127V59.1714H78.3345V62.3633ZM78.3345 53.1995H71.127V50.0076H78.3345V53.1995ZM78.3345 44.0357H71.127V40.8438H78.3345V44.0357ZM91.8229 80.691H84.6154V77.4991H91.8229V80.691ZM91.8229 71.5272H84.6154V68.3353H91.8229V71.5272ZM91.8229 62.3633H84.6154V59.1714H91.8229V62.3633ZM91.8229 53.1995H84.6154V50.0076H91.8229V53.1995ZM91.8229 44.0357H84.6154V40.8438H91.8229V44.0357ZM100.112 65.5552H104.024V68.6441H100.112V65.5552ZM100.163 74.2042H104.076V77.2932H100.163V74.2042ZM104.127 85.9422H100.214V82.8532H104.127V85.9422ZM114.372 58.0388H105.311V56.1855H114.372V58.0388ZM114.372 55.3617H105.311V53.5084H114.372V55.3617ZM114.372 52.6847H105.311V50.8313H114.372V52.6847ZM115.659 65.5552H119.572V68.6441H115.659V65.5552ZM115.711 74.2042H119.623V77.2932H115.711V74.2042ZM119.675 85.9422H115.762V82.8532H119.675V85.9422Z" fill="#D9A885"/>
<path d="M31.814 92.5019C31.7852 92.9092 31.7401 93.3648 31.6704 93.8435L32.9292 92.4474L32.9362 92.4708C32.8592 92.1348 32.7352 91.8114 32.568 91.51L32.576 91.5321L31.814 92.5019Z" fill="#F7BD4F"/>
<path d="M31.8188 92.4307L32.557 91.4914C32.4 91.2048 32.1728 90.9627 31.8968 90.7878C31.8833 90.7797 31.8697 90.7722 31.8561 90.7646C31.8601 90.8756 31.8794 91.5269 31.8188 92.4307Z" fill="#F7BD4F"/>
<path d="M31.1537 96.1134C31.1213 96.2122 31.0878 96.3092 31.0532 96.4044L32.9071 95.3174L32.9097 95.3447C32.9484 95.1757 32.9807 95.0066 33.0064 94.8376L31.1554 96.1258L31.1537 96.1134Z" fill="#F7BD4F"/>
<path d="M31.4111 95.201L33.0808 93.824L33.0855 93.8498C33.0914 93.3945 33.0434 92.9401 32.9424 92.4961L31.6595 93.9188C31.5922 94.3671 31.5094 94.7946 31.4111 95.201Z" fill="#F7BD4F"/>
<path d="M31.6306 93.8915L29.6327 91.6624L29.6434 91.6372C29.4556 91.9016 29.295 92.1843 29.1641 92.481L31.4439 94.9083C31.522 94.5541 31.583 94.2111 31.6306 93.8915Z" fill="#F7BD4F"/>
<path d="M29.1426 92.5303L29.1427 92.5304C29.1461 92.5225 29.1491 92.5138 29.1526 92.5059L29.1426 92.5303Z" fill="#F7BD4F"/>
<path d="M29.0309 92.8047L29.021 92.8292C29.0241 92.8208 29.0278 92.8131 29.031 92.8047L29.0309 92.8047Z" fill="#F7BD4F"/>
<path d="M31.4311 94.9679L29.1429 92.5317C29.1042 92.6203 29.0672 92.7115 29.0317 92.8051L31.3704 95.2256C31.3916 95.1392 31.4119 95.0533 31.4311 94.9679Z" fill="#F7BD4F"/>
<path d="M33.0111 94.8047C33.0567 94.4983 33.0815 94.1892 33.0854 93.8794L31.3932 95.275C31.3261 95.5456 31.2524 95.8058 31.1719 96.0555L33.0075 94.7781L33.0111 94.8047Z" fill="#F7BD4F"/>
<path d="M28.7279 94.9787L30.58 97.3951C30.7322 97.101 30.8666 96.798 30.9825 96.4878L28.7225 94.114C28.7001 94.4108 28.6976 94.7087 28.7151 95.0058L28.7279 94.9787Z" fill="#F7BD4F"/>
<path d="M31.8223 90.7627L31.8389 90.7553C31.4333 90.5386 30.9941 90.5619 30.5732 90.7816L31.7863 92.4292C31.8516 91.4513 31.8227 90.7725 31.8223 90.7627Z" fill="#F7BD4F"/>
<path d="M30.9927 96.566C30.8864 96.8451 30.7649 97.1183 30.6289 97.3842L32.492 96.4202L32.4939 96.447C32.6342 96.2099 32.744 95.956 32.8205 95.6912C32.8501 95.5871 32.8771 95.4827 32.9015 95.3779L31.0256 96.4778C31.0147 96.5073 31.0038 96.5369 30.9927 96.566Z" fill="#F7BD4F"/>
<path d="M31.7816 92.5019L30.5407 90.8165L30.5524 90.7925C30.1972 90.998 29.892 91.2796 29.6587 91.6171L31.6402 93.8281C31.7088 93.3548 31.7532 92.9045 31.7816 92.5019Z" fill="#F7BD4F"/>
<path d="M31.0037 96.4335C31.1419 96.0567 31.2596 95.6727 31.3565 95.2832L29.012 92.8567C28.9562 93.0083 28.905 93.1659 28.8582 93.3296C28.7934 93.5644 28.7502 93.8046 28.729 94.0472L31.0019 96.4345L31.0037 96.4335Z" fill="#F7BD4F"/>
<path d="M33.4111 99.0511C33.1291 99.3464 32.8038 99.6686 32.4448 99.9928L34.3048 99.7205L34.2952 99.7429C34.4502 99.435 34.561 99.1069 34.6244 98.7681L34.6165 98.7902L33.4111 99.0511Z" fill="#F7BD4F"/>
<path d="M34.5684 97.7838C34.5631 97.769 34.5575 97.7545 34.5518 97.74C34.4841 97.828 34.0836 98.342 33.4604 98.9995L34.6281 98.7468C34.69 98.4259 34.6694 98.0946 34.5684 97.7838V97.7838Z" fill="#F7BD4F"/>
<path d="M30.5989 101.411C30.5109 101.466 30.4233 101.52 30.3359 101.571L32.457 101.916L32.4416 101.939C32.5793 101.833 32.7119 101.724 32.8396 101.61L30.5923 101.422L30.5989 101.411Z" fill="#F7BD4F"/>
<path d="M31.3789 100.873L33.5431 100.877L33.5303 100.9C33.8252 100.553 34.0781 100.172 34.2835 99.7659L32.3881 100.043C32.0502 100.346 31.7138 100.622 31.3789 100.873Z" fill="#F7BD4F"/>
<path d="M30.6499 101.378L32.8785 101.565L32.8643 101.588C33.0948 101.381 33.3111 101.159 33.5117 100.923L31.3182 100.918C31.094 101.084 30.8712 101.237 30.6499 101.378Z" fill="#F7BD4F"/>
<path d="M27.9196 102.481C27.9354 102.465 27.9521 102.448 27.9686 102.431C28.423 102.359 28.8671 102.232 29.2912 102.053L29.3517 100.447C29.3697 100.406 29.3872 100.365 29.4041 100.324L29.3397 102.033C29.6445 101.903 29.9412 101.756 30.2284 101.591L30.0214 98.605C30.0374 98.5967 30.0534 98.5883 30.07 98.5795L30.2767 101.561L30.2787 101.562C30.6255 101.36 30.9611 101.139 31.2841 100.901L31.0587 97.9626C31.0747 97.9509 31.0906 97.9395 31.1066 97.9276L31.3319 100.866C31.4034 100.813 31.4738 100.759 31.5431 100.706L31.3571 97.7315C31.3731 97.7184 31.389 97.7053 31.4049 97.6921L31.5909 100.669C31.877 100.446 32.1428 100.22 32.3832 100.005L32.2663 97.0135L32.2906 97.0009C32.2075 97.0226 32.1231 97.0483 32.038 97.0763C32.1981 96.8934 32.3421 96.6971 32.4684 96.4895L30.5875 97.4627C30.4573 97.7101 30.3108 97.9485 30.1491 98.1765C30.1155 98.2083 30.0819 98.24 30.0487 98.2731L30.0512 98.3088C30.0359 98.329 30.0206 98.3494 30.0051 98.3692L30.0017 98.3211C29.978 98.3454 29.9548 98.3712 29.9314 98.3962C30.1696 98.0988 30.3786 97.7792 30.5556 97.4418L28.717 95.043C28.7295 95.2575 28.7505 95.4733 28.7774 95.6874C28.6067 95.4098 28.3994 95.1565 28.1611 94.9343L28.1756 94.9528L27.7506 96.1107C27.8492 96.5069 27.9471 96.9542 28.0288 97.431L28.7839 95.7378C28.7874 95.7642 28.791 95.7905 28.7947 95.8168L28.0413 97.5059C28.1159 97.9532 28.1692 98.3852 28.2014 98.8021L29.1056 97.3819C29.1107 97.4023 29.1159 97.4228 29.1211 97.4429L28.2072 98.8784C28.2271 99.1565 28.2373 99.4267 28.238 99.6891L29.3432 98.2309C29.3491 98.2501 29.3548 98.2687 29.3606 98.2871L28.2436 99.7607L28.2382 99.7495C28.2379 99.8534 28.236 99.956 28.2326 100.057L29.4793 98.6536C29.4859 98.6731 29.492 98.6911 29.4977 98.7076L28.2295 100.136C28.2282 100.167 28.227 100.198 28.2254 100.23C28.2106 100.528 28.1795 100.825 28.1323 101.12L28.2527 100.998C28.2299 101.046 28.2077 101.092 28.1861 101.138L28.1176 101.207C28.1097 101.252 28.1008 101.297 28.0922 101.341C28.0669 101.396 28.0426 101.45 28.0192 101.503C28.0418 101.402 28.0629 101.3 28.0809 101.197L25.5908 99.4844C26.2405 101.146 27.4638 102.727 27.5421 102.828C27.6057 102.709 27.6634 102.587 27.7165 102.462C27.7319 102.461 27.7473 102.459 27.7627 102.458C27.7563 102.473 27.7497 102.488 27.7432 102.503C27.7355 102.504 27.7276 102.505 27.7198 102.506C27.7259 102.508 27.7331 102.51 27.7397 102.511C27.7023 102.599 27.6636 102.684 27.6221 102.767C27.6764 102.718 27.7592 102.641 27.8582 102.543C28.4437 102.692 30.0211 103.012 31.3717 102.54L29.3024 102.09C28.8595 102.277 28.395 102.409 27.9196 102.481V102.481ZM29.3738 99.8629L29.4234 99.8127L29.4205 99.8879L29.3709 99.9382L29.3738 99.8629Z" fill="#F7BD4F"/>
<path d="M34.5267 97.7162L34.5442 97.7211C34.37 97.2955 34.0169 97.0333 33.5526 96.9341L33.436 98.9768C34.1101 98.2653 34.5208 97.724 34.5267 97.7162Z" fill="#F7BD4F"/>
<path d="M30.1863 101.657C29.9264 101.804 29.6586 101.937 29.3843 102.055L31.434 102.501L31.4184 102.523C31.6777 102.43 31.9242 102.304 32.152 102.149C32.2412 102.088 32.3287 102.025 32.4143 101.96L30.2679 101.61C30.2407 101.626 30.2134 101.642 30.1863 101.657Z" fill="#F7BD4F"/>
<path d="M32.4314 99.9612C32.7861 99.6404 33.1075 99.3219 33.3861 99.03L33.5054 96.9404L33.5297 96.9293C33.1251 96.8611 32.7104 96.8833 32.3154 96.9945L32.4314 99.9612Z" fill="#F7BD4F"/>
<path d="M28.1452 94.9195C27.9072 94.6955 27.6164 94.5355 27.2998 94.4545C27.2844 94.451 27.2692 94.448 27.2539 94.4451C27.292 94.5493 27.5117 95.1628 27.7335 96.0411L28.1452 94.9195Z" fill="#F7BD4F"/>
<path d="M28.0063 97.4889L25.4173 95.9865L25.4197 95.9592C25.3228 96.2687 25.2574 96.5873 25.2246 96.9099L28.1431 98.5136C28.1079 98.1526 28.0598 97.8075 28.0063 97.4889Z" fill="#F7BD4F"/>
<path d="M25.2197 96.9628L25.2198 96.9629C25.2207 96.9544 25.2208 96.9453 25.2217 96.9368L25.2197 96.9628Z" fill="#F7BD4F"/>
<path d="M25.1986 97.2585L25.1968 97.2846C25.1972 97.2758 25.1982 97.2674 25.1987 97.2586L25.1986 97.2585Z" fill="#F7BD4F"/>
<path d="M28.1486 98.574L25.2195 96.9644C25.2101 97.0606 25.203 97.1587 25.1982 97.2587L28.1705 98.8378C28.164 98.7491 28.1567 98.6611 28.1486 98.574Z" fill="#F7BD4F"/>
<path d="M28.1926 100.158L25.3096 98.5991C25.38 98.8883 25.4697 99.1724 25.5781 99.4495L25.5819 99.4198L28.0903 101.145C28.1441 100.819 28.1783 100.489 28.1926 100.158V100.158Z" fill="#F7BD4F"/>
<path d="M27.2211 94.4539L27.2346 94.4417C26.7819 94.3609 26.3714 94.5188 26.0391 94.8579L27.702 96.0499C27.4618 95.0997 27.2246 94.463 27.2211 94.4539Z" fill="#F7BD4F"/>
<path d="M27.7197 96.1203L26.0186 94.9009L26.0223 94.8745C25.748 95.1797 25.5448 95.5419 25.4272 95.935L27.9952 97.4252C27.9141 96.9539 27.8171 96.5119 27.7197 96.1203Z" fill="#F7BD4F"/>
<path d="M28.1949 100.1C28.2098 99.6989 28.2031 99.2973 28.1748 98.8969L25.1951 97.314C25.1889 97.4753 25.1889 97.6411 25.1951 97.8113C25.206 98.0546 25.2391 98.2964 25.2939 98.5337L28.1935 100.102L28.1949 100.1Z" fill="#F7BD4F"/>
<path d="M119.952 92.193C119.923 92.6003 119.878 93.0559 119.808 93.5347L121.067 92.1386L121.074 92.162C120.997 91.826 120.873 91.5025 120.706 91.2012L120.714 91.2233L119.952 92.193Z" fill="#F7BD4F"/>
<path d="M119.957 92.1214L120.695 91.182C120.538 90.8955 120.311 90.6534 120.035 90.4785C120.021 90.4704 120.008 90.4628 119.994 90.4553C119.998 90.5663 120.018 91.2176 119.957 92.1214Z" fill="#F7BD4F"/>
<path d="M119.291 95.8043C119.258 95.9031 119.225 96.0001 119.19 96.0953L121.044 95.0083L121.047 95.0356C121.086 94.8666 121.118 94.6976 121.144 94.5286L119.293 95.8168L119.291 95.8043Z" fill="#F7BD4F"/>
<path d="M119.548 94.8921L121.218 93.5152L121.223 93.5409C121.229 93.0856 121.181 92.6312 121.08 92.1873L119.797 93.6099C119.729 94.0583 119.647 94.4857 119.548 94.8921Z" fill="#F7BD4F"/>
<path d="M119.769 93.5829L117.771 91.3538L117.782 91.3286C117.594 91.593 117.433 91.8757 117.302 92.1725L119.582 94.5997C119.66 94.2455 119.721 93.9025 119.769 93.5829Z" fill="#F7BD4F"/>
<path d="M117.28 92.2217L117.28 92.2218C117.284 92.2139 117.287 92.2052 117.29 92.1973L117.28 92.2217Z" fill="#6C63FF"/>
<path d="M119.568 94.6586L117.28 92.2224C117.241 92.311 117.204 92.4021 117.169 92.4958L119.508 94.9163C119.529 94.8299 119.549 94.744 119.568 94.6586Z" fill="#F7BD4F"/>
<path d="M117.169 92.4956L117.159 92.5202C117.162 92.5117 117.165 92.504 117.169 92.4957L117.169 92.4956Z" fill="#6C63FF"/>
<path d="M121.148 94.4961C121.194 94.1897 121.219 93.8806 121.223 93.5708L119.53 94.9664C119.463 95.237 119.39 95.4972 119.309 95.7469L121.145 94.4695L121.148 94.4961Z" fill="#F7BD4F"/>
<path d="M116.866 94.6696L118.718 97.086C118.87 96.7919 119.004 96.4889 119.12 96.1787L116.86 93.8049C116.838 94.1017 116.835 94.3996 116.853 94.6967L116.866 94.6696Z" fill="#F7BD4F"/>
<path d="M119.96 90.4534L119.977 90.446C119.571 90.2293 119.132 90.2525 118.711 90.4722L119.924 92.1199C119.989 91.142 119.96 90.4631 119.96 90.4534Z" fill="#F7BD4F"/>
<path d="M119.13 96.2569C119.024 96.536 118.903 96.8092 118.767 97.0751L120.63 96.1112L120.632 96.138C120.772 95.9008 120.882 95.6469 120.958 95.3822C120.988 95.278 121.015 95.1736 121.039 95.0688L119.163 96.1688C119.152 96.1982 119.142 96.2278 119.13 96.2569Z" fill="#F7BD4F"/>
<path d="M119.919 92.1929L118.678 90.5074L118.69 90.4834C118.335 90.6889 118.03 90.9705 117.796 91.3081L119.778 93.519C119.847 93.0457 119.891 92.5954 119.919 92.1929Z" fill="#F7BD4F"/>
<path d="M119.141 96.1242C119.279 95.7473 119.397 95.3633 119.494 94.9738L117.149 92.5474C117.093 92.6989 117.042 92.8566 116.995 93.0203C116.931 93.2551 116.887 93.4953 116.866 93.7379L119.139 96.1252L119.141 96.1242Z" fill="#F7BD4F"/>
<path d="M121.549 98.742C121.267 99.0374 120.942 99.3595 120.583 99.6837L122.442 99.4114L122.433 99.4338C122.588 99.126 122.699 98.7978 122.762 98.459L122.754 98.4811L121.549 98.742Z" fill="#F7BD4F"/>
<path d="M122.706 97.4747C122.701 97.4599 122.695 97.4454 122.689 97.4309C122.622 97.5189 122.221 98.0329 121.598 98.6904L122.766 98.4377C122.828 98.1168 122.807 97.7855 122.706 97.4747V97.4747Z" fill="#F7BD4F"/>
<path d="M118.737 101.102C118.649 101.158 118.561 101.211 118.474 101.262L120.595 101.608L120.579 101.63C120.717 101.525 120.85 101.415 120.977 101.301L118.73 101.113L118.737 101.102Z" fill="#F7BD4F"/>
<path d="M119.517 100.564L121.681 100.568L121.668 100.591C121.963 100.244 122.216 99.8636 122.421 99.4573L120.526 99.7348C120.188 100.037 119.851 100.314 119.517 100.564Z" fill="#F7BD4F"/>
<path d="M118.787 101.069L121.016 101.256L121.001 101.279C121.232 101.072 121.448 100.85 121.649 100.614L119.455 100.609C119.231 100.775 119.008 100.928 118.787 101.069Z" fill="#F7BD4F"/>
<path d="M116.058 102.172C116.074 102.156 116.09 102.139 116.107 102.122C116.561 102.049 117.005 101.923 117.429 101.744L117.49 100.138C117.508 100.097 117.525 100.056 117.542 100.014L117.478 101.724C117.783 101.594 118.079 101.446 118.367 101.281L118.16 98.2957C118.176 98.2874 118.192 98.279 118.208 98.2702L118.415 101.252L118.417 101.252C118.764 101.05 119.099 100.83 119.422 100.592L119.197 97.6533C119.213 97.6416 119.229 97.6302 119.245 97.6182L119.47 100.556C119.542 100.503 119.612 100.45 119.681 100.396L119.495 97.4222C119.511 97.4091 119.527 97.396 119.543 97.3827L119.729 100.359C120.015 100.136 120.281 99.911 120.521 99.6953L120.404 96.7042L120.429 96.6916C120.346 96.7133 120.261 96.739 120.176 96.7669C120.336 96.5841 120.48 96.3878 120.607 96.1802L118.726 97.1534C118.595 97.4007 118.449 97.6392 118.287 97.8672C118.254 97.8989 118.22 97.9306 118.187 97.9637L118.189 97.9995C118.174 98.0197 118.159 98.04 118.143 98.0599L118.14 98.0118C118.116 98.0361 118.093 98.0619 118.07 98.0869C118.308 97.7895 118.517 97.4699 118.694 97.1325L116.855 94.7337C116.868 94.9481 116.889 95.164 116.916 95.378C116.745 95.1005 116.538 94.8472 116.299 94.625L116.314 94.6435L115.889 95.8013C115.987 96.1976 116.085 96.6448 116.167 97.1216L116.922 95.4284C116.926 95.4548 116.929 95.4811 116.933 95.5075L116.18 97.1966C116.254 97.6438 116.307 98.0759 116.34 98.4928L117.244 97.0726C117.249 97.093 117.254 97.1134 117.259 97.1335L116.345 98.569C116.365 98.8471 116.375 99.1174 116.376 99.3798L117.481 97.9216C117.487 97.9408 117.493 97.9594 117.499 97.9778L116.382 99.4514L116.376 99.4401C116.376 99.5441 116.374 99.6467 116.371 99.7479L117.617 98.3443C117.624 98.3638 117.63 98.3818 117.636 98.3983L116.368 99.8262C116.366 99.8576 116.365 99.8891 116.364 99.9202C116.349 100.219 116.318 100.516 116.271 100.811L116.391 100.689C116.368 100.736 116.346 100.783 116.324 100.829L116.256 100.898C116.248 100.943 116.239 100.987 116.23 101.032C116.205 101.087 116.181 101.141 116.157 101.194C116.18 101.093 116.201 100.991 116.219 100.888L113.729 99.1751C114.379 100.837 115.602 102.418 115.68 102.518C115.744 102.4 115.802 102.277 115.855 102.153C115.87 102.151 115.885 102.15 115.901 102.148C115.895 102.164 115.888 102.179 115.881 102.194C115.874 102.195 115.866 102.196 115.858 102.197C115.864 102.198 115.871 102.2 115.878 102.202C115.841 102.289 115.802 102.375 115.76 102.458C115.815 102.409 115.897 102.332 115.996 102.234C116.582 102.383 118.159 102.703 119.51 102.23L117.441 101.78C116.998 101.968 116.533 102.099 116.058 102.172V102.172ZM117.512 99.5536L117.562 99.5033L117.559 99.5786L117.509 99.6289L117.512 99.5536Z" fill="#F7BD4F"/>
<path d="M122.665 97.4076L122.682 97.4125C122.508 96.9869 122.155 96.7247 121.691 96.6255L121.574 98.6682C122.248 97.9567 122.659 97.4154 122.665 97.4076Z" fill="#F7BD4F"/>
<path d="M118.324 101.348C118.064 101.495 117.796 101.628 117.522 101.746L119.572 102.192L119.556 102.214C119.815 102.121 120.062 101.995 120.29 101.84C120.379 101.779 120.466 101.716 120.552 101.651L118.406 101.301C118.378 101.317 118.351 101.333 118.324 101.348Z" fill="#F7BD4F"/>
<path d="M120.569 99.6526C120.924 99.3318 121.245 99.0133 121.524 98.7214L121.643 96.6318L121.667 96.6207C121.263 96.5525 120.848 96.5747 120.453 96.6859L120.569 99.6526Z" fill="#F7BD4F"/>
<path d="M116.283 94.6105C116.045 94.3865 115.754 94.2264 115.437 94.1454C115.422 94.1419 115.407 94.1389 115.392 94.136C115.43 94.2402 115.649 94.8537 115.871 95.732L116.283 94.6105Z" fill="#6C63FF"/>
<path d="M116.144 97.1798L113.554 95.6774L113.557 95.6501C113.46 95.9597 113.395 96.2782 113.362 96.6008L116.28 98.2046C116.245 97.8435 116.197 97.4985 116.144 97.1798Z" fill="#6C63FF"/>
<path d="M113.336 96.9497L113.334 96.9758C113.334 96.9669 113.335 96.9586 113.336 96.9497L113.336 96.9497Z" fill="#6C63FF"/>
<path d="M113.357 96.6542L113.357 96.6543C113.358 96.6458 113.358 96.6367 113.359 96.6282L113.357 96.6542Z" fill="#6C63FF"/>
<path d="M116.286 98.2654L113.357 96.6558C113.348 96.752 113.341 96.8501 113.336 96.9501L116.308 98.5292C116.302 98.4405 116.294 98.3525 116.286 98.2654Z" fill="#6C63FF"/>
<path d="M116.33 99.8495L113.447 98.2905C113.517 98.5797 113.607 98.8638 113.715 99.1409L113.719 99.1112L116.228 100.837C116.281 100.51 116.316 100.18 116.33 99.8495V99.8495Z" fill="#6C63FF"/>
<path d="M115.358 94.1445L115.372 94.1323C114.919 94.0516 114.509 94.2095 114.176 94.5485L115.839 95.7405C115.599 94.7903 115.362 94.1537 115.358 94.1445Z" fill="#6C63FF"/>
<path d="M115.857 95.8115L114.156 94.5921L114.16 94.5657C113.886 94.8709 113.682 95.2331 113.565 95.6262L116.133 97.1164C116.052 96.645 115.955 96.2031 115.857 95.8115Z" fill="#6C63FF"/>
<path d="M116.333 99.7914C116.347 99.3903 116.341 98.9887 116.312 98.5884L113.333 97.0054C113.327 97.1668 113.327 97.3325 113.333 97.5027C113.344 97.746 113.377 97.9878 113.432 98.2251L116.331 99.7929L116.333 99.7914Z" fill="#6C63FF"/>
<path d="M25.7197 102.931H123.124V104.325C123.124 104.911 122.891 105.473 122.477 105.888C122.062 106.302 121.5 106.535 120.914 106.535H27.9298C27.3437 106.535 26.7815 106.302 26.367 105.888C25.9526 105.473 25.7197 104.911 25.7197 104.325V102.931Z" fill="#74411C"/>
<path d="M123.124 101.799H25.7197V103.755H123.124V101.799Z" fill="#74411C"/>
<path d="M101.208 34.8691L102.326 35.5785L101.647 34.3435C101.84 34.19 102.078 34.1051 102.324 34.1021C102.33 34.1021 102.336 34.1021 102.342 34.1022C102.419 34.1035 102.497 34.0978 102.574 34.0851L102.953 34.3255L102.79 34.03C103.059 33.9363 103.291 33.7602 103.454 33.5267L104.132 33.957L103.704 33.1776C104.1 32.7013 104.635 32.4092 105.224 32.4092C105.929 32.4092 106.558 32.8288 106.964 33.4827C107.084 33.6783 107.253 33.8387 107.455 33.9476C107.657 34.0565 107.884 34.1101 108.114 34.1028C108.126 34.1023 108.139 34.1021 108.152 34.1021C108.931 34.1021 109.562 34.9853 109.562 36.0748C109.562 37.1643 108.931 38.0476 108.152 38.0476C107.98 38.0469 107.812 38.0047 107.66 37.9246C107.395 37.7957 107.105 37.726 106.811 37.7202C106.516 37.7144 106.223 37.7728 105.953 37.8912C105.725 37.9937 105.478 38.047 105.228 38.0476C104.978 38.0481 104.73 37.996 104.502 37.8945C104.234 37.7784 103.944 37.7212 103.652 37.7268C103.36 37.7325 103.073 37.8008 102.81 37.9272C102.66 38.0057 102.493 38.0469 102.324 38.0476C101.545 38.0476 100.913 37.1643 100.913 36.0748C100.909 35.6546 101.01 35.2399 101.208 34.8691V34.8691Z" fill="#BC903D"/>
<path d="M44.2934 40.6629L45.005 41.1142L44.573 40.3286C44.6953 40.231 44.8468 40.1769 45.0033 40.175C45.0071 40.175 45.0109 40.1751 45.0147 40.1751C45.0642 40.1759 45.1136 40.1723 45.1624 40.1642L45.4035 40.3172L45.3002 40.1292C45.471 40.0696 45.6187 39.9575 45.7221 39.809L46.1537 40.0827L45.881 39.5869C45.9958 39.4388 46.1422 39.3181 46.3095 39.2336C46.4767 39.149 46.6607 39.1028 46.8481 39.0981C47.2969 39.0981 47.6968 39.3651 47.9549 39.781C48.0312 39.9055 48.1391 40.0075 48.2676 40.0768C48.3961 40.1461 48.5406 40.1801 48.6865 40.1755C48.6945 40.1752 48.7026 40.175 48.7107 40.175C49.2062 40.175 49.6079 40.7369 49.6079 41.4299C49.6079 42.123 49.2062 42.6848 48.7107 42.6848C48.6017 42.6844 48.4944 42.6576 48.3981 42.6066C48.2295 42.5246 48.045 42.4803 47.8575 42.4766C47.67 42.4729 47.4839 42.51 47.3121 42.5854C47.167 42.6506 47.0098 42.6845 46.8507 42.6848C46.6917 42.6852 46.5343 42.652 46.3889 42.5875C46.2185 42.5136 46.0341 42.4772 45.8484 42.4808C45.6627 42.4844 45.4799 42.5279 45.3125 42.6083C45.217 42.6582 45.111 42.6845 45.0033 42.6848C44.5078 42.6848 44.106 42.123 44.106 41.4299C44.1032 41.1626 44.1676 40.8988 44.2934 40.6629Z" fill="#BC903D"/>
<path d="M25.1415 43.0821L25.8532 43.5334L25.4211 42.7478C25.5435 42.6502 25.6949 42.5961 25.8514 42.5942C25.8553 42.5942 25.8591 42.5943 25.8629 42.5943C25.9123 42.5951 25.9617 42.5915 26.0105 42.5834L26.2517 42.7363L26.1483 42.5484C26.3192 42.4888 26.4668 42.3767 26.5702 42.2282L27.0019 42.5019L26.7292 42.0061C26.844 41.858 26.9904 41.7373 27.1576 41.6528C27.3249 41.5682 27.5089 41.522 27.6962 41.5173C28.1451 41.5173 28.5449 41.7843 28.8031 42.2002C28.8794 42.3247 28.9872 42.4267 29.1157 42.496C29.2442 42.5653 29.3888 42.5993 29.5347 42.5947C29.5427 42.5944 29.5507 42.5942 29.5588 42.5942C30.0543 42.5942 30.456 43.1561 30.456 43.8491C30.456 44.5422 30.0543 45.104 29.5588 45.104C29.4498 45.1036 29.3426 45.0768 29.2463 45.0258C29.0776 44.9438 28.8931 44.8995 28.7056 44.8958C28.5181 44.8921 28.332 44.9292 28.1603 45.0046C28.0152 45.0698 27.858 45.1037 27.6989 45.104C27.5398 45.1044 27.3824 45.0712 27.237 45.0067C27.0666 44.9328 26.8823 44.8964 26.6966 44.9C26.5109 44.9036 26.3281 44.9471 26.1606 45.0275C26.0652 45.0774 25.9591 45.1036 25.8514 45.104C25.3559 45.104 24.9542 44.5422 24.9542 43.8491C24.9513 43.5818 25.0157 43.318 25.1415 43.0821V43.0821Z" fill="#BC903D"/>
<path d="M50.8338 89.532L50.7095 89.6563C50.7095 89.6563 50.7509 91.0235 50.7923 91.3135C50.8338 91.6035 50.9995 92.1006 50.8752 92.4735C50.7509 92.8464 50.7095 93.1364 50.7509 93.1778C50.7923 93.2192 50.7095 93.385 50.7095 93.385L51.0409 93.1778L51.5795 91.9349L51.3309 90.6092L50.8338 89.532Z" fill="#BDBCC6"/>
<path opacity="0.1" d="M50.8338 89.532L50.7095 89.6563C50.7095 89.6563 50.7509 91.0235 50.7923 91.3135C50.8338 91.6035 50.9995 92.1006 50.8752 92.4735C50.7509 92.8464 50.7095 93.1364 50.7509 93.1778C50.7923 93.2192 50.7095 93.385 50.7095 93.385L51.0409 93.1778L51.5795 91.9349L51.3309 90.6092L50.8338 89.532Z" fill="#BDBCC6"/>
<path d="M53.0292 102.417C53.0292 102.417 53.0292 101.961 52.9463 101.878C52.8635 101.795 52.7392 101.505 52.5735 101.505C52.4077 101.505 51.8277 101.671 51.8277 101.712C51.8325 101.842 51.8039 101.97 51.7449 102.085C51.662 102.209 51.2063 102.707 51.662 102.789C51.8135 102.814 51.9685 102.809 52.1178 102.773C52.2672 102.738 52.408 102.673 52.532 102.582C52.5735 102.541 52.7392 102.499 52.7806 102.541C52.822 102.582 53.0292 102.417 53.0292 102.417Z" fill="#FDD27F"/>
<path d="M54.1895 101.671L54.438 102.127C54.438 102.127 54.5209 102.541 54.6452 102.582H54.7695C54.7695 102.582 54.8938 103.038 55.1838 102.997C55.4738 102.955 55.8052 102.789 55.8052 102.707C55.8052 102.624 55.8052 102.375 55.6809 102.292C55.5067 102.15 55.3407 101.998 55.1838 101.837L54.9766 101.629L54.1895 101.671Z" fill="#FDD27F"/>
<path d="M51.0099 86.4949C50.9302 86.5356 50.8614 86.5948 50.8093 86.6676C50.7572 86.7404 50.7234 86.8247 50.7106 86.9133C50.6876 87.2091 50.98 87.4878 50.8859 87.7692C50.8325 87.929 50.6662 88.0324 50.6183 88.1939C50.5931 88.3228 50.612 88.4563 50.672 88.573C50.7374 88.7332 50.817 88.8871 50.9099 89.033C51.0845 89.3072 51.3119 89.5673 51.3585 89.8891C51.3715 89.9453 51.3709 90.0038 51.3568 90.0598C51.3428 90.1158 51.3157 90.1677 51.2777 90.2112C51.3618 90.1476 51.458 90.1018 51.5604 90.0768C51.9838 89.9352 52.3772 89.7161 52.7204 89.4306C52.8451 89.343 52.939 89.2182 52.9887 89.074C53.0519 88.8195 52.8587 88.5649 52.8772 88.3032C52.8891 88.1359 52.9857 87.9881 53.0404 87.8295C53.0879 87.6716 53.103 87.5057 53.0849 87.3418C53.0667 87.1779 53.0156 87.0194 52.9347 86.8757C52.8676 86.7368 52.773 86.6129 52.6566 86.5116C52.5402 86.4104 52.4044 86.3338 52.2574 86.2867C52.0314 86.2341 51.7956 86.2409 51.5731 86.3065C51.3786 86.3468 51.1895 86.4101 51.0099 86.4949V86.4949Z" fill="#2F2E41"/>
<path d="M51.2432 88.7923C51.3344 88.6228 51.4695 88.4809 51.6343 88.3815C51.7991 88.282 51.9876 88.2287 52.1801 88.227C52.843 88.227 52.7187 88.1855 52.7187 88.1855L52.5116 89.0141L52.0973 89.4284L51.2432 88.7923Z" fill="#BDBCC6"/>
<path d="M51.4136 87.916C51.4136 87.916 51.7865 88.5375 51.5379 88.7861C51.2893 89.0347 51.4136 89.2832 51.4551 89.3247C51.4965 89.3661 52.6565 89.449 52.6565 89.449L52.698 88.8689L52.8223 88.3718C52.8223 88.3718 52.1594 88.2475 52.2422 87.9575C52.3251 87.6675 51.4136 87.916 51.4136 87.916Z" fill="#D9B59C"/>
<path opacity="0.1" d="M51.4136 87.916C51.4136 87.916 51.7865 88.5375 51.5379 88.7861C51.2893 89.0347 51.4136 89.2832 51.4551 89.3247C51.4965 89.3661 52.6565 89.449 52.6565 89.449L52.698 88.8689L52.8223 88.3718C52.8223 88.3718 52.1594 88.2475 52.2422 87.9575C52.3251 87.6675 51.4136 87.916 51.4136 87.916Z" fill="#D9B59C"/>
<path d="M54.3139 93.7993C54.2695 93.9415 54.2141 94.08 54.1481 94.2136C54.1067 94.255 53.9824 93.9236 53.9824 93.9236L54.1067 93.6335L54.3139 93.7993Z" fill="#FBBEBE"/>
<path d="M53.8377 91.9143L54.0033 92.8672H51.5176L51.6419 91.9143H53.8377Z" fill="#FBBEBE"/>
<path d="M51.8697 88.2474C52.3044 88.2474 52.6569 87.895 52.6569 87.4603C52.6569 87.0255 52.3044 86.6731 51.8697 86.6731C51.4349 86.6731 51.0825 87.0255 51.0825 87.4603C51.0825 87.895 51.4349 88.2474 51.8697 88.2474Z" fill="#D9B59C"/>
<path d="M52.0354 89.0761C52.0354 89.0761 51.5797 89.1175 51.5797 89.0347C51.5797 88.9518 51.5383 88.7032 51.4554 88.7447C51.3726 88.7861 50.834 88.8275 50.8754 88.9518C50.9168 89.0761 50.9997 89.3247 50.9168 89.3247C50.881 89.332 50.8471 89.3465 50.817 89.3674C50.787 89.3882 50.7615 89.415 50.7422 89.446C50.7228 89.477 50.7099 89.5116 50.7043 89.5477C50.6988 89.5838 50.7006 89.6207 50.7097 89.6561C50.7511 89.8633 51.2068 91.1062 51.2068 91.1062C51.2068 91.1062 51.2483 91.5205 51.3726 91.6448C51.4231 91.71 51.4506 91.7901 51.4506 91.8726C51.4506 91.9551 51.4231 92.0353 51.3726 92.1005C51.2897 92.1833 51.5797 92.2662 51.704 92.4319C51.8283 92.5976 52.7812 92.4734 52.8226 92.4319C52.864 92.3905 53.8584 92.3905 53.9412 92.3076C54.0241 92.2248 53.8998 91.9762 53.8998 91.9762C53.8998 91.9762 53.8584 91.6033 53.8998 91.479C53.9412 91.3547 53.7341 89.3247 53.6098 89.2004C53.4855 89.0761 53.9827 88.7032 53.9827 88.7032C53.9827 88.7032 53.8998 88.3718 53.3612 88.3304C53.3612 88.3304 53.1955 88.0818 53.0298 88.0818C52.864 88.0818 52.5042 88.2745 52.5042 88.2745C52.5042 88.2745 52.4083 88.8275 52.284 88.869C52.1858 88.9171 52.1005 88.9881 52.0354 89.0761Z" fill="#D0CDE1"/>
<path d="M53.6927 88.5791L53.9827 88.7034C53.9827 88.7034 54.8113 91.272 54.7284 91.7692C54.6456 92.2664 54.4384 93.965 54.3141 93.965C54.1899 93.965 53.9413 93.7164 53.9413 93.7164V93.3021C53.9413 93.2192 53.817 92.9707 53.8998 92.9707C53.9827 92.9707 54.107 92.8878 54.0241 92.8049C53.9413 92.7221 53.8584 92.5978 53.9413 92.4735C54.0241 92.3492 54.0656 92.3078 54.0241 92.1835C53.9827 92.0592 53.8998 91.9349 53.9827 91.852C54.0656 91.7692 53.7756 91.3549 53.7756 91.3549L53.3198 89.532L53.4027 88.7862L53.6927 88.5791Z" fill="#BDBCC6"/>
<path d="M53.858 92.5147C53.858 92.5147 52.2837 92.3904 52.0765 92.3904C51.8694 92.3904 51.4047 92.1953 51.4047 92.1953C51.4047 92.1953 50.2122 93.3847 50.6265 95.3319C51.0408 97.2791 51.1237 99.6821 51.3722 100.386C51.5412 100.888 51.6795 101.4 51.7865 101.919C51.7865 101.919 52.2008 101.174 52.988 102.002C52.988 102.002 53.0709 101.381 52.9466 101.132C52.8223 100.884 52.6566 99.5578 52.6566 99.5578C52.6566 99.5578 52.3666 97.4448 52.3666 97.1963C52.3666 96.9477 52.2008 94.8348 52.2423 94.7933C52.2837 94.7519 52.4908 96.4091 52.5323 96.6991C52.5737 96.9891 52.698 99.2263 52.8223 99.4749C52.9466 99.7235 53.5266 101.712 53.858 101.836C54.1895 101.961 55.3081 101.795 55.2666 101.712C55.2252 101.629 54.9352 101.174 54.8523 101.049L54.5209 100.552L53.7337 97.8591L54.1066 94.5862C54.1066 94.5862 54.3138 92.4733 53.858 92.5147Z" fill="#856852"/>
<path d="M52.3484 87.357H51.339C51.2961 87.357 51.2547 87.3417 51.2222 87.3139C51.1896 87.2861 51.168 87.2475 51.1614 87.2052L51.061 86.5698H52.6354L52.4946 87.2384C52.4876 87.2719 52.4692 87.302 52.4426 87.3236C52.4159 87.3452 52.3827 87.357 52.3484 87.357Z" fill="#2F2E41"/>
<path d="M104.375 87.1606H105.968V89.436C105.759 89.436 105.551 89.3948 105.358 89.3147C105.165 89.2347 104.989 89.1174 104.841 88.9695C104.694 88.8216 104.576 88.646 104.496 88.4528C104.416 88.2595 104.375 88.0524 104.375 87.8432V87.1606Z" fill="#74411C"/>
<path d="M103.445 100.49L103.332 101.059H104.128L104.166 100.49H103.445Z" fill="#D9B59C"/>
<path d="M103.446 100.945C103.446 100.945 103.294 100.831 103.218 100.907C103.142 100.983 102.877 102.462 102.839 102.5C102.801 102.538 101.663 103.107 101.929 103.145C102.194 103.183 103.218 103.221 103.37 103.145C103.522 103.069 103.939 102.348 103.939 102.348V102.993H104.014C104.014 102.993 104.09 102.31 104.28 102.121C104.47 101.931 104.128 101.287 104.128 101.287C104.128 101.287 104.204 100.869 104.166 100.869C104.128 100.869 103.446 100.945 103.446 100.945Z" fill="#FDD27F"/>
<path d="M105.796 100.092L105.683 100.661H106.479L106.517 100.092H105.796Z" fill="#D9B59C"/>
<path d="M104.887 96.3946C104.887 96.3946 105.266 97.5322 105.342 97.646C105.418 97.7598 105.684 99.8834 105.684 99.8834C105.684 99.8834 105.418 100.301 105.759 100.338C106.101 100.376 105.949 100.263 106.177 100.338C106.238 100.362 106.305 100.371 106.371 100.364C106.436 100.357 106.5 100.336 106.556 100.301C106.556 100.301 106.67 100.073 106.594 99.9972C106.518 99.9213 106.67 97.9494 106.67 97.9494L106.442 97.2668L106.252 95.1052C106.252 95.1052 106.48 94.5364 106.366 94.3847C106.252 94.233 105.873 94.4985 105.873 94.4985L104.887 96.3946Z" fill="#856852"/>
<path d="M104.393 93.437C104.393 93.437 104.28 94.6505 104.204 94.7264C104.128 94.8022 103.294 96.9258 103.294 96.9258C103.294 96.9258 103.066 97.1913 103.142 98.1773C103.218 99.1632 103.407 100.149 103.407 100.149C103.407 100.149 103.256 100.718 103.521 100.718C103.787 100.718 103.9 100.566 104.014 100.68C104.128 100.794 104.204 100.68 104.242 100.604C104.28 100.528 104.431 100.263 104.431 100.187C104.431 100.111 104.583 98.1773 104.583 98.1773C104.583 98.1773 105.834 95.409 105.948 95.2573C106.062 95.1056 106.707 94.2713 106.669 93.7025L104.393 93.437Z" fill="#856852"/>
<path d="M105.342 88.3171C105.782 88.3171 106.138 87.9605 106.138 87.5207C106.138 87.0809 105.782 86.7244 105.342 86.7244C104.902 86.7244 104.545 87.0809 104.545 87.5207C104.545 87.9605 104.902 88.3171 105.342 88.3171Z" fill="#D9B59C"/>
<path d="M105.19 88.2036C105.19 88.2036 105.494 88.8862 105.532 89.0758C105.57 89.2654 106.29 88.6966 106.29 88.6966C106.29 88.6966 105.911 88.0519 106.025 87.7485L105.19 88.2036Z" fill="#D9B59C"/>
<path d="M106.404 88.5829C106.404 88.5829 105.835 88.1657 105.418 89.0379C105 89.9101 104.887 89.8722 104.887 89.8722C104.887 89.8722 104.394 90.0239 104.545 91.0857C104.697 92.1475 104.052 93.5506 104.318 93.6265C104.583 93.7023 107.048 94.1195 107.048 93.8161C107.048 93.5127 106.821 92.3371 107.01 91.6166C107.2 90.8961 106.745 88.3932 106.404 88.5829Z" fill="#D0CDE1"/>
<path d="M105.835 88.7725C105.835 88.7725 105.38 89.4551 105.418 89.986C105.455 90.5169 105.455 90.8582 105.455 90.8582C105.455 90.8582 104.697 94.4987 104.849 94.4987C105 94.4987 105.455 94.6883 105.493 94.5745C105.531 94.4608 106.479 92.1475 106.479 92.1475C106.479 92.1475 106.707 89.8343 106.441 89.3034C106.176 88.7725 105.835 88.7725 105.835 88.7725Z" fill="#AFAFAF"/>
<path d="M104.925 94.3848C104.925 94.3848 104.545 95.6741 105.076 95.712C105.607 95.75 105.304 94.4606 105.304 94.4606L104.925 94.3848Z" fill="#D9B59C"/>
<path d="M105.934 100.365C105.934 100.365 105.801 100.266 105.735 100.332C105.669 100.399 105.436 101.694 105.403 101.727C105.37 101.76 104.373 102.258 104.606 102.292C104.838 102.325 105.735 102.358 105.868 102.292C106.001 102.225 106.366 101.594 106.366 101.594V102.159H106.432C106.432 102.159 106.499 101.561 106.665 101.395C106.831 101.229 106.532 100.664 106.532 100.664C106.532 100.664 106.598 100.299 106.565 100.299C106.532 100.299 105.934 100.365 105.934 100.365Z" fill="#FDD27F"/>
<path d="M104.948 86.9992C104.973 86.9684 105.006 86.9449 105.044 86.9313C105.079 86.925 105.115 86.9281 105.148 86.9403C105.386 87.0097 105.592 87.1597 105.732 87.3645C105.759 87.4167 105.799 87.4606 105.849 87.4917C105.882 87.5014 105.914 87.5135 105.944 87.5279C106.033 87.5865 105.98 87.7223 105.929 87.8156C105.799 88.0554 105.738 88.3272 105.755 88.5997C105.754 88.6471 105.768 88.6936 105.795 88.7325C105.838 88.7723 105.894 88.7947 105.953 88.7955C106.137 88.8186 106.322 88.8285 106.508 88.8252C106.689 88.8219 106.891 88.7961 107.008 88.6579C107.135 88.5092 107.115 88.2815 107.033 88.1045C106.95 87.9275 106.817 87.7796 106.722 87.6091C106.632 87.429 106.56 87.24 106.509 87.0451C106.444 86.7965 106.338 86.5602 106.196 86.3457C106.124 86.2388 106.031 86.1478 105.923 86.0784C105.815 86.0089 105.693 85.9625 105.566 85.942C105.222 85.9036 104.904 86.1157 104.627 86.3243C104.316 86.5584 103.985 86.8481 103.96 87.2365C103.94 87.5512 104.129 87.8359 104.228 88.1354C104.38 88.5977 104.316 89.0999 104.251 89.5823C104.532 89.4141 104.849 89.1805 104.831 88.8537C104.819 88.6332 104.652 88.4573 104.549 88.2622C104.264 87.7259 104.589 87.3664 104.948 86.9992Z" fill="#74411C"/>
<path d="M116.147 90.8748C116.388 90.4541 116.512 89.9769 116.508 89.4921C116.508 88.2425 115.734 87.2295 114.779 87.2295C113.825 87.2295 113.051 88.2425 113.051 89.4921C113.046 89.9769 113.171 90.4541 113.412 90.8748C113.175 91.2972 113.051 91.7733 113.051 92.2575C113.051 92.7417 113.175 93.2177 113.412 93.6402C113.175 94.0626 113.051 94.5387 113.051 95.0229C113.051 95.5071 113.175 95.9831 113.412 96.4056C113.175 96.828 113.051 97.3041 113.051 97.7883C113.051 98.2724 113.175 98.7485 113.412 99.171C113.171 99.5916 113.046 100.069 113.051 100.554C113.051 101.803 113.825 102.816 114.779 102.816C115.734 102.816 116.508 101.803 116.508 100.554C116.512 100.069 116.388 99.5916 116.147 99.171C116.383 98.7485 116.508 98.2724 116.508 97.7883C116.508 97.3041 116.383 96.828 116.147 96.4056C116.383 95.9831 116.508 95.5071 116.508 95.0229C116.508 94.5387 116.383 94.0626 116.147 93.6402C116.383 93.2177 116.508 92.7417 116.508 92.2575C116.508 91.7733 116.383 91.2972 116.147 90.8748V90.8748Z" fill="#74411C"/>
<path d="M114.779 88.9898C115.734 88.9898 116.508 87.9768 116.508 86.7272C116.508 85.4776 115.734 84.4646 114.779 84.4646C113.825 84.4646 113.051 85.4776 113.051 86.7272C113.051 87.9768 113.825 88.9898 114.779 88.9898Z" fill="#74411C"/>
<path d="M114.779 86.2239C115.734 86.2239 116.508 85.2109 116.508 83.9613C116.508 82.7117 115.734 81.6987 114.779 81.6987C113.825 81.6987 113.051 82.7117 113.051 83.9613C113.051 85.2109 113.825 86.2239 114.779 86.2239Z" fill="#3F3D56"/>
<path d="M121.25 65.037C121.486 64.7364 121.701 64.4198 121.894 64.0895L117.352 63.3436L122.264 63.3802C122.735 62.355 122.992 61.2445 123.019 60.1165C123.047 58.9886 122.843 57.867 122.422 56.8203L115.832 60.2387L121.91 55.7715C121.34 54.7876 120.574 53.9316 119.66 53.2566C118.745 52.5816 117.701 52.1022 116.593 51.8482C115.485 51.5942 114.337 51.5711 113.22 51.7804C112.102 51.9896 111.04 52.4266 110.099 53.0643C109.158 53.7019 108.358 54.5265 107.75 55.4867C107.141 56.4468 106.737 57.522 106.562 58.6452C106.388 59.7684 106.446 60.9156 106.734 62.0152C107.022 63.1149 107.533 64.1435 108.236 65.037C107.868 65.5049 107.551 66.0111 107.291 66.5468L113.187 69.6095L106.901 67.4998C106.459 68.8046 106.35 70.1987 106.583 71.5562C106.816 72.9137 107.384 74.1916 108.236 75.2744C107.275 76.4955 106.678 77.9624 106.511 79.5071C106.345 81.0519 106.617 82.6122 107.296 84.0098C107.975 85.4073 109.033 86.5856 110.35 87.41C111.667 88.2344 113.189 88.6716 114.743 88.6716C116.296 88.6716 117.819 88.2344 119.136 87.41C120.453 86.5856 121.511 85.4073 122.19 84.0098C122.869 82.6122 123.14 81.0519 122.974 79.5071C122.808 77.9624 122.211 76.4955 121.25 75.2744C122.398 73.815 123.022 72.0123 123.022 70.1557C123.022 68.2991 122.398 66.4963 121.25 65.037V65.037Z" fill="#F2F2F2"/>
<path d="M106.464 70.1557C106.461 72.0128 107.085 73.8164 108.236 75.2744C107.275 76.4955 106.678 77.9624 106.511 79.5071C106.345 81.0519 106.617 82.6122 107.296 84.0098C107.975 85.4073 109.033 86.5856 110.35 87.41C111.667 88.2344 113.189 88.6716 114.743 88.6716C116.296 88.6716 117.819 88.2344 119.136 87.41C120.453 86.5856 121.511 85.4073 122.19 84.0098C122.869 82.6122 123.14 81.0519 122.974 79.5071C122.808 77.9624 122.211 76.4955 121.25 75.2744C122.36 73.8657 106.464 69.2265 106.464 70.1557Z" fill="#F2F2F2"/>
<path d="M121.25 65.037C121.486 64.7364 121.701 64.4198 121.894 64.0895L117.352 63.3436L122.264 63.3802C122.735 62.355 122.992 61.2445 123.019 60.1165C123.047 58.9886 122.843 57.867 122.422 56.8203L115.832 60.2387L121.91 55.7715C121.34 54.7876 120.574 53.9316 119.66 53.2566C118.745 52.5816 117.701 52.1022 116.593 51.8482C115.485 51.5942 114.337 51.5711 113.22 51.7804C112.102 51.9896 111.04 52.4266 110.099 53.0643C109.158 53.7019 108.358 54.5265 107.75 55.4867C107.141 56.4468 106.737 57.522 106.562 58.6452C106.388 59.7684 106.446 60.9156 106.734 62.0152C107.022 63.1149 107.533 64.1435 108.236 65.037C107.868 65.5049 107.551 66.0111 107.291 66.5468L113.187 69.6095L106.901 67.4998C106.459 68.8046 106.35 70.1987 106.583 71.5562C106.816 72.9137 107.384 74.1916 108.236 75.2744C107.275 76.4955 106.678 77.9624 106.511 79.5071C106.345 81.0519 106.617 82.6122 107.296 84.0098C107.975 85.4073 109.033 86.5856 110.35 87.41C111.667 88.2344 113.189 88.6716 114.743 88.6716C116.296 88.6716 117.819 88.2344 119.136 87.41C120.453 86.5856 121.511 85.4073 122.19 84.0098C122.869 82.6122 123.14 81.0519 122.974 79.5071C122.808 77.9624 122.211 76.4955 121.25 75.2744C122.398 73.815 123.022 72.0123 123.022 70.1557C123.022 68.2991 122.398 66.4963 121.25 65.037V65.037Z" fill="#FDD27F"/>
<path opacity="0.1" d="M106.464 70.1557C106.461 72.0128 107.085 73.8164 108.236 75.2744C107.275 76.4955 106.678 77.9624 106.511 79.5071C106.345 81.0519 106.617 82.6122 107.296 84.0098C107.975 85.4073 109.033 86.5856 110.35 87.41C111.667 88.2344 113.189 88.6716 114.743 88.6716C116.296 88.6716 117.819 88.2344 119.136 87.41C120.453 86.5856 121.511 85.4073 122.19 84.0098C122.869 82.6122 123.14 81.0519 122.974 79.5071C122.808 77.9624 122.211 76.4955 121.25 75.2744C122.36 73.8657 106.464 69.2265 106.464 70.1557Z" fill="black"/>
<path d="M29.142 90.8748C29.383 90.4541 29.5075 89.9769 29.5028 89.4921C29.5028 88.2425 28.729 87.2295 27.7744 87.2295C26.8199 87.2295 26.046 88.2425 26.046 89.4921C26.0413 89.9769 26.1658 90.4541 26.4068 90.8748C26.1702 91.2972 26.046 91.7733 26.046 92.2575C26.046 92.7417 26.1702 93.2177 26.4068 93.6402C26.1702 94.0626 26.046 94.5387 26.046 95.0229C26.046 95.5071 26.1702 95.9831 26.4068 96.4056C26.1702 96.828 26.046 97.3041 26.046 97.7883C26.046 98.2724 26.1702 98.7485 26.4068 99.171C26.1658 99.5916 26.0413 100.069 26.046 100.554C26.046 101.803 26.8198 102.816 27.7744 102.816C28.729 102.816 29.5028 101.803 29.5028 100.554C29.5075 100.069 29.383 99.5916 29.142 99.171C29.3786 98.7485 29.5028 98.2724 29.5028 97.7883C29.5028 97.3041 29.3786 96.828 29.142 96.4056C29.3786 95.9831 29.5028 95.5071 29.5028 95.0229C29.5028 94.5387 29.3786 94.0626 29.142 93.6402C29.3786 93.2177 29.5028 92.7417 29.5028 92.2575C29.5028 91.7733 29.3786 91.2972 29.142 90.8748V90.8748Z" fill="#74411C"/>
<path d="M27.7748 88.9898C28.7293 88.9898 29.5031 87.9768 29.5031 86.7272C29.5031 85.4776 28.7293 84.4646 27.7748 84.4646C26.8202 84.4646 26.0464 85.4776 26.0464 86.7272C26.0464 87.9768 26.8202 88.9898 27.7748 88.9898Z" fill="#74411C"/>
<path d="M27.7748 86.2239C28.7293 86.2239 29.5031 85.2109 29.5031 83.9613C29.5031 82.7117 28.7293 81.6987 27.7748 81.6987C26.8202 81.6987 26.0464 82.7117 26.0464 83.9613C26.0464 85.2109 26.8202 86.2239 27.7748 86.2239Z" fill="#3F3D56"/>
<path d="M34.2446 65.037C34.4808 64.7364 34.6958 64.4198 34.8883 64.0895L30.3469 63.3436L35.2585 63.3802C35.7297 62.355 35.9868 61.2445 36.014 60.1165C36.0411 58.9886 35.8379 57.867 35.4166 56.8203L28.827 60.2387L34.9042 55.7715C34.3348 54.7876 33.569 53.9316 32.6544 53.2566C31.7397 52.5816 30.6959 52.1022 29.5879 51.8482C28.4799 51.5942 27.3315 51.5711 26.2142 51.7804C25.0969 51.9896 24.0347 52.4266 23.0936 53.0643C22.1526 53.7019 21.3529 54.5265 20.7445 55.4867C20.136 56.4468 19.7318 57.522 19.557 58.6452C19.3822 59.7684 19.4405 60.9156 19.7284 62.0152C20.0163 63.1149 20.5275 64.1435 21.2302 65.037C20.8622 65.5049 20.5456 66.0111 20.2861 66.5468L26.1812 69.6095L19.8953 67.4998C19.454 68.8046 19.3449 70.1987 19.578 71.5562C19.8111 72.9137 20.3789 74.1916 21.2302 75.2744C20.2697 76.4955 19.6722 77.9624 19.506 79.5071C19.3398 81.0519 19.6117 82.6122 20.2905 84.0098C20.9693 85.4073 22.0276 86.5856 23.3445 87.41C24.6614 88.2344 26.1838 88.6716 27.7374 88.6716C29.2911 88.6716 30.8134 88.2344 32.1303 87.41C33.4472 86.5856 34.5056 85.4073 35.1844 84.0098C35.8632 82.6122 36.1351 81.0519 35.9689 79.5071C35.8027 77.9624 35.2052 76.4955 34.2446 75.2744C35.3924 73.815 36.0164 72.0123 36.0164 70.1557C36.0164 68.2991 35.3924 66.4963 34.2446 65.037L34.2446 65.037Z" fill="#F2F2F2"/>
<path d="M19.4585 70.1557C19.4556 72.0128 20.0799 73.8164 21.2302 75.2744C20.2697 76.4955 19.6722 77.9624 19.506 79.5071C19.3398 81.0519 19.6117 82.6122 20.2905 84.0098C20.9693 85.4073 22.0276 86.5856 23.3445 87.41C24.6614 88.2344 26.1838 88.6716 27.7374 88.6716C29.2911 88.6716 30.8134 88.2344 32.1303 87.41C33.4472 86.5856 34.5056 85.4073 35.1844 84.0098C35.8632 82.6122 36.1351 81.0519 35.9689 79.5071C35.8027 77.9624 35.2052 76.4955 34.2446 75.2744C35.3543 73.8657 19.4585 69.2265 19.4585 70.1557Z" fill="#F2F2F2"/>
<path d="M34.2446 65.037C34.4808 64.7364 34.6958 64.4198 34.8883 64.0895L30.3469 63.3436L35.2585 63.3802C35.7297 62.355 35.9868 61.2445 36.014 60.1165C36.0411 58.9886 35.8379 57.867 35.4166 56.8203L28.827 60.2387L34.9042 55.7715C34.3348 54.7876 33.569 53.9316 32.6544 53.2566C31.7397 52.5816 30.6959 52.1022 29.5879 51.8482C28.4799 51.5942 27.3315 51.5711 26.2142 51.7804C25.0969 51.9896 24.0347 52.4266 23.0936 53.0643C22.1526 53.7019 21.3529 54.5265 20.7445 55.4867C20.136 56.4468 19.7318 57.522 19.557 58.6452C19.3822 59.7684 19.4405 60.9156 19.7284 62.0152C20.0163 63.1149 20.5275 64.1435 21.2302 65.037C20.8622 65.5049 20.5456 66.0111 20.2861 66.5468L26.1812 69.6095L19.8953 67.4998C19.454 68.8046 19.3449 70.1987 19.578 71.5562C19.8111 72.9137 20.3789 74.1916 21.2302 75.2744C20.2697 76.4955 19.6722 77.9624 19.506 79.5071C19.3398 81.0519 19.6117 82.6122 20.2905 84.0098C20.9693 85.4073 22.0276 86.5856 23.3445 87.41C24.6614 88.2344 26.1838 88.6716 27.7374 88.6716C29.2911 88.6716 30.8134 88.2344 32.1303 87.41C33.4472 86.5856 34.5056 85.4073 35.1844 84.0098C35.8632 82.6122 36.1351 81.0519 35.9689 79.5071C35.8027 77.9624 35.2052 76.4955 34.2446 75.2744C35.3924 73.815 36.0164 72.0123 36.0164 70.1557C36.0164 68.2991 35.3924 66.4963 34.2446 65.037L34.2446 65.037Z" fill="#FDD27F"/>
<path opacity="0.1" d="M19.4585 70.1557C19.4556 72.0128 20.0799 73.8164 21.2302 75.2744C20.2697 76.4955 19.6722 77.9624 19.506 79.5071C19.3398 81.0519 19.6117 82.6122 20.2905 84.0098C20.9693 85.4073 22.0276 86.5856 23.3445 87.41C24.6614 88.2344 26.1838 88.6716 27.7374 88.6716C29.2911 88.6716 30.8134 88.2344 32.1303 87.41C33.4472 86.5856 34.5056 85.4073 35.1844 84.0098C35.8632 82.6122 36.1351 81.0519 35.9689 79.5071C35.8027 77.9624 35.2052 76.4955 34.2446 75.2744C35.3543 73.8657 19.4585 69.2265 19.4585 70.1557Z" fill="black"/>
<path d="M79.1215 64.5828L75.0136 68.6906L73.0673 66.7444L72.3096 67.5021L75.011 70.2036L79.8793 65.3405L79.1215 64.5828Z" fill="#F7BD4F"/>
<path d="M92.1977 55.2131L88.0898 59.321L86.1435 57.3748L85.3857 58.1325L88.0872 60.834L92.9555 55.9709L92.1977 55.2131Z" fill="#F7BD4F"/>
</svg>
