<svg width="148" height="124" viewBox="0 0 148 124" fill="none" xmlns="http://www.w3.org/2000/svg">
<rect width="148" height="124" fill="white"/>
<path d="M105.08 103.711H52.5515C52.2259 103.71 51.9137 103.581 51.6834 103.351C51.4531 103.121 51.3236 102.809 51.3232 102.483V66.648C51.3236 66.3227 51.4531 66.0108 51.6834 65.7807C51.9137 65.5507 52.2259 65.4213 52.5515 65.4209H105.08C105.406 65.4213 105.718 65.5507 105.948 65.7807C106.179 66.0108 106.308 66.3227 106.309 66.648V102.483C106.308 102.809 106.179 103.121 105.948 103.351C105.718 103.581 105.406 103.71 105.08 103.711Z" fill="#FDD27F"/>
<path d="M105.08 103.711H52.5515C52.2259 103.71 51.9137 103.581 51.6834 103.351C51.4531 103.121 51.3236 102.809 51.3232 102.483V66.648C51.3236 66.3227 51.4531 66.0108 51.6834 65.7807C51.9137 65.5507 52.2259 65.4213 52.5515 65.4209H105.08C105.406 65.4213 105.718 65.5507 105.948 65.7807C106.179 66.0108 106.308 66.3227 106.309 66.648V102.483C106.308 102.809 106.179 103.121 105.948 103.351C105.718 103.581 105.406 103.71 105.08 103.711ZM52.5515 65.6936C52.2982 65.6939 52.0554 65.7945 51.8763 65.9735C51.6972 66.1524 51.5965 66.395 51.5962 66.648V102.483C51.5965 102.736 51.6972 102.979 51.8763 103.158C52.0554 103.337 52.2982 103.438 52.5515 103.438H105.08C105.334 103.438 105.576 103.337 105.755 103.158C105.935 102.979 106.035 102.736 106.036 102.483V66.648C106.035 66.395 105.935 66.1524 105.755 65.9735C105.576 65.7945 105.334 65.6939 105.08 65.6936H52.5515Z" fill="#74411C"/>
<path d="M84.8965 103.495H72.7354V83.3807C72.7359 82.9036 72.9258 82.4462 73.2635 82.1089C73.6011 81.7716 74.0589 81.5818 74.5364 81.5813H83.0955C83.573 81.5818 84.0307 81.7716 84.3684 82.1089C84.706 82.4462 84.896 82.9036 84.8965 83.3807V103.495Z" fill="#D9A885"/>
<path d="M102.215 57.782H95.2705V46.1864C95.2709 45.861 95.4004 45.5491 95.6307 45.3191C95.8609 45.089 96.1731 44.9596 96.4988 44.9592H100.987C101.313 44.9596 101.625 45.089 101.855 45.3191C102.086 45.5491 102.215 45.861 102.215 46.1864V57.782Z" fill="#74411C"/>
<path d="M102.215 57.782H95.2705V46.1864C95.2709 45.861 95.4004 45.5491 95.6307 45.3191C95.8609 45.089 96.1731 44.9596 96.4988 44.9592H100.987C101.313 44.9596 101.625 45.089 101.855 45.3191C102.086 45.5491 102.215 45.861 102.215 46.1864V57.782ZM95.5435 57.5093H101.943V46.1864C101.942 45.9333 101.842 45.6907 101.662 45.5118C101.483 45.3329 101.24 45.2322 100.987 45.2319H96.4988C96.2455 45.2322 96.0027 45.3329 95.8236 45.5118C95.6445 45.6907 95.5437 45.9333 95.5435 46.1864V57.5093Z" fill="#3F3D56"/>
<path d="M63.0595 62.6651C70.4455 62.6651 76.433 56.6832 76.433 49.3041C76.433 41.925 70.4455 35.9431 63.0595 35.9431C55.6735 35.9431 49.686 41.925 49.686 49.3041C49.686 56.6832 55.6735 62.6651 63.0595 62.6651Z" fill="#F6BD4F"/>
<path d="M98.951 42.9266C97.7466 42.8888 96.6745 41.7913 96.6658 40.5874C96.6572 39.3835 97.7136 38.2709 98.9174 38.2159C101.598 38.0934 103.792 35.2197 103.202 32.6046C102.613 29.9896 99.3964 28.334 96.9226 29.3718C95.0248 30.168 93.1072 27.6594 93.5882 25.66C94.0691 23.6606 95.8892 22.318 97.5732 21.1357C99.2573 19.9534 101.059 18.5653 101.465 16.5495C101.872 14.5336 99.7909 12.1189 97.9574 13.0533" fill="#FDD27F"/>
<path d="M67.5989 87.4241H57.3263C56.9165 87.4237 56.5237 87.2609 56.2339 86.9714C55.9442 86.6819 55.7812 86.2894 55.7808 85.88V77.419C55.7812 77.0097 55.9442 76.6172 56.234 76.3277C56.5237 76.0383 56.9165 75.8755 57.3263 75.875H67.5989C68.0086 75.8755 68.4015 76.0383 68.6912 76.3277C68.9809 76.6172 69.1439 77.0097 69.1444 77.419V85.88C69.1439 86.2894 68.981 86.6819 68.6912 86.9714C68.4015 87.2608 68.0086 87.4237 67.5989 87.4241V87.4241Z" fill="white"/>
<path d="M100.543 87.4241H90.2706C89.8609 87.4237 89.468 87.2608 89.1783 86.9714C88.8885 86.6819 88.7256 86.2894 88.7251 85.88V77.419C88.7256 77.0097 88.8885 76.6172 89.1783 76.3277C89.468 76.0383 89.8609 75.8755 90.2706 75.875H100.543C100.953 75.8755 101.346 76.0383 101.636 76.3277C101.925 76.6172 102.088 77.0097 102.089 77.419V85.88C102.088 86.2894 101.925 86.6819 101.636 86.9714C101.346 87.2608 100.953 87.4237 100.543 87.4241V87.4241Z" fill="white"/>
<path d="M47.4014 66.1577V60.6441C47.4014 60.2206 47.5134 59.8046 47.7262 59.4383C47.939 59.0719 48.2449 58.7683 48.6129 58.5581L79.2757 41.0491C79.6564 40.8318 80.0892 40.7225 80.5275 40.7331C80.9657 40.7438 81.3928 40.8739 81.7624 41.1094L109.119 58.5416C109.459 58.7587 109.74 59.0581 109.934 59.4122C110.128 59.7662 110.23 60.1635 110.23 60.5673V66.1577C110.23 66.7949 109.977 67.4061 109.526 67.8566C109.075 68.3072 108.463 68.5604 107.825 68.5604H49.8063C49.1685 68.5604 48.5568 68.3072 48.1058 67.8566C47.6547 67.4061 47.4014 66.7949 47.4014 66.1577V66.1577Z" fill="#74411C"/>
<path opacity="0.2" d="M107.825 66.1058H49.8063C49.1685 66.1058 48.5568 65.8527 48.1058 65.4021C47.6547 64.9515 47.4014 64.3404 47.4014 63.7031V65.8847C47.4014 66.5219 47.6547 67.1331 48.1058 67.5837C48.5568 68.0343 49.1685 68.2874 49.8063 68.2874H107.825C108.463 68.2874 109.075 68.0343 109.526 67.5837C109.977 67.1331 110.23 66.5219 110.23 65.8847V63.7031C110.23 64.3404 109.977 64.9515 109.526 65.4021C109.075 65.8527 108.463 66.1058 107.825 66.1058V66.1058Z" fill="black"/>
<path d="M112.536 84.9731C112.536 80.745 115.967 70.7119 120.199 70.7119C124.431 70.7119 127.862 80.745 127.862 84.9731C127.862 87.0035 127.054 88.9507 125.617 90.3864C124.18 91.8221 122.231 92.6287 120.199 92.6287C118.167 92.6287 116.218 91.8221 114.781 90.3864C113.343 88.9507 112.536 87.0035 112.536 84.9731V84.9731Z" fill="#FDD27F"/>
<path d="M120.199 103.548C120.163 103.548 120.128 103.533 120.102 103.508C120.077 103.482 120.063 103.448 120.062 103.411V75.922C120.062 75.8858 120.077 75.8511 120.102 75.8256C120.128 75.8 120.163 75.7856 120.199 75.7856C120.235 75.7856 120.27 75.8 120.295 75.8256C120.321 75.8511 120.335 75.8858 120.335 75.922V103.411C120.335 103.448 120.321 103.482 120.295 103.508C120.27 103.533 120.235 103.548 120.199 103.548V103.548Z" fill="#74411C"/>
<path d="M120.199 88.1124C120.172 88.1124 120.146 88.1046 120.124 88.0899C120.102 88.0752 120.084 88.0543 120.074 88.0298C120.063 88.0052 120.06 87.9781 120.065 87.9519C120.069 87.9256 120.082 87.9013 120.1 87.882L123.996 83.7981C124.008 83.7852 124.023 83.7748 124.039 83.7675C124.055 83.7603 124.073 83.7563 124.091 83.7559C124.109 83.7555 124.127 83.7586 124.144 83.765C124.16 83.7715 124.176 83.7812 124.188 83.7935C124.201 83.8059 124.212 83.8206 124.219 83.837C124.226 83.8534 124.23 83.871 124.231 83.8889C124.231 83.9068 124.228 83.9246 124.222 83.9413C124.215 83.958 124.205 83.9733 124.193 83.9863L120.298 88.0701C120.285 88.0835 120.27 88.0942 120.253 88.1014C120.236 88.1087 120.217 88.1124 120.199 88.1124V88.1124Z" fill="#74411C"/>
<path d="M120.199 81.2272C120.165 81.2273 120.132 81.2145 120.107 81.1915L116.74 78.1166C116.727 78.1045 116.716 78.09 116.709 78.0737C116.701 78.0575 116.697 78.0399 116.696 78.022C116.695 78.0041 116.698 77.9862 116.704 77.9693C116.71 77.9524 116.719 77.937 116.732 77.9237C116.744 77.9105 116.758 77.8998 116.775 77.8922C116.791 77.8846 116.808 77.8803 116.826 77.8795C116.844 77.8787 116.862 77.8815 116.879 77.8877C116.896 77.8938 116.911 77.9032 116.925 77.9154L120.291 80.9903C120.311 81.0088 120.325 81.0331 120.332 81.0598C120.338 81.0866 120.336 81.1146 120.326 81.1403C120.316 81.1659 120.299 81.1879 120.276 81.2034C120.253 81.2189 120.226 81.2272 120.199 81.2272V81.2272Z" fill="#74411C"/>
<path d="M19.0063 76.5608C19.0063 70.3411 24.0531 55.582 30.2786 55.582C36.5041 55.582 41.5509 70.3411 41.5509 76.5608C41.5509 79.5476 40.3633 82.4121 38.2493 84.524C36.1354 86.636 33.2682 87.8225 30.2786 87.8225C27.289 87.8225 24.4219 86.636 22.3079 84.524C20.194 82.4121 19.0063 79.5476 19.0063 76.5608V76.5608Z" fill="#BC903D"/>
<path d="M30.2786 103.821C30.2424 103.821 30.2077 103.806 30.1821 103.781C30.1565 103.755 30.1421 103.72 30.1421 103.684V63.2462C30.1421 63.21 30.1565 63.1754 30.1821 63.1498C30.2077 63.1242 30.2424 63.1099 30.2786 63.1099C30.3148 63.1099 30.3495 63.1242 30.3751 63.1498C30.4007 63.1754 30.415 63.21 30.415 63.2462V103.684C30.415 103.72 30.4007 103.755 30.3751 103.781C30.3495 103.806 30.3148 103.821 30.2786 103.821V103.821Z" fill="#74411C"/>
<path d="M30.2786 81.1145C30.2518 81.1145 30.2257 81.1066 30.2034 81.0919C30.1811 81.0772 30.1636 81.0563 30.1531 81.0318C30.1426 81.0073 30.1395 80.9802 30.1443 80.9539C30.149 80.9276 30.1614 80.9034 30.1798 80.884L35.9099 74.8765C35.9349 74.8503 35.9693 74.8351 36.0055 74.8343C36.0417 74.8334 36.0767 74.8469 36.1029 74.8719C36.1291 74.8968 36.1443 74.9311 36.1452 74.9673C36.1461 75.0035 36.1325 75.0385 36.1076 75.0647L30.3774 81.0722C30.3646 81.0856 30.3493 81.0962 30.3323 81.1035C30.3153 81.1107 30.297 81.1145 30.2786 81.1145V81.1145Z" fill="#74411C"/>
<path d="M30.2784 70.9858C30.2443 70.9858 30.2115 70.9731 30.1863 70.9501L25.2343 66.4267C25.2076 66.4023 25.1917 66.3683 25.1901 66.3321C25.1885 66.296 25.2013 66.2607 25.2257 66.234C25.2501 66.2074 25.2842 66.1915 25.3203 66.1898C25.3565 66.1882 25.3918 66.201 25.4185 66.2254L30.3705 70.7488C30.3908 70.7674 30.4051 70.7916 30.4113 70.8184C30.4176 70.8451 30.4156 70.8732 30.4056 70.8988C30.3957 70.9244 30.3782 70.9464 30.3555 70.962C30.3328 70.9775 30.3059 70.9858 30.2784 70.9858H30.2784Z" fill="#74411C"/>
<path d="M114.846 103.534C114.859 103.544 114.873 103.553 114.886 103.563H125.982C126.2 102.683 126.277 101.802 125.952 101.037C125.489 99.9463 124.12 99.2657 123.031 99.7339C122.773 99.8478 122.548 100.025 122.378 100.25C121.952 99.4891 121.189 98.9154 120.308 98.916C119.204 98.9168 118.287 99.8186 117.987 100.86C117.505 100.047 116.552 99.4786 115.621 99.7231C114.064 100.132 113.572 102.551 114.846 103.534Z" fill="#E6E6E6"/>
<path d="M19.5128 103.778C19.5388 103.798 19.5663 103.816 19.5927 103.836H41.9942C42.4332 102.059 42.5882 100.28 41.9325 98.7354C40.9983 96.5344 38.2336 95.1604 36.0356 96.1056C35.5148 96.3356 35.0612 96.6942 34.7174 97.1477C33.8584 95.6115 32.3176 94.4533 30.5391 94.4546C28.3109 94.4562 26.4582 96.2767 25.8536 98.3795C24.8801 96.7377 22.9571 95.5904 21.0775 96.0839C17.9338 96.9094 16.9408 101.792 19.5128 103.778Z" fill="#E6E6E6"/>
<path d="M131.999 103.439L16 103.658L16.0005 103.931L132 103.711L131.999 103.439Z" fill="#74411C"/>
<path d="M55.1432 97.8892C55.1708 97.7814 55.1745 97.6689 55.154 97.5595C55.1334 97.4501 55.0891 97.3466 55.0242 97.2562C54.9593 97.1658 54.8753 97.0907 54.7782 97.0363C54.6811 96.9818 54.5732 96.9493 54.4621 96.9409L50.128 91.5273L49.0557 92.5259L53.6341 97.6972C53.6325 97.8845 53.6997 98.0659 53.8231 98.207C53.9464 98.3482 54.1173 98.4392 54.3033 98.4628C54.4893 98.4865 54.6775 98.4412 54.8323 98.3354C54.9871 98.2297 55.0977 98.0709 55.1432 97.8892V97.8892Z" fill="#D9B59C"/>
<path d="M50.9597 92.3876L49.59 93.4355C49.551 93.4654 49.5061 93.4864 49.4582 93.4973C49.4104 93.5082 49.3607 93.5087 49.3127 93.4987C49.2646 93.4887 49.2193 93.4685 49.1798 93.4394C49.1402 93.4103 49.1074 93.373 49.0836 93.3302L48.2493 91.8275C48.0977 91.6274 48.0318 91.3755 48.0659 91.1269C48.1 90.8784 48.2314 90.6534 48.4312 90.5015C48.631 90.3495 48.883 90.2829 49.1319 90.3163C49.3808 90.3496 49.6063 90.4802 49.759 90.6794L50.9899 91.8717C51.0251 91.9058 51.0526 91.9471 51.0704 91.9929C51.0882 92.0386 51.0959 92.0876 51.093 92.1365C51.0902 92.1855 51.0768 92.2332 51.0538 92.2766C51.0308 92.3199 50.9987 92.3577 50.9597 92.3876H50.9597Z" fill="#D0CDE1"/>
<path d="M48.6592 89.1192C49.6212 89.1192 50.401 88.3401 50.401 87.3791C50.401 86.418 49.6212 85.6389 48.6592 85.6389C47.6973 85.6389 46.9175 86.418 46.9175 87.3791C46.9175 88.3401 47.6973 89.1192 48.6592 89.1192Z" fill="#D9B59C"/>
<path d="M52.3774 109.951H53.2468L53.164 108.325H51.8809L52.3774 109.951Z" fill="#FFB8B8"/>
<path d="M52.1558 109.668L53.8679 109.667H53.868C54.0113 109.667 54.1532 109.696 54.2856 109.75C54.418 109.805 54.5382 109.886 54.6396 109.987C54.7409 110.088 54.8213 110.208 54.8761 110.34C54.9309 110.473 54.9591 110.614 54.9591 110.758V110.793L52.1558 110.793L52.1558 109.668Z" fill="#856852"/>
<path d="M43.1079 108.721L43.8476 109.178L44.6323 107.751L43.7373 107.192L43.1079 108.721Z" fill="#FFB8B8"/>
<path d="M43.0681 108.364L44.5248 109.263L44.5249 109.263C44.6468 109.338 44.7527 109.436 44.8365 109.553C44.9203 109.669 44.9804 109.8 45.0133 109.94C45.0463 110.079 45.0514 110.223 45.0285 110.365C45.0056 110.506 44.955 110.641 44.8797 110.763L44.8611 110.793L42.4761 109.321L43.0681 108.364Z" fill="#856852"/>
<path d="M52.3142 109.474C52.2495 109.474 52.1864 109.455 52.1333 109.418C52.0801 109.381 52.0394 109.329 52.0165 109.269L48.8716 101.757C48.8649 101.739 48.8532 101.722 48.8378 101.71C48.8225 101.698 48.8041 101.691 48.7846 101.688C48.7652 101.686 48.7455 101.689 48.7277 101.697C48.7099 101.705 48.6947 101.718 48.6837 101.734L44.3633 108.534C44.321 108.597 44.2574 108.643 44.184 108.663C44.1106 108.684 44.0323 108.677 43.9634 108.645L43.3722 108.369C43.2965 108.334 43.2378 108.27 43.2086 108.191C43.1794 108.113 43.1821 108.026 43.216 107.95L46.7556 100.067C46.6783 99.8793 45.9245 97.9505 47.0827 96.9975L47.0908 96.9925L50.2317 95.5928L50.3108 97.9999L53.4414 108.852C53.4532 108.892 53.4567 108.935 53.4517 108.977C53.4467 109.02 53.4333 109.06 53.4123 109.097C53.3913 109.134 53.3631 109.167 53.3293 109.193C53.2956 109.218 53.2571 109.237 53.2159 109.248L52.3959 109.464C52.3693 109.471 52.3418 109.474 52.3142 109.474V109.474Z" fill="#856852"/>
<path d="M50.2796 92.0717C50.16 91.5921 49.9904 91.1088 49.7633 90.8856C49.6797 90.8043 49.6012 90.7179 49.5282 90.627C49.3754 90.4347 49.1831 90.2773 48.9644 90.1654C49.0444 90.1209 49.0913 90.0678 49.0913 90.0107C49.0913 89.8542 48.7421 89.7273 48.3113 89.7273C47.8804 89.7273 47.5312 89.8542 47.5312 90.0107C47.5322 90.0289 47.5369 90.0467 47.5448 90.063C47.5528 90.0794 47.5639 90.0941 47.5775 90.1062C47.2962 90.2207 47.0518 90.4102 46.8708 90.654C46.6898 90.8978 46.5793 91.1866 46.5513 91.4888C46.4505 92.5668 46.4211 93.9448 46.7742 94.8165C47.0704 95.5372 47.0939 96.3411 46.8404 97.0779C46.8233 97.1292 46.8212 97.1844 46.8344 97.2368C46.8476 97.2893 46.8756 97.3369 46.9151 97.3739C46.9546 97.411 47.0038 97.436 47.0571 97.4459C47.1103 97.4558 47.1653 97.4503 47.2155 97.43L50.332 96.1753C50.3845 96.1541 50.4294 96.1178 50.4611 96.071C50.4927 96.0242 50.5096 95.9689 50.5096 95.9124V94.0068C50.5121 93.3548 50.4349 92.7049 50.2796 92.0717Z" fill="#D0CDE1"/>
<path d="M44.3166 99.9204C44.4251 99.8952 44.5267 99.8466 44.6144 99.778C44.702 99.7093 44.7735 99.6223 44.8238 99.523C44.8742 99.4237 44.9021 99.3147 44.9057 99.2035C44.9093 99.0922 44.8884 98.9816 44.8445 98.8793L47.283 92.4549L46.0464 92.136L43.791 98.4942C43.6239 98.5792 43.4938 98.7225 43.4254 98.8969C43.357 99.0713 43.3549 99.2647 43.4197 99.4405C43.4845 99.6163 43.6116 99.7623 43.7769 99.8507C43.9422 99.9392 44.1342 99.964 44.3166 99.9204L44.3166 99.9204Z" fill="#D9B59C"/>
<path d="M47.2725 93.6741L45.71 92.9434C45.6655 92.9226 45.626 92.8925 45.5943 92.8551C45.5625 92.8177 45.5392 92.7739 45.5259 92.7267C45.5126 92.6795 45.5097 92.63 45.5173 92.5815C45.5249 92.5331 45.5428 92.4868 45.5699 92.4459L46.5195 91.0131C46.6275 90.7868 46.8208 90.6125 47.0572 90.5282C47.2935 90.444 47.5537 90.4568 47.7806 90.5637C48.0076 90.6707 48.1829 90.8631 48.2681 91.0989C48.3534 91.3347 48.3417 91.5946 48.2356 91.8218L47.7445 93.4629C47.7305 93.5098 47.7064 93.5532 47.674 93.5901C47.6417 93.627 47.6017 93.6564 47.5569 93.6765C47.5121 93.6965 47.4635 93.7067 47.4144 93.7063C47.3653 93.7059 47.3169 93.6949 47.2725 93.6741V93.6741Z" fill="#D0CDE1"/>
<path d="M50.2589 86.9509C50.3375 86.9601 50.4171 86.9458 50.4874 86.9096C50.6159 86.8256 50.6032 86.6346 50.5598 86.4875C50.4514 86.1348 50.2559 85.8151 49.9913 85.5578C49.7266 85.3005 49.4014 85.114 49.0456 85.0154C48.7976 84.9495 48.4838 84.9521 48.342 85.1657C47.9855 84.9284 47.5557 84.8267 47.1306 84.8788C46.7054 84.931 46.3131 85.1337 46.0247 85.45C45.7428 85.7804 45.5549 86.1804 45.4806 86.6081C45.3318 87.3366 44.6944 88.8393 45.0475 89.4938C45.2824 89.9293 46.3637 89.59 46.8211 89.7797C47.0489 89.8787 47.2976 89.9201 47.5452 89.9001C47.7928 89.8801 48.0317 89.7994 48.2407 89.6652C48.4451 89.5242 48.5989 89.3213 48.6791 89.0864C48.7593 88.8514 48.7618 88.5969 48.6862 88.3605C48.6061 88.1867 48.5138 88.0188 48.4099 87.8581C48.3056 87.6954 48.263 87.5008 48.2899 87.3095C48.354 87.0185 49.7287 86.9399 50.2589 86.9509Z" fill="#74411C"/>
</svg>
