<svg width="18" height="18" viewBox="0 0 18 18" fill="none" xmlns="http://www.w3.org/2000/svg">
<g clip-path="url(#clip0)">
<path d="M8.99956 0C8.2905 0 7.71387 0.576628 7.71387 1.28569C7.71387 1.99475 8.2905 2.57138 8.99956 2.57138C9.70862 2.57138 10.2852 1.99475 10.2852 1.28569C10.2853 0.576628 9.70862 0 8.99956 0Z" fill="#464646"/>
<path d="M8.99956 3.85693C8.2905 3.85693 7.71387 4.43356 7.71387 5.14262C7.71387 5.85168 8.2905 6.42831 8.99956 6.42831C9.70862 6.42831 10.2852 5.85168 10.2852 5.14262C10.2852 4.43356 9.70862 3.85693 8.99956 3.85693Z" fill="#464646"/>
<path d="M8.99956 7.71436C8.2905 7.71436 7.71387 8.29099 7.71387 9.00005C7.71387 9.70912 8.2905 10.2858 8.99956 10.2858C9.70862 10.2858 10.2852 9.70912 10.2852 9.00005C10.2852 8.29099 9.70862 7.71436 8.99956 7.71436Z" fill="#464646"/>
<path d="M8.99956 11.5713C8.2905 11.5713 7.71387 12.1479 7.71387 12.857C7.71387 13.566 8.2905 14.1427 8.99956 14.1427C9.70862 14.1427 10.2852 13.566 10.2852 12.857C10.2853 12.1479 9.70862 11.5713 8.99956 11.5713Z" fill="#464646"/>
<path d="M8.99956 15.4287C8.2905 15.4287 7.71387 16.0053 7.71387 16.7144C7.71387 17.4235 8.2905 18.0001 8.99956 18.0001C9.70862 18.0001 10.2852 17.4235 10.2852 16.7144C10.2853 16.0053 9.70862 15.4287 8.99956 15.4287Z" fill="#464646"/>
<path d="M6.55146 0.0254646C6.43091 -0.0243514 6.29303 0.00328122 6.20109 0.0952141L1.37973 4.91661C1.29005 5.00629 1.26143 5.14066 1.3071 5.25924L6.1285 17.7948C6.1767 17.9205 6.29725 18.0009 6.42838 18.0009C6.44768 18.0009 6.46726 17.999 6.48719 17.9954C6.63924 17.9671 6.74981 17.8344 6.74981 17.6795V0.322462C6.74977 0.192631 6.67169 0.0753158 6.55146 0.0254646Z" fill="#464646"/>
<path d="M16.6201 4.91561L11.7987 0.0942377C11.7064 0.00230467 11.5685 -0.025328 11.4483 0.0244881C11.3284 0.0743042 11.25 0.19162 11.25 0.321486V17.6785C11.25 17.8334 11.3606 17.9662 11.5126 17.9945C11.5325 17.9983 11.5522 17.9999 11.5714 17.9999C11.7026 17.9999 11.8231 17.9199 11.8716 17.7939L16.693 5.25827C16.7384 5.13966 16.7098 5.00529 16.6201 4.91561Z" fill="#464646"/>
</g>
<defs>
<clipPath id="clip0">
<rect width="18" height="18" fill="white"/>
</clipPath>
</defs>
</svg>
