<svg width="60" height="60" viewBox="0 0 60 60" fill="none" xmlns="http://www.w3.org/2000/svg">
<path d="M60 55.1613H0V60H60V55.1613Z" fill="white"/>
<path d="M60 22.2581V29.0323L30 6.77419L0 29.0323V22.2581L30 0L60 22.2581Z" fill="white"/>
<path d="M54.1935 0H42.5806V3.87097H54.1935V0Z" fill="white"/>
<path d="M52.258 5.8064V14.0999L44.5161 8.36124V5.8064H52.258Z" fill="white"/>
<path d="M42.5807 39.6772C42.5807 42.2439 41.5611 44.7054 39.7462 46.5202C37.9314 48.3351 35.4699 49.3547 32.9033 49.3547C32.3613 49.3547 31.6452 50.1289 38.3323 44.274C38.5121 44.1013 38.6184 43.8658 38.6288 43.6167C38.6393 43.3675 38.5532 43.124 38.3884 42.9368C38.2237 42.7496 37.9931 42.6332 37.7446 42.6119C37.4962 42.5906 37.2491 42.666 37.0549 42.8224L30.9968 48.1256C31.2968 45.7825 32.4435 43.63 34.2207 42.0738C35.9979 40.5176 38.283 39.6652 40.6452 39.6772H42.5807Z" fill="white"/>
<path d="M28.955 45.2227L22.8969 39.9194C22.7027 39.763 22.4556 39.6876 22.2072 39.7089C21.9587 39.7302 21.7281 39.8466 21.5633 40.0338C21.3986 40.221 21.3125 40.4646 21.323 40.7137C21.3334 40.9628 21.4396 41.1983 21.6195 41.3711L27.4259 46.442C26.1325 46.4861 24.8434 46.2702 23.6349 45.8073C22.4264 45.3443 21.323 44.6437 20.3901 43.7468C19.4571 42.8499 18.7135 41.775 18.2032 40.5857C17.693 39.3964 17.4265 38.1168 17.4195 36.8227C17.4195 36.7259 17.2646 36.8227 19.4033 36.8227C21.7416 36.8326 23.9972 37.6888 25.7531 39.233C27.5089 40.7772 28.6463 42.9049 28.955 45.2227Z" fill="white"/>
<path d="M32.2161 25.6354L29.9999 28.2967C29.9999 25.0741 30.358 25.5483 27.7838 24.687L29.9999 22.0258C29.9999 25.2483 29.6419 24.7741 32.2161 25.6354Z" fill="white"/>
<path d="M30 16.4517C28.2774 16.4517 26.5935 16.9625 25.1612 17.9195C23.7289 18.8765 22.6125 20.2368 21.9533 21.8283C21.2941 23.4198 21.1216 25.171 21.4577 26.8605C21.7938 28.55 22.6233 30.1019 23.8414 31.32C25.0594 32.5381 26.6113 33.3676 28.3009 33.7037C29.9904 34.0397 31.7416 33.8672 33.3331 33.208C34.9246 32.5488 36.2848 31.4325 37.2419 30.0002C38.1989 28.5679 38.7097 26.8839 38.7097 25.1613C38.7097 22.8514 37.7921 20.636 36.1587 19.0027C34.5253 17.3693 32.31 16.4517 30 16.4517ZM34.6162 25.7807C29.5258 31.9355 29.6807 31.9355 29.0323 31.9355C28.7756 31.9355 28.5295 31.8336 28.348 31.6521C28.1665 31.4706 28.0645 31.2245 28.0645 30.9678V26.8259L25.8194 26.1291C25.6699 26.0791 25.5349 25.9934 25.4261 25.8794C25.3173 25.7653 25.238 25.6265 25.195 25.4748C25.1521 25.3231 25.1469 25.1633 25.1798 25.0092C25.2127 24.855 25.2828 24.7113 25.3839 24.5904L30.2226 18.7839C30.35 18.6309 30.5216 18.5209 30.7138 18.4689C30.906 18.417 31.1096 18.4256 31.2968 18.4936C32.1387 18.7839 31.9355 19.2775 31.9355 23.5452C34.2194 24.3 34.6162 24.3 34.8387 24.9484C34.8684 25.0949 34.8638 25.2463 34.8252 25.3907C34.7865 25.5351 34.715 25.6686 34.6162 25.7807Z" fill="white"/>
<path d="M52.2581 25.6935V53.2258H31.9355C31.6788 53.2258 31.4327 53.1238 31.2512 52.9423C31.0697 52.7608 30.9677 52.5147 30.9677 52.258V51.2903H32.9032C35.9832 51.2903 38.937 50.0668 41.1148 47.889C43.2926 45.7111 44.5161 42.7573 44.5161 39.6774V38.7096C44.5161 38.453 44.4142 38.2068 44.2327 38.0253C44.0512 37.8439 43.8051 37.7419 43.5484 37.7419H40.6452C38.732 37.738 36.8476 38.2068 35.1593 39.1067C33.471 40.0065 32.0311 41.3096 30.9677 42.9V35.8064C33.6958 35.5574 36.2229 34.2662 38.0233 32.2015C39.8237 30.1368 40.7588 27.4575 40.6341 24.721C40.5095 21.9844 39.3347 19.4012 37.354 17.5087C35.3734 15.6162 32.7394 14.5602 30 14.5602C27.2606 14.5602 24.6266 15.6162 22.646 17.5087C20.6653 19.4012 19.4905 21.9844 19.3659 24.721C19.2412 27.4575 20.1764 30.1368 21.9767 32.2015C23.7771 34.2662 26.3042 35.5574 29.0323 35.8064V40.0451C27.979 38.4526 26.5492 37.1443 24.8697 36.2362C23.1901 35.328 21.3126 34.848 19.4032 34.8387H16.4516C16.195 34.8387 15.9488 34.9406 15.7673 35.1221C15.5858 35.3036 15.4839 35.5498 15.4839 35.8064V36.7742C15.4839 39.8541 16.7074 42.8079 18.8852 44.9857C21.0631 47.1636 24.0168 48.3871 27.0968 48.3871H29.0323C28.7807 51.0387 29.5839 53.2258 28.0645 53.2258H7.74194V25.6935L30 9.18384L52.2581 25.6935Z" fill="white"/>
<path d="M29.0323 48.3872C29.1291 48.3872 29.0323 48.3002 29.0323 49.355V48.3872Z" fill="white"/>
</svg>
