<svg width="18" height="18" viewBox="0 0 18 18" fill="none" xmlns="http://www.w3.org/2000/svg">
<g clip-path="url(#clip0)">
<path d="M0 0.527484V17.4726C0 17.764 0.235969 18 0.527484 18H2.11799V0H0.527484C0.235969 0 0 0.235969 0 0.527484H0Z" fill="#464646"/>
<path d="M3.17285 18H14.8271V0H3.17285V18ZM12.7088 6.87994C12.7088 6.58842 12.9451 6.35245 13.2363 6.35245C13.5274 6.35245 13.7637 6.58842 13.7637 6.87994V11.1201C13.7637 11.4116 13.5274 11.6475 13.2363 11.6475C12.9451 11.6475 12.7088 11.4116 12.7088 11.1201V6.87994ZM10.5908 6.87994C10.5908 6.58842 10.8268 6.35245 11.1183 6.35245C11.4095 6.35245 11.6458 6.58842 11.6458 6.87994V11.1201C11.6458 11.4116 11.4095 11.6475 11.1183 11.6475C10.8268 11.6475 10.5908 11.4116 10.5908 11.1201V6.87994ZM8.47248 1.58453C8.47248 1.29301 8.7088 1.05704 8.99996 1.05704C9.29113 1.05704 9.52745 1.29301 9.52745 1.58453V2.11409C9.52745 2.40525 9.29113 2.64157 8.99996 2.64157C8.7088 2.64157 8.47248 2.40525 8.47248 2.11409V1.58453ZM8.47248 4.23204C8.47248 3.94088 8.7088 3.70455 8.99996 3.70455C9.29113 3.70455 9.52745 3.94088 9.52745 4.23204V4.76163C9.52745 5.0528 9.29113 5.28912 8.99996 5.28912C8.7088 5.28912 8.47248 5.0528 8.47248 4.76163V4.23204ZM8.47248 6.87994C8.47248 6.58842 8.7088 6.35245 8.99996 6.35245C9.29113 6.35245 9.52745 6.58842 9.52745 6.87994V11.1201C9.52745 11.4116 9.29113 11.6475 8.99996 11.6475C8.7088 11.6475 8.47248 11.4116 8.47248 11.1201V6.87994ZM8.47248 13.2384C8.47248 12.9472 8.7088 12.7109 8.99996 12.7109C9.29113 12.7109 9.52745 12.9472 9.52745 13.2384V13.7679C9.52745 14.0591 9.29113 14.2954 8.99996 14.2954C8.7088 14.2954 8.47248 14.0591 8.47248 13.7679V13.2384ZM8.47248 15.8859C8.47248 15.5947 8.7088 15.3584 8.99996 15.3584C9.29113 15.3584 9.52745 15.5947 9.52745 15.8859V16.4155C9.52745 16.707 9.29113 16.943 8.99996 16.943C8.7088 16.943 8.47248 16.707 8.47248 16.4155V15.8859ZM6.35418 6.87994C6.35418 6.58842 6.5905 6.35245 6.88166 6.35245C7.17318 6.35245 7.40914 6.58842 7.40914 6.87994V11.1201C7.40914 11.4116 7.17318 11.6475 6.88166 11.6475C6.5905 11.6475 6.35418 11.4116 6.35418 11.1201V6.87994ZM4.23622 6.87994C4.23622 6.58842 4.47254 6.35245 4.76371 6.35245C5.05487 6.35245 5.29119 6.58842 5.29119 6.87994V11.1201C5.29119 11.4116 5.05487 11.6475 4.76371 11.6475C4.47254 11.6475 4.23622 11.4116 4.23622 11.1201V6.87994Z" fill="#464646"/>
<path d="M17.4728 0H15.8823V18H17.4728C17.7643 18 18.0003 17.764 18.0003 17.4725V0.527484C18.0003 0.235969 17.7643 0 17.4728 0V0Z" fill="#464646"/>
</g>
<defs>
<clipPath id="clip0">
<rect width="18" height="18" fill="white"/>
</clipPath>
</defs>
</svg>
