<svg width="260" height="200" viewBox="0 0 260 200" fill="none" xmlns="http://www.w3.org/2000/svg">
<rect width="260" height="200" fill="white"/>
<path d="M70.7155 155.566C77.7468 155.566 83.4468 149.866 83.4468 142.835C83.4468 135.804 77.7468 130.104 70.7155 130.104C63.6843 130.104 57.9843 135.804 57.9843 142.835C57.9843 149.866 63.6843 155.566 70.7155 155.566Z" fill="#FDD27F"/>
<path opacity="0.2" d="M61.3151 134.332C60.1276 137.109 59.9665 140.219 60.8606 143.105C61.7548 145.99 63.6459 148.464 66.196 150.084C68.7461 151.704 71.7891 152.364 74.7812 151.947C77.7733 151.529 80.5195 150.062 82.5291 147.806C81.8037 149.503 80.718 151.022 79.3471 152.258C77.9763 153.494 76.3531 154.417 74.5901 154.963C72.8272 155.51 70.9665 155.666 69.137 155.422C67.3075 155.178 65.553 154.539 63.995 153.549C62.437 152.56 61.1128 151.243 60.1141 149.691C59.1154 148.139 58.4661 146.388 58.2112 144.56C57.9563 142.732 58.1018 140.87 58.6378 139.104C59.1738 137.338 60.0873 135.71 61.3151 134.332V134.332Z" fill="#BC903D"/>
<path d="M70.7507 142.835H70.7854L71.4151 178.93H70.0859L70.7507 142.835Z" fill="#856852"/>
<path d="M44.9565 131.824C59.1328 131.824 70.625 120.332 70.625 106.156C70.625 91.9795 59.1328 80.4873 44.9565 80.4873C30.7802 80.4873 19.2881 91.9795 19.2881 106.156C19.2881 120.332 30.7802 131.824 44.9565 131.824Z" fill="#FDD27F"/>
<path opacity="0.2" d="M26.0037 89.0112C23.6094 94.6119 23.2846 100.881 25.0873 106.7C26.89 112.518 30.7028 117.505 35.8444 120.771C40.9859 124.037 47.1211 125.368 53.1537 124.526C59.1863 123.685 64.7232 120.726 68.7749 116.178C67.3123 119.6 65.1232 122.663 62.3594 125.154C59.5955 127.646 56.323 129.507 52.7685 130.609C49.2139 131.71 45.4624 132.026 41.7739 131.533C38.0853 131.041 34.5479 129.753 31.4067 127.758C28.2655 125.762 25.5957 123.108 23.5821 119.979C21.5685 116.849 20.2594 113.319 19.7455 109.634C19.2315 105.948 19.525 102.195 20.6056 98.634C21.6862 95.073 23.5281 91.7896 26.0037 89.0112V89.0112Z" fill="#BC903D"/>
<path d="M45.027 106.156H45.0977L46.367 178.93H43.6873L45.027 106.156Z" fill="#856852"/>
<path d="M214.189 141.262H96.5363V176.14H214.189V141.262Z" fill="#FDD27F"/>
<path d="M162.222 148.47H148.504V176.14H162.222V148.47Z" fill="#D9A885"/>
<path d="M207.33 100.107H103.396V132.194H207.33V100.107Z" fill="#FDD27F"/>
<path d="M217.867 102.084H92.8584C92.6497 102.084 92.4458 102.021 92.2728 101.904C92.0999 101.788 91.9658 101.622 91.8879 101.428C91.8099 101.235 91.7916 101.022 91.8354 100.818C91.8791 100.614 91.9829 100.428 92.1334 100.283L126.298 67.4432V53.139C126.299 52.8616 126.409 52.5956 126.605 52.3995C126.801 52.2033 127.067 52.093 127.345 52.0926H134.088C134.365 52.093 134.631 52.2033 134.827 52.3994C135.023 52.5956 135.134 52.8616 135.134 53.139V58.9505L137.715 56.47C141.937 52.411 147.54 50.1006 153.396 50.0032C159.253 49.9058 164.929 52.0286 169.285 55.9451L218.567 100.259C218.724 100.401 218.835 100.587 218.885 100.792C218.934 100.998 218.92 101.214 218.844 101.412C218.769 101.609 218.635 101.779 218.46 101.899C218.286 102.019 218.079 102.084 217.867 102.084V102.084Z" fill="#74411C"/>
<path d="M130.832 108.245C131.703 108.245 132.564 108.417 133.368 108.75C134.172 109.083 134.903 109.571 135.518 110.186C136.134 110.801 136.622 111.532 136.955 112.336C137.288 113.14 137.459 114.002 137.459 114.872V123.824H124.206V114.872C124.206 114.002 124.377 113.14 124.71 112.336C125.043 111.532 125.531 110.801 126.147 110.186C126.762 109.571 127.493 109.083 128.297 108.75C129.101 108.417 129.962 108.245 130.832 108.245V108.245Z" fill="white"/>
<path d="M155.363 108.362C157.12 108.362 158.806 109.06 160.049 110.302C161.291 111.545 161.989 113.231 161.989 114.988V123.94H148.736V114.988C148.736 113.231 149.434 111.545 150.677 110.302C151.92 109.06 153.605 108.362 155.363 108.362V108.362Z" fill="white"/>
<path d="M179.893 108.478C181.651 108.478 183.336 109.176 184.579 110.419C185.822 111.661 186.52 113.347 186.52 115.104V124.056H173.267V115.104C173.267 113.347 173.965 111.661 175.208 110.419C176.45 109.176 178.136 108.478 179.893 108.478V108.478Z" fill="white"/>
<path d="M189.659 148.122C191.417 148.122 193.102 148.82 194.345 150.063C195.588 151.305 196.286 152.991 196.286 154.749V163.7H183.032V154.749C183.032 152.991 183.73 151.305 184.973 150.063C186.216 148.82 187.901 148.122 189.659 148.122Z" fill="white"/>
<path d="M124.089 148.122C125.847 148.122 127.533 148.82 128.775 150.063C130.018 151.305 130.716 152.991 130.716 154.749V163.7H117.463V154.749C117.463 153.878 117.634 153.017 117.967 152.213C118.3 151.409 118.788 150.678 119.404 150.063C120.019 149.447 120.75 148.959 121.554 148.626C122.358 148.293 123.219 148.122 124.089 148.122V148.122Z" fill="white"/>
<path d="M231.378 141.807L209.308 132.041C209.189 131.989 209.061 131.962 208.931 131.962H103.748C103.628 131.962 103.509 131.985 103.397 132.03L79.3737 141.796C79.1739 141.877 79.0085 142.025 78.9059 142.215C78.8033 142.405 78.7698 142.624 78.8112 142.836C78.8526 143.048 78.9663 143.238 79.1328 143.376C79.2993 143.513 79.5083 143.588 79.724 143.588H85.9569V175.675H85.2594V178.93H225.467V175.675H224.304V143.588H231.002C231.215 143.588 231.422 143.514 231.588 143.38C231.753 143.246 231.868 143.059 231.912 142.85C231.956 142.641 231.927 142.424 231.83 142.234C231.733 142.044 231.573 141.893 231.378 141.807ZM222.444 175.675H87.8171V143.588H222.444V175.675Z" fill="#74411C"/>
<path d="M139.087 122.545H122.113V125.335H139.087V122.545Z" fill="#856852"/>
<path d="M163.966 122.545H146.992V125.335H163.966V122.545Z" fill="#CACACA"/>
<path d="M188.845 122.545H171.872V125.335H188.845V122.545Z" fill="#74411C"/>
<path d="M198.146 162.77H181.172V165.56H198.146V162.77Z" fill="#856852"/>
<path d="M132.344 162.77H115.37V165.56H132.344V162.77Z" fill="#856852"/>
<path d="M258.715 179.073H0.284929C0.209361 179.073 0.136888 179.043 0.0834534 178.989C0.030019 178.936 0 178.863 0 178.788C0 178.712 0.030019 178.64 0.0834534 178.586C0.136888 178.533 0.209361 178.503 0.284929 178.503H258.715C258.791 178.503 258.863 178.533 258.917 178.586C258.97 178.64 259 178.712 259 178.788C259 178.863 258.97 178.936 258.917 178.989C258.863 179.043 258.791 179.073 258.715 179.073Z" fill="#856852"/>
<path d="M193.713 99.6287C193.713 99.811 193.71 99.9962 193.708 100.179C193.705 100.398 193.699 100.615 193.691 100.834C193.682 101.025 193.673 101.213 193.662 101.401C193.628 102.031 193.574 102.657 193.5 103.287C193.483 103.447 193.463 103.603 193.44 103.763C193.423 103.886 193.406 104.011 193.386 104.136C193.366 104.276 193.346 104.415 193.323 104.555C193.277 104.851 193.226 105.148 193.169 105.444C193.141 105.592 193.112 105.74 193.081 105.889C193.021 106.182 192.955 106.478 192.887 106.772C192.881 106.795 192.876 106.82 192.87 106.843C192.836 106.988 192.802 107.131 192.764 107.276C192.753 107.319 192.745 107.359 192.73 107.402C192.705 107.51 192.676 107.618 192.648 107.726C192.608 107.877 192.568 108.025 192.525 108.177C192.457 108.41 192.388 108.641 192.317 108.875C192.308 108.899 192.301 108.924 192.294 108.949C192.158 109.39 192.012 109.826 191.853 110.259C191.77 110.487 191.682 110.718 191.593 110.946C191.505 111.174 191.414 111.402 191.32 111.627C191.229 111.846 191.135 112.066 191.041 112.282C191.018 112.334 190.995 112.385 190.969 112.436C190.87 112.661 190.767 112.881 190.662 113.1C190.659 113.103 190.659 113.109 190.656 113.111C190.573 113.288 190.485 113.465 190.397 113.639C190.397 113.644 190.395 113.649 190.391 113.653C190.306 113.824 190.217 113.995 190.126 114.163L189.981 114.439L189.964 114.471C189.781 114.81 189.593 115.146 189.394 115.479C189.351 115.553 189.308 115.627 189.266 115.699C189.223 115.773 189.177 115.847 189.132 115.918C189.103 115.969 189.072 116.021 189.038 116.072C188.978 116.169 188.918 116.268 188.855 116.365C188.844 116.385 188.83 116.405 188.818 116.425C188.71 116.593 188.602 116.759 188.493 116.927C188.36 117.129 188.223 117.328 188.083 117.528L184.989 122.48L184.855 122.369L184.818 122.335H184.815L184.692 122.232L184.356 121.947C184.254 122.047 184.154 122.147 184.051 122.243C184.011 122.283 183.969 122.32 183.929 122.36C183.898 122.389 183.869 122.417 183.838 122.446C178.488 127.67 171.372 130.695 163.898 130.922H163.89C158.232 131.078 152.632 129.756 147.64 127.087C147.529 127.03 147.421 126.973 147.313 126.908C146.663 126.554 146.028 126.181 145.404 125.782C145.401 125.779 145.398 125.779 145.395 125.776C144.671 125.264 143.965 124.717 143.275 124.135C139.576 121.017 136.65 117.085 134.725 112.646C132.801 108.207 131.93 103.383 132.183 98.5516C132.192 98.3607 132.203 98.1726 132.217 97.9817C132.263 97.2922 132.333 96.6055 132.428 95.9217C132.454 95.7308 132.482 95.5399 132.511 95.3518H193.423C193.542 96.2237 193.625 97.1003 193.671 97.9817C193.699 98.5317 193.713 99.0788 193.713 99.6287Z" fill="#F0F0F0"/>
<path d="M193.423 95.3521C192.326 88.0594 188.649 81.4024 183.06 76.591C177.471 71.7797 170.341 69.1335 162.967 69.1335C155.592 69.1335 148.462 71.7797 142.873 76.591C137.284 81.4024 133.607 88.0594 132.511 95.3521C132.482 95.5401 132.454 95.731 132.428 95.9219C132.334 96.6057 132.264 97.2924 132.217 97.9819H193.671C193.625 97.1015 193.542 96.2249 193.423 95.3521Z" fill="#FDD27F"/>
<path d="M164.962 127.087H147.314V112.969C147.64 106.518 153.154 105.997 158.335 106.343C159.205 106.343 160.067 106.514 160.871 106.847C161.675 107.18 162.406 107.668 163.021 108.284C163.636 108.899 164.125 109.629 164.458 110.433C164.791 111.237 164.962 112.099 164.962 112.969V127.087Z" fill="#F7BD4F"/>
<path d="M147.313 117.049V117.052C147.313 117.055 147.316 117.055 147.318 117.055L147.313 117.049ZM140.215 95.352C140.204 95.4232 140.189 95.4944 140.178 95.5657C140.189 95.4944 140.204 95.4232 140.218 95.352H140.215ZM139.862 97.9818C139.853 98.0901 139.845 98.1984 139.839 98.3067C139.845 98.1984 139.853 98.0901 139.865 97.9818C139.864 97.9619 139.865 97.9419 139.868 97.922C139.865 97.942 139.865 97.9619 139.862 97.9818V97.9818ZM147.313 117.052C147.313 117.055 147.316 117.055 147.318 117.055L147.313 117.049V117.052ZM140.215 95.352C140.204 95.4232 140.189 95.4944 140.178 95.5657C140.189 95.4944 140.204 95.4232 140.218 95.352H140.215ZM139.839 98.3067C139.845 98.1984 139.853 98.0901 139.865 97.9818C139.864 97.9619 139.865 97.9419 139.868 97.922C139.865 97.942 139.865 97.9619 139.862 97.9818C139.853 98.0901 139.845 98.1984 139.839 98.3067V98.3067ZM227.865 150.722C227.809 150.663 227.75 150.608 227.688 150.557L227.685 150.554L213.576 138.647L213.211 138.339L211.823 137.168L211.476 136.875L209.498 135.205L208.957 134.749L207.837 133.803L207.265 133.319L201.862 128.763L198.765 126.15L198.349 125.799L189.223 118.098C189.362 117.898 189.499 117.699 189.633 117.497C189.741 117.328 189.85 117.163 189.958 116.995C189.969 116.975 189.984 116.955 189.995 116.935C190.058 116.838 190.117 116.739 190.177 116.642C190.212 116.591 190.243 116.539 190.271 116.488C190.317 116.417 190.363 116.343 190.405 116.269C190.448 116.197 190.491 116.123 190.533 116.049C190.733 115.716 190.921 115.38 191.103 115.041L191.12 115.009L191.266 114.733C191.357 114.565 191.445 114.394 191.531 114.223C191.534 114.219 191.536 114.214 191.536 114.209C191.625 114.035 191.713 113.858 191.796 113.681C191.799 113.679 191.799 113.673 191.801 113.67C191.907 113.451 192.009 113.231 192.109 113.006C192.135 112.955 192.158 112.904 192.18 112.852C192.274 112.636 192.368 112.416 192.46 112.197C192.554 111.972 192.645 111.744 192.733 111.516C192.822 111.288 192.91 111.057 192.992 110.829C193.149 110.393 193.296 109.956 193.434 109.519C193.44 109.494 193.448 109.469 193.457 109.445C193.528 109.211 193.596 108.98 193.665 108.746C193.708 108.595 193.748 108.447 193.787 108.296C193.816 108.188 193.844 108.08 193.87 107.971C193.884 107.929 193.893 107.889 193.904 107.846C193.941 107.701 193.975 107.558 194.01 107.413C194.015 107.39 194.021 107.365 194.027 107.342C194.095 107.048 194.161 106.752 194.22 106.458C194.252 106.31 194.28 106.162 194.309 106.014C194.363 105.718 194.417 105.421 194.463 105.125C194.485 104.985 194.505 104.846 194.525 104.706C194.545 104.581 194.562 104.455 194.58 104.333C194.602 104.173 194.622 104.017 194.639 103.857C194.713 103.227 194.768 102.601 194.802 101.971C194.813 101.783 194.822 101.595 194.83 101.404C194.839 101.184 194.844 100.968 194.847 100.749C194.85 100.566 194.853 100.381 194.853 100.199C194.853 99.6487 194.839 99.1016 194.81 98.5517C194.765 97.6713 194.682 96.7947 194.562 95.9218C193.542 88.4609 189.87 81.6165 184.218 76.6397C178.567 71.6629 171.313 68.8862 163.783 68.817C156.253 68.7478 148.949 71.3909 143.207 76.263C137.465 81.1352 133.668 87.911 132.511 95.352C132.482 95.54 132.454 95.7309 132.428 95.9218C132.334 96.6056 132.264 97.2923 132.217 97.9818C132.203 98.1728 132.192 98.3608 132.183 98.5517C131.93 103.383 132.801 108.207 134.725 112.646C136.65 117.085 139.576 121.017 143.275 124.135C143.965 124.717 144.671 125.264 145.395 125.777C145.398 125.779 145.401 125.779 145.404 125.782C145.646 125.953 145.888 126.121 146.133 126.287C146.523 126.543 146.917 126.794 147.313 127.033C147.344 127.05 147.375 127.07 147.407 127.087C147.749 127.292 148.093 127.489 148.438 127.68H148.441C149.724 128.386 151.057 128.999 152.427 129.515C156.449 131.028 160.738 131.701 165.03 131.492H165.038C170.047 131.25 174.925 129.807 179.259 127.284C179.889 126.919 180.51 126.529 181.117 126.113C181.268 126.01 181.421 125.905 181.57 125.799C181.752 125.671 181.934 125.537 182.117 125.403C182.12 125.403 182.12 125.401 182.122 125.401C182.136 125.389 182.15 125.379 182.165 125.369C182.288 125.275 182.413 125.181 182.533 125.09C182.564 125.067 182.595 125.044 182.627 125.019C182.635 125.013 182.643 125.006 182.65 124.999C182.721 124.947 182.789 124.89 182.86 124.836C182.932 124.782 183 124.725 183.071 124.668C183.083 124.661 183.095 124.652 183.105 124.643C183.185 124.577 183.265 124.514 183.345 124.449C183.427 124.383 183.507 124.315 183.584 124.249C183.664 124.184 183.741 124.118 183.821 124.05C183.889 123.993 183.96 123.933 184.029 123.87C184.051 123.853 184.071 123.833 184.094 123.813C184.103 123.805 184.112 123.797 184.123 123.791C184.217 123.711 184.308 123.628 184.399 123.546C184.422 123.526 184.442 123.506 184.465 123.486C184.604 123.36 184.744 123.235 184.881 123.104C184.912 123.075 184.946 123.044 184.977 123.016C185.009 122.987 185.037 122.959 185.069 122.93C185.109 122.89 185.151 122.853 185.191 122.813C185.294 122.716 185.393 122.617 185.496 122.517L185.832 122.802L185.955 122.905H185.958L185.995 122.939L186.129 123.05L188.117 124.731L188.16 124.768L188.194 124.794L188.419 124.984L188.87 125.366L189.32 125.745L189.385 125.799L191.479 127.566L191.77 127.811L193.79 129.515L204.247 138.339L204.612 138.647L218.924 150.722L222.594 153.819L223.958 154.97C224.248 155.216 224.583 155.401 224.945 155.517C225.306 155.632 225.687 155.675 226.065 155.644C226.443 155.612 226.812 155.506 227.149 155.332C227.486 155.157 227.785 154.919 228.03 154.628C228.235 154.388 228.398 154.114 228.512 153.819C228.719 153.296 228.768 152.724 228.653 152.174C228.538 151.623 228.264 151.119 227.865 150.722V150.722ZM145.33 84.6728C148.188 81.2854 151.947 78.7758 156.171 77.4339C160.395 76.092 164.913 75.9726 169.202 77.0894C173.491 78.2062 177.377 80.5136 180.411 83.7452C183.444 86.9768 185.502 91.0007 186.345 95.352C186.382 95.5429 186.416 95.7309 186.448 95.9218C186.564 96.6028 186.65 97.2923 186.701 97.9818C186.715 98.1728 186.73 98.3608 186.738 98.5517C186.764 98.9791 186.775 99.4093 186.775 99.8367C186.777 102.429 186.347 105.004 185.505 107.456V107.459C184.562 110.207 183.116 112.757 181.239 114.975C181.199 115.021 181.159 115.069 181.117 115.115C180.741 115.559 180.344 115.986 179.937 116.394C179.934 116.397 179.931 116.403 179.929 116.405C179.789 116.545 179.646 116.687 179.504 116.819C179.213 117.101 178.917 117.368 178.615 117.625C178.162 118.021 177.697 118.392 177.222 118.739C177.062 118.856 176.903 118.97 176.74 119.084C176.581 119.198 176.418 119.306 176.256 119.414C175.931 119.631 175.6 119.839 175.267 120.035C175.102 120.135 174.931 120.232 174.763 120.326C174.595 120.423 174.424 120.514 174.253 120.602C174.082 120.694 173.911 120.782 173.737 120.867C173.392 121.041 173.045 121.204 172.691 121.355C172.515 121.434 172.338 121.508 172.161 121.577C172.05 121.622 171.942 121.668 171.831 121.708C171.787 121.728 171.743 121.745 171.697 121.759C171.637 121.785 171.577 121.808 171.517 121.828C171.498 121.836 171.478 121.844 171.458 121.85C171.335 121.899 171.215 121.942 171.09 121.984C170.91 122.05 170.731 122.11 170.549 122.167C170.366 122.226 170.187 122.283 170.004 122.335C169.822 122.392 169.637 122.443 169.454 122.491C169.269 122.543 169.087 122.591 168.902 122.634C168.705 122.685 168.509 122.731 168.309 122.773C168.135 122.813 167.964 122.848 167.791 122.879C167.628 122.913 167.463 122.942 167.3 122.97C167.072 123.01 166.845 123.047 166.614 123.078C166.488 123.098 166.366 123.115 166.241 123.127C166.186 123.135 166.135 123.141 166.084 123.147C165.924 123.17 165.765 123.187 165.608 123.201C165.565 123.204 165.525 123.209 165.485 123.212C165.312 123.229 165.135 123.244 164.961 123.258C164.588 123.284 164.218 123.301 163.844 123.309C163.656 123.312 163.465 123.315 163.277 123.315C163.089 123.315 162.901 123.312 162.713 123.306C162.713 123.306 162.713 123.309 162.71 123.306C162.707 123.309 162.707 123.309 162.705 123.306C162.704 123.307 162.704 123.307 162.703 123.307C162.703 123.307 162.702 123.308 162.702 123.308C162.701 123.308 162.701 123.307 162.7 123.307C162.7 123.307 162.699 123.307 162.699 123.306C162.69 123.309 162.68 123.309 162.67 123.306C162.536 123.306 162.402 123.301 162.271 123.292C162.175 123.289 162.075 123.286 161.975 123.278C161.841 123.272 161.707 123.264 161.573 123.252C161.531 123.252 161.488 123.247 161.445 123.244C161.425 123.243 161.405 123.241 161.385 123.238C161.249 123.227 161.109 123.215 160.972 123.201C160.904 123.195 160.833 123.19 160.764 123.181C160.556 123.158 160.348 123.133 160.143 123.104C159.909 123.076 159.676 123.041 159.445 122.999C159.337 122.984 159.231 122.964 159.126 122.944C158.986 122.922 158.847 122.896 158.707 122.868C158.562 122.839 158.416 122.811 158.271 122.776C158.154 122.751 158.035 122.725 157.918 122.697C157.861 122.685 157.804 122.671 157.75 122.657C157.45 122.585 157.154 122.509 156.861 122.423C156.675 122.372 156.49 122.318 156.308 122.261C156.057 122.184 155.809 122.101 155.561 122.013C155.464 121.981 155.37 121.947 155.274 121.91C155.177 121.879 155.083 121.842 154.986 121.805C154.897 121.773 154.809 121.739 154.724 121.705C154.581 121.651 154.442 121.594 154.302 121.537C154.014 121.42 153.732 121.298 153.45 121.167C153.29 121.09 153.131 121.016 152.974 120.939C152.356 120.639 151.747 120.307 151.148 119.941C151 119.853 150.851 119.759 150.703 119.665C150.518 119.551 150.339 119.431 150.159 119.312C150.059 119.243 149.962 119.178 149.866 119.109C149.686 118.984 149.509 118.856 149.336 118.728C149.244 118.662 149.153 118.594 149.065 118.525C148.749 118.286 148.438 118.035 148.133 117.779C147.988 117.656 147.843 117.531 147.7 117.403C147.64 117.351 147.58 117.297 147.521 117.243C147.452 117.18 147.384 117.121 147.318 117.055L147.313 117.049C147.213 116.961 147.113 116.867 147.016 116.773C146.865 116.63 146.717 116.485 146.575 116.337C146.427 116.192 146.284 116.041 146.144 115.893C146.002 115.744 145.865 115.593 145.731 115.439C145.595 115.288 145.461 115.135 145.33 114.978C145.201 114.83 145.076 114.676 144.956 114.525C144.666 114.166 144.388 113.8 144.124 113.428C144.002 113.257 143.885 113.086 143.771 112.912C143.648 112.735 143.532 112.556 143.421 112.376C143.304 112.197 143.193 112.015 143.084 111.829C143.082 111.823 143.078 111.817 143.073 111.812C142.859 111.45 142.654 111.086 142.463 110.715C142.267 110.339 142.081 109.959 141.908 109.576C141.819 109.385 141.734 109.191 141.654 108.997C141.489 108.607 141.335 108.217 141.192 107.82C141.121 107.63 141.056 107.439 140.99 107.245C140.988 107.232 140.984 107.22 140.979 107.208C140.848 106.815 140.728 106.419 140.623 106.02C140.62 106.014 140.62 106.008 140.617 106.003C140.563 105.806 140.511 105.609 140.466 105.41C140.42 105.236 140.38 105.062 140.343 104.886C140.301 104.689 140.258 104.493 140.221 104.293C140.201 104.19 140.181 104.088 140.164 103.985C140.147 103.9 140.132 103.812 140.118 103.726C140.104 103.641 140.09 103.552 140.075 103.464C140.047 103.29 140.021 103.116 139.999 102.943C139.97 102.737 139.947 102.532 139.924 102.324C139.899 102.076 139.876 101.828 139.856 101.578C139.842 101.41 139.833 101.239 139.825 101.068C139.816 100.911 139.808 100.754 139.805 100.598C139.802 100.589 139.802 100.58 139.805 100.572C139.804 100.572 139.804 100.571 139.804 100.571C139.804 100.57 139.804 100.57 139.804 100.569C139.804 100.569 139.804 100.568 139.804 100.567C139.804 100.567 139.804 100.567 139.805 100.566C139.802 100.563 139.802 100.563 139.805 100.56C139.804 100.56 139.804 100.56 139.804 100.559C139.804 100.559 139.804 100.558 139.804 100.558C139.804 100.557 139.804 100.557 139.804 100.556C139.804 100.556 139.804 100.555 139.805 100.555C139.802 100.492 139.799 100.429 139.799 100.367C139.793 100.182 139.791 99.9964 139.791 99.8112C139.791 99.643 139.793 99.4778 139.796 99.3097C139.802 99.076 139.81 98.8424 139.822 98.6087C139.822 98.5575 139.828 98.509 139.83 98.4577C139.833 98.4064 139.836 98.358 139.839 98.3067C139.845 98.1984 139.853 98.0902 139.865 97.9819C139.864 97.9619 139.865 97.9419 139.867 97.9221C139.876 97.7995 139.887 97.677 139.899 97.5545C139.922 97.3095 139.95 97.0616 139.981 96.8165C139.999 96.694 140.013 96.5715 140.033 96.449C140.044 96.3635 140.058 96.2752 140.073 96.1868C140.084 96.0985 140.098 96.0102 140.115 95.9219C140.135 95.805 140.155 95.6854 140.178 95.5657C140.189 95.4945 140.204 95.4232 140.218 95.352C140.272 95.0671 140.332 94.7822 140.397 94.4972C140.463 94.2094 140.537 93.9245 140.617 93.6396C140.694 93.3518 140.779 93.064 140.87 92.7763C140.913 92.6309 140.959 92.4885 141.01 92.346C141.104 92.0582 141.204 91.7733 141.315 91.4912C141.366 91.3516 141.42 91.2091 141.48 91.0695C141.594 90.7875 141.714 90.5054 141.836 90.229C141.899 90.0894 141.962 89.9498 142.03 89.8102C142.158 89.5338 142.292 89.2574 142.438 88.9867C142.577 88.7103 142.728 88.4396 142.882 88.1718C143.036 87.904 143.195 87.6361 143.364 87.3712C143.44 87.2401 143.526 87.1062 143.614 86.978C143.785 86.7158 143.965 86.4537 144.147 86.1973C144.515 85.6786 144.911 85.1686 145.33 84.6728ZM139.862 97.9818C139.853 98.0901 139.845 98.1984 139.839 98.3067C139.845 98.1984 139.853 98.0901 139.865 97.9818C139.864 97.9619 139.865 97.9419 139.868 97.922C139.865 97.942 139.865 97.9619 139.862 97.9818ZM140.215 95.352C140.204 95.4232 140.189 95.4944 140.178 95.5657C140.189 95.4944 140.204 95.4232 140.218 95.352H140.215ZM147.313 117.049V117.052C147.313 117.055 147.316 117.055 147.318 117.055L147.313 117.049Z" fill="#FBAD18"/>
<path opacity="0.3" d="M148.134 117.779C143.627 113.975 140.715 108.616 139.977 102.766C139.238 96.9152 140.727 91.0008 144.147 86.197C143.698 86.6494 143.264 87.1231 142.844 87.6183C140.855 89.9761 139.349 92.7028 138.413 95.6425C137.478 98.5822 137.13 101.677 137.39 104.752C137.651 107.826 138.514 110.818 139.931 113.559C141.348 116.299 143.291 118.734 145.649 120.723C150.411 124.741 156.574 126.703 162.782 126.177C168.991 125.651 174.736 122.68 178.754 117.918C179.172 117.423 179.566 116.915 179.936 116.395C175.776 120.575 170.196 123.037 164.305 123.294C158.413 123.55 152.641 121.581 148.134 117.779V117.779Z" fill="#BC903D"/>
</svg>
