<svg width="260" height="200" viewBox="0 0 260 200" fill="none" xmlns="http://www.w3.org/2000/svg">
<rect width="260" height="200" fill="white"/>
<path d="M144.263 94.3842C144.569 93.9537 144.971 93.6008 145.438 93.3535C145.905 93.1062 146.423 92.9714 146.951 92.9599C147.479 92.9484 148.002 93.0604 148.479 93.2871C148.956 93.5138 149.373 93.8489 149.698 94.2655L161.09 90.3933L159.511 96.4433L148.935 99.1929C148.273 99.6416 147.473 99.8427 146.678 99.7612C145.882 99.6796 145.141 99.3204 144.583 98.7468C144.026 98.1731 143.688 97.4214 143.63 96.6237C143.571 95.826 143.795 95.0331 144.263 94.3842V94.3842Z" fill="#D9B59C"/>
<path d="M233.745 178.466C234.585 169.424 236.904 160.582 240.609 152.292C241.642 149.985 242.779 147.728 244.019 145.523C244.338 144.955 243.466 144.445 243.147 145.013C238.635 153.046 235.475 161.766 233.791 170.824C233.323 173.354 232.971 175.901 232.735 178.466C232.675 179.113 233.686 179.109 233.745 178.466V178.466Z" fill="#74411C"/>
<path d="M246.466 147.143C249.999 147.143 252.863 144.278 252.863 140.745C252.863 137.212 249.999 134.347 246.466 134.347C242.933 134.347 240.068 137.212 240.068 140.745C240.068 144.278 242.933 147.143 246.466 147.143Z" fill="#FDD27F"/>
<path d="M234.4 178.636C234.944 172.77 236.449 167.034 238.853 161.655C239.523 160.159 240.26 158.695 241.065 157.264C241.105 157.189 241.115 157.102 241.092 157.02C241.069 156.938 241.015 156.868 240.942 156.825C240.868 156.782 240.781 156.77 240.699 156.79C240.616 156.81 240.544 156.861 240.499 156.933C237.572 162.145 235.522 167.802 234.429 173.678C234.126 175.319 233.897 176.972 233.744 178.636C233.706 179.056 234.361 179.053 234.4 178.636H234.4Z" fill="#74411C"/>
<path d="M242.652 158.315C244.944 158.315 246.803 156.457 246.803 154.165C246.803 151.873 244.944 150.014 242.652 150.014C240.36 150.014 238.502 151.873 238.502 154.165C238.502 156.457 240.36 158.315 242.652 158.315Z" fill="#F7BD4F"/>
<path d="M233.573 178.244C230.394 173.284 228.052 167.836 226.639 162.117C226.247 160.524 225.928 158.917 225.683 157.293C225.669 157.21 225.622 157.135 225.554 157.084C225.486 157.034 225.4 157.012 225.316 157.023C225.232 157.034 225.155 157.078 225.102 157.145C225.05 157.211 225.025 157.296 225.033 157.381C225.931 163.29 227.793 169.012 230.547 174.317C231.316 175.798 232.153 177.241 233.056 178.647C233.283 179.002 233.799 178.597 233.573 178.244V178.244Z" fill="#74411C"/>
<path d="M225.028 158.024C227.32 158.024 229.179 156.166 229.179 153.873C229.179 151.581 227.32 149.723 225.028 149.723C222.736 149.723 220.878 151.581 220.878 153.873C220.878 156.166 222.736 158.024 225.028 158.024Z" fill="#FBAD18"/>
<path d="M200.369 118.397C200.642 117.983 200.821 117.515 200.893 117.026C200.965 116.536 200.929 116.036 200.787 115.562C200.645 115.088 200.401 114.65 200.072 114.281C199.743 113.911 199.337 113.618 198.882 113.422L199.754 101.421L194.298 104.476L194.307 115.404C194.028 116.19 194.048 117.05 194.362 117.822C194.675 118.594 195.261 119.224 196.009 119.593C196.756 119.962 197.613 120.044 198.416 119.823C199.22 119.603 199.915 119.095 200.369 118.397V118.397Z" fill="#D9B59C"/>
<path d="M199.012 71.7457L200.504 109.935L194.443 109.599L193.096 69.5294L194.374 68.9279C194.861 68.6991 195.396 68.5942 195.933 68.6227C196.469 68.6512 196.991 68.8122 197.45 69.0913C197.909 69.3703 198.292 69.7588 198.565 70.222C198.838 70.6852 198.991 71.2086 199.012 71.7457V71.7457Z" fill="#CCCCCC"/>
<path d="M180.268 174.867L176.14 174.867L174.176 158.944L180.269 158.944L180.268 174.867Z" fill="#D9B59C"/>
<path d="M173.192 173.688H181.153V178.7H168.179C168.179 178.042 168.309 177.39 168.56 176.782C168.812 176.174 169.182 175.621 169.647 175.156C170.113 174.69 170.665 174.321 171.273 174.069C171.881 173.817 172.533 173.687 173.192 173.688V173.688Z" fill="#856852"/>
<path d="M214.614 169.934L210.868 171.668L202.396 158.044L207.925 155.484L214.614 169.934Z" fill="#D9B59C"/>
<path d="M207.697 171.836L214.921 168.492L217.027 173.041L205.254 178.491C204.695 177.285 204.639 175.906 205.097 174.658C205.555 173.41 206.49 172.395 207.697 171.836V171.836Z" fill="#856852"/>
<path d="M170.466 122.903L174.724 171.487L180.448 170.814L184.678 126.435L208.059 168.793L214.119 167.11C214.119 167.11 194.611 108.757 193.096 103.875C191.435 98.5223 178.281 96.4667 178.281 96.4667L177.776 95.9617C172.123 103.571 169.859 113.443 170.466 122.903Z" fill="#856852"/>
<path d="M193.147 64.7131C197.714 64.7131 201.417 61.0104 201.417 56.443C201.417 51.8755 197.714 48.1729 193.147 48.1729C188.579 48.1729 184.877 51.8755 184.877 56.443C184.877 61.0104 188.579 64.7131 193.147 64.7131Z" fill="#D9B59C"/>
<path d="M198.339 72.4L192.591 102.358C192.591 102.358 183.857 100.614 180.745 98.5124C179.513 97.6774 178.395 96.8154 177.452 96.0342C177.267 95.8827 177.092 95.7312 176.92 95.5864C175.365 94.2563 174.409 93.2664 174.409 93.2664C174.409 93.2664 174.907 90.8252 175.516 87.9362C176.196 84.7003 177.021 80.8988 177.442 79.3465C178.368 75.9423 181.547 71.9758 184.025 69.2753C184.922 68.296 186.069 67.5793 187.343 67.2021C188.616 66.8248 189.968 66.8012 191.254 67.1338L195.739 68.2921C196.614 68.5177 197.37 69.0681 197.853 69.8313C198.336 70.5945 198.509 71.5131 198.339 72.4V72.4Z" fill="#CCCCCC"/>
<path opacity="0.2" d="M184.439 85.4848C184.439 85.4848 181.348 91.9094 176.92 95.5863C175.365 94.2563 174.409 93.2663 174.409 93.2663C174.409 93.2663 174.907 90.8251 175.516 87.9361C179.227 85.9764 183.052 84.7407 184.439 85.4848Z" fill="#CCCCCC"/>
<path d="M189.921 73.725C189.616 73.5694 189.297 73.4426 188.968 73.3464C188.296 73.1624 187.59 73.1479 186.911 73.3042C186.233 73.4605 185.604 73.7828 185.08 74.2421L166.912 87.5501L152.462 92.4106L155.073 98.5862L176.615 93.3254L190.901 80.6286C191.393 80.1571 191.766 79.5754 191.988 78.9315C192.21 78.2876 192.276 77.6 192.181 76.9256C192.085 76.2511 191.83 75.6091 191.437 75.0526C191.044 74.4961 190.525 74.041 189.921 73.725V73.725Z" fill="#CCCCCC"/>
<path d="M193.636 64.6368C194.813 62.875 195.742 60.432 194.446 58.7557C193.167 57.101 190.644 57.3448 188.685 56.6126C185.956 55.5928 184.373 52.387 184.867 49.5161C185.36 46.6451 187.665 44.2652 190.411 43.2914C193.156 42.3176 196.252 42.6343 198.941 43.7557C202.25 45.1361 205.089 47.8065 206.28 51.1891C207.471 54.5718 206.834 58.6333 204.364 61.2333C201.716 64.0207 197.561 64.7636 193.716 64.7185" fill="#74411C"/>
<path d="M206.623 54.8857C206.96 56.7683 209.025 57.8375 210.923 58.0725C212.821 58.3075 214.784 58.0062 216.632 58.4998C219.889 59.37 222.038 62.5027 223.22 65.6602C224.403 68.8177 224.927 72.2256 226.464 75.2269C228 78.2281 230.979 80.8741 234.339 80.5934C233.681 82.2505 232.528 83.6643 231.036 84.6417C229.545 85.6191 227.788 86.1126 226.006 86.0548C224.224 85.997 222.503 85.3907 221.078 84.3188C219.653 83.2468 218.594 81.7613 218.044 80.0649C216.81 76.2544 218.227 71.71 216.068 68.3359C214.874 66.4688 212.811 65.3705 210.822 64.392C208.834 63.4134 206.746 62.409 205.413 60.6384C204.079 58.8678 203.813 56.0716 205.456 54.584" fill="#74411C"/>
<path d="M246.895 178.877H139.047C138.941 178.877 138.839 178.835 138.763 178.76C138.688 178.685 138.646 178.583 138.646 178.476C138.646 178.37 138.688 178.268 138.763 178.193C138.839 178.118 138.941 178.075 139.047 178.075H246.895C247.002 178.075 247.104 178.118 247.179 178.193C247.254 178.268 247.296 178.37 247.296 178.476C247.296 178.583 247.254 178.685 247.179 178.76C247.104 178.835 247.002 178.877 246.895 178.877V178.877Z" fill="#74411C"/>
<path d="M116.249 178.877H8.40092C8.29459 178.877 8.19261 178.835 8.11743 178.76C8.04224 178.685 8 178.583 8 178.476C8 178.37 8.04224 178.268 8.11743 178.193C8.19261 178.118 8.29459 178.075 8.40092 178.075H116.249C116.356 178.075 116.458 178.118 116.533 178.193C116.608 178.268 116.65 178.37 116.65 178.476C116.65 178.583 116.608 178.685 116.533 178.76C116.458 178.835 116.356 178.877 116.249 178.877V178.877Z" fill="#74411C"/>
<path d="M77.2966 174.497L81.2433 173.285L78.4499 157.487L72.6254 159.275L77.2966 174.497Z" fill="#D9B59C"/>
<path d="M89.9786 174.614L77.5756 178.421L76.1049 173.629L83.7159 171.293C84.9868 170.903 86.3606 171.034 87.5351 171.656C88.7096 172.279 89.5885 173.343 89.9786 174.614V174.614Z" fill="#856852"/>
<path d="M42.2786 174.587H46.4068L48.3705 158.665L42.278 158.665L42.2786 174.587Z" fill="#D9B59C"/>
<path d="M54.3684 178.42L41.3945 178.421L41.3942 173.408L49.3555 173.408C50.685 173.408 51.96 173.936 52.9001 174.876C53.8402 175.816 54.3683 177.091 54.3684 178.42V178.42Z" fill="#856852"/>
<path d="M43.3296 121.697C42.9904 121.399 42.7206 121.031 42.5391 120.618C42.3576 120.205 42.2688 119.758 42.279 119.307C42.2892 118.856 42.3981 118.413 42.5982 118.009C42.7982 117.604 43.0844 117.249 43.4366 116.967L46.6373 76.6641L53.1463 78.2903L47.9347 117.605C48.3687 118.228 48.559 118.989 48.4695 119.743C48.3801 120.497 48.0172 121.192 47.4496 121.696C46.8819 122.201 46.149 122.479 45.3897 122.479C44.6303 122.479 43.8973 122.201 43.3296 121.697V121.697Z" fill="#D9B59C"/>
<path d="M58.721 61.3691C63.2885 61.3691 66.9911 57.6664 66.9911 53.099C66.9911 48.5315 63.2885 44.8289 58.721 44.8289C54.1536 44.8289 50.4509 48.5315 50.4509 53.099C50.4509 57.6664 54.1536 61.3691 58.721 61.3691Z" fill="#D9B59C"/>
<path d="M47.4254 77.4636C45.4601 74.7655 45.3995 71.0494 47.5166 68.4687C48.8982 66.7845 51.2092 65.4368 55.0675 65.4368C65.3518 65.4368 69.2528 73.5933 69.2528 73.5933C69.2528 73.5933 73.5084 81.3952 71.0259 88.4878C68.5435 95.5804 68.5435 96.2897 68.5435 96.2897L52.2305 94.8711C52.2305 94.8711 54.9825 87.8382 47.4254 77.4636Z" fill="#CCCCCC"/>
<path d="M42.395 84.5238L45.9092 73.0264C46.1446 72.2565 46.5462 71.5477 47.0856 70.9501C47.625 70.3525 48.2891 69.8807 49.0309 69.568C49.7727 69.2553 50.5742 69.1093 51.3786 69.1403C52.1831 69.1714 52.9709 69.3788 53.6863 69.7478V69.7478C54.9277 70.3907 55.8781 71.4816 56.3448 72.7993C56.8116 74.117 56.7598 75.5629 56.1999 76.8439L51.7322 87.0187L42.395 84.5238Z" fill="#CCCCCC"/>
<path d="M68.189 94.5166L82.0196 166.152L74.5723 168.28L56.4861 121.114L48.3296 169.344L40.5277 170.408C40.5277 170.408 37.1054 106.594 52.2306 94.8712L68.189 94.5166Z" fill="#856852"/>
<path d="M86.7776 87.0813C86.6578 87.224 86.5494 87.3759 86.4535 87.5357L69.7742 88.3443L66.5625 78.5393L60.9858 81.1898L66.2345 95.7936L86.8625 91.7595C87.3472 92.2887 87.9815 92.6578 88.6811 92.8177C89.3807 92.9776 90.1124 92.9207 90.7789 92.6546C91.4454 92.3885 92.0151 91.9258 92.4122 91.3281C92.8093 90.7303 93.0151 90.0258 93.0021 89.3083C92.9891 88.5908 92.7579 87.8942 92.3394 87.3113C91.9209 86.7283 91.3348 86.2866 90.6591 86.0448C89.9834 85.8031 89.2501 85.7728 88.5567 85.9579C87.8634 86.1431 87.2428 86.5349 86.7776 87.0813V87.0813Z" fill="#D9B59C"/>
<path d="M58.4733 74.6234C58.3792 73.8239 58.4619 73.0134 58.7155 72.2494C58.9691 71.4853 59.3874 70.7862 59.9409 70.2016C60.4944 69.617 61.1695 69.1611 61.9186 68.8662C62.6676 68.5712 63.4724 68.4444 64.2759 68.4946V68.4946C65.6709 68.5842 66.9798 69.2009 67.9369 70.2198C68.8941 71.2386 69.428 72.5834 69.4303 73.9813V85.0937L59.878 86.5635L58.4733 74.6234Z" fill="#CCCCCC"/>
<path d="M60.5399 61.4443C59.2987 61.4389 58.3411 60.132 58.3968 58.892C58.4524 57.652 59.2852 56.5609 60.2886 55.8302C61.2921 55.0995 62.4688 54.6545 63.5878 54.1172C64.7068 53.58 65.816 52.9099 66.5069 51.8787C66.9242 51.2037 67.1734 50.4384 67.2333 49.6471C67.2933 48.8558 67.1623 48.0617 66.8514 47.3315C66.2085 45.8712 65.1046 44.6619 63.7088 43.8889C61.6319 42.6849 59.1812 42.2974 56.8342 42.8019C54.5147 43.3108 51.058 44.7196 49.699 46.6669L48.2821 50.525C46.8383 52.2611 47.9561 54.8394 48.8437 56.9157C49.7312 58.9921 51.621 60.5542 53.7534 61.2969C55.9169 61.9922 58.2329 62.0616 60.4342 61.4972" fill="#74411C"/>
<path d="M52.9817 48.595C52.3726 47.6188 51.3169 46.9979 50.2254 46.6335C48.9609 46.2114 47.6161 46.0868 46.2957 46.2694C44.9752 46.4521 43.7147 46.937 42.6123 47.6866C41.5099 48.4361 40.5954 49.4299 39.94 50.5907C39.2846 51.7515 38.9059 53.0479 38.8335 54.379C38.7178 56.5051 39.3835 58.5842 39.7747 60.6773C40.1659 62.7703 40.2437 65.0821 39.0897 66.8715C38.2107 68.2345 36.7448 69.0926 35.298 69.8254C34.0921 70.4361 32.7877 71.0092 31.4415 70.8875C30.0953 70.7658 28.7423 69.6995 28.778 68.3483C28.3273 69.3172 28.023 70.3476 27.875 71.4058C27.7803 72.4685 28.0422 73.6151 28.8098 74.3561C29.9253 75.4331 31.6929 75.3543 33.226 75.1219C36.545 74.6188 39.9059 73.6756 42.528 71.5796C45.1501 69.4835 46.89 66.0322 46.1995 62.7471C45.9111 61.3748 45.2332 60.122 44.6854 58.8312C44.1376 57.5403 43.7099 56.1283 43.9616 54.7488C44.1105 54.0381 44.4137 53.3687 44.8496 52.788C45.2855 52.2072 45.8436 51.7293 46.4844 51.3878C47.7805 50.7139 49.2635 50.489 50.701 50.7484C51.6435 50.903 52.8204 51.1432 53.3793 50.3687C53.5275 50.1234 53.6031 49.8411 53.5976 49.5546C53.592 49.2681 53.5054 48.989 53.3478 48.7496C53.0253 48.2761 52.6146 47.8692 52.1381 47.551" fill="#74411C"/>
<circle cx="121.979" cy="66.197" r="35.697" fill="#FBAD18" stroke="black"/>
<path d="M118.443 48.0099C121.604 48.0099 124.167 46.6531 124.167 44.9794C124.167 43.3058 121.604 41.949 118.443 41.949C115.282 41.949 112.719 43.3058 112.719 44.9794C112.719 46.6531 115.282 48.0099 118.443 48.0099Z" fill="#74411C"/>
<path d="M140.33 55.0809C127.422 50.206 114.515 50.206 101.607 55.0809V39.2553C114.234 35.4452 127.703 35.4452 140.33 39.2553V55.0809Z" stroke="white" stroke-width="2" stroke-miterlimit="10"/>
<path d="M134.942 51.8079C125.626 48.2895 116.311 48.2895 106.995 51.8079V40.3859C116.108 37.636 125.829 37.636 134.942 40.3859V51.8079Z" stroke="white" stroke-width="2" stroke-miterlimit="10"/>
<path d="M120.463 46.6629C123.625 46.6629 126.187 45.3062 126.187 43.6325C126.187 41.9588 123.625 40.6021 120.463 40.6021C117.302 40.6021 114.739 41.9588 114.739 43.6325C114.739 45.3062 117.302 46.6629 120.463 46.6629Z" stroke="white" stroke-width="2" stroke-miterlimit="10"/>
<path d="M122.652 66.9884C125.75 66.3562 127.989 64.5143 127.655 62.8744C127.32 61.2346 124.538 60.4177 121.44 61.0499C118.343 61.6821 116.103 63.524 116.437 65.1638C116.772 66.8037 119.555 67.6206 122.652 66.9884Z" fill="#74411C"/>
<path d="M145.51 69.5396C131.889 67.3443 119.242 69.9255 107.57 77.2831L104.405 61.777C116.015 55.519 129.212 52.8254 142.346 54.0336L145.51 69.5396Z" stroke="white" stroke-width="2" stroke-miterlimit="10"/>
<path d="M139.577 67.4103C129.746 65.8259 120.619 67.6889 112.194 72.9991L109.91 61.8078C118.289 57.2911 127.815 55.3471 137.293 56.219L139.577 67.4103Z" stroke="white" stroke-width="2" stroke-miterlimit="10"/>
<path d="M124.362 65.265C127.46 64.6328 129.699 62.7909 129.365 61.151C129.03 59.5112 126.248 58.6943 123.15 59.3265C120.053 59.9587 117.813 61.8006 118.148 63.4404C118.482 65.0803 121.265 65.8972 124.362 65.265Z" stroke="white" stroke-width="2" stroke-miterlimit="10"/>
<path d="M126.569 83.2523C126.685 81.5827 124.223 80.0513 121.069 79.8318C117.915 79.6123 115.264 80.7879 115.148 82.4576C115.032 84.1272 117.495 85.6586 120.648 85.8781C123.802 86.0975 126.453 84.9219 126.569 83.2523Z" fill="#74411C"/>
<path d="M141.991 94.4515C129.454 88.6924 116.577 87.7963 103.362 91.7634L104.461 75.9759C117.321 73.0516 130.759 73.9866 143.09 78.664L141.991 94.4515Z" stroke="white" stroke-width="2" stroke-miterlimit="10"/>
<path d="M136.844 90.8123C127.795 86.6557 118.502 86.009 108.964 88.8722L109.757 77.4778C119.039 75.3671 128.737 76.042 137.637 79.4179L136.844 90.8123Z" stroke="white" stroke-width="2" stroke-miterlimit="10"/>
<path d="M128.678 82.0487C128.794 80.3791 126.332 78.8476 123.178 78.6282C120.024 78.4087 117.373 79.5843 117.257 81.254C117.141 82.9236 119.604 84.455 122.757 84.6745C125.911 84.8939 128.562 83.7183 128.678 82.0487Z" stroke="white" stroke-width="2" stroke-miterlimit="10"/>
</svg>
