<svg width="260" height="200" viewBox="0 0 260 200" fill="none" xmlns="http://www.w3.org/2000/svg">
<rect width="260" height="200" fill="white"/>
<path d="M155.279 178.553C155.281 177.855 145.222 177.273 132.814 177.253C120.405 177.234 110.345 177.783 110.344 178.48C110.343 179.178 120.401 179.76 132.81 179.779C145.218 179.799 155.278 179.25 155.279 178.553Z" fill="#74411C"/>
<path d="M129.974 133.318C116.686 133.318 103.81 128.711 93.5381 120.281C83.2665 111.851 76.2356 100.121 73.6432 87.0886C71.0509 74.0561 73.0576 60.528 79.3214 48.8093C85.5852 37.0905 95.7185 27.9062 107.995 22.8212C120.271 17.7362 133.931 17.0651 146.646 20.9223C159.362 24.7795 170.347 32.9264 177.729 43.9747C185.111 55.0231 188.434 68.2894 187.132 81.5131C185.829 94.7369 179.982 107.1 170.586 116.496C165.265 121.846 158.936 126.087 151.965 128.975C144.994 131.862 137.52 133.339 129.974 133.318ZM129.974 18.9076C98.5574 18.9076 72.9981 44.4669 72.9981 75.8836C72.9981 107.3 98.5574 132.86 129.974 132.86C161.391 132.86 186.95 107.3 186.95 75.8836C186.95 44.4669 161.391 18.9076 129.974 18.9076V18.9076Z" fill="#FBAD18"/>
<path d="M97.9156 77.7373H93.5564V92.8269H97.9156V77.7373Z" fill="#BC903D"/>
<path d="M100.794 89.9882L90.1921 77.375L68.9101 77.5695L56 90.1442L56.261 90.3119H56.1677V116.467H100.766V90.3119L100.794 89.9882Z" fill="#74411C"/>
<path d="M90.2031 77.4019L76.9578 92.9305V116.467H100.766V89.9766L90.2031 77.4019Z" fill="#D9A885"/>
<path d="M91.3769 103.451H86.5146V107.749H91.3769V103.451Z" fill="#3F3D56"/>
<path d="M91.3769 96.0122H86.5146V100.242H91.3769V96.0122Z" fill="#3F3D56"/>
<path d="M91.3769 103.451H86.5146V107.749H91.3769V103.451Z" fill="white"/>
<path d="M91.3769 96.0122H86.5146V100.242H91.3769V96.0122Z" fill="white"/>
<path d="M69.7687 102.311H64.9065V106.608H69.7687V102.311Z" fill="#3F3D56"/>
<path d="M69.7687 94.8721H64.9065V99.1015H69.7687V94.8721Z" fill="#3F3D56"/>
<path d="M69.7687 102.311H64.9065V106.608H69.7687V102.311Z" fill="white"/>
<path d="M69.7687 94.8721H64.9065V99.1015H69.7687V94.8721Z" fill="white"/>
<path d="M167.045 11.3623H162.686V26.4519H167.045V11.3623Z" fill="#BC903D"/>
<path d="M159.835 23.9369V65.2129H204.433V23.9369H204.34L204.601 23.7692L191.691 11.1945L170.409 11L159.807 23.6132L159.835 23.9369Z" fill="#D9A885"/>
<path d="M159.835 23.6016V65.213H183.643V26.5557L170.398 11.0269L159.835 23.6016Z" fill="#74411C"/>
<path d="M174.086 37.0762H169.224V41.3738H174.086V37.0762Z" fill="#3F3D56"/>
<path d="M174.086 29.6375H169.224V33.8669H174.086V29.6375Z" fill="#3F3D56"/>
<path d="M174.086 37.0762H169.224V41.3738H174.086V37.0762Z" fill="white"/>
<path d="M174.086 29.6375H169.224V33.8669H174.086V29.6375Z" fill="white"/>
<path d="M195.694 35.9358H190.832V40.2334H195.694V35.9358Z" fill="#3F3D56"/>
<path d="M195.694 28.4971H190.832V32.7265H195.694V28.4971Z" fill="#3F3D56"/>
<path d="M195.694 35.9358H190.832V40.2334H195.694V35.9358Z" fill="white"/>
<path d="M195.694 28.4971H190.832V32.7265H195.694V28.4971Z" fill="white"/>
<path d="M174.086 52.1968H169.224V56.4944H174.086V52.1968Z" fill="white"/>
<path d="M174.086 44.7581H169.224V48.9875H174.086V44.7581Z" fill="white"/>
<path d="M195.694 51.0564H190.832V55.354H195.694V51.0564Z" fill="white"/>
<path d="M195.694 43.6177H190.832V47.8471H195.694V43.6177Z" fill="white"/>
<path d="M132.619 59.2429C136.489 59.2429 139.627 56.1053 139.627 52.2349C139.627 48.3644 136.489 45.2268 132.619 45.2268C128.748 45.2268 125.611 48.3644 125.611 52.2349C125.611 56.1053 128.748 59.2429 132.619 59.2429Z" fill="#D9B59C"/>
<path d="M125.421 64.9251L137.354 64.7357C136.328 61.9075 135.883 59.2595 136.596 56.97L127.505 56.0229C128.733 58.9903 128.039 61.9577 125.421 64.9251Z" fill="#D9B59C"/>
<path d="M115.004 111.898L116.986 117.182C117.156 117.635 117.221 118.121 117.175 118.603C117.13 119.086 116.976 119.551 116.725 119.965C116.474 120.379 116.132 120.731 115.725 120.993C115.319 121.256 114.858 121.423 114.377 121.482V121.482C113.917 121.538 113.45 121.493 113.009 121.351C112.568 121.21 112.164 120.974 111.823 120.66C111.482 120.346 111.213 119.962 111.035 119.534C110.857 119.107 110.774 118.645 110.792 118.182L111.027 112.087L112.731 80.8352L119.739 82.9187L115.004 111.898Z" fill="#D9B59C"/>
<path d="M122.391 170.614L128.073 170.046L133.187 120.421L140.385 170.993L145.688 170.803L147.014 115.307H121.633L122.391 170.614Z" fill="#856852"/>
<path d="M140.953 49.583C140.953 49.583 139.059 53.7499 137.733 53.9393C136.407 54.1287 134.134 56.2122 134.513 57.1592C134.892 58.1063 134.703 60.9474 130.914 60.5685C127.126 60.1897 127.316 59.8109 127.316 59.8109C127.316 59.8109 121.255 48.2571 127.505 45.2266C133.756 42.1961 139.248 44.469 140.953 49.583Z" fill="#74411C"/>
<path d="M145.978 168.092L145.75 172.873C145.75 172.873 149.22 178.285 144.895 178.285C144.851 178.285 144.937 178.285 144.895 178.285C141.766 178.275 138.939 179.683 139.309 176.577L139.831 172.19L140.742 167.409L145.978 168.092Z" fill="#856852"/>
<path d="M122.438 168.092L122.666 172.873C122.666 172.873 119.196 178.285 123.522 178.285C123.565 178.285 123.479 178.285 123.522 178.285C126.65 178.275 129.477 179.683 129.107 176.577L128.585 172.19L127.674 167.409L122.438 168.092Z" fill="#856852"/>
<path d="M119.55 117.58L147.771 116.254C142.508 99.3643 142.469 85.5441 149.097 72.8183C149.097 71.487 148.707 70.1848 147.975 69.0727C147.244 67.9605 146.202 67.0872 144.979 66.5604L136.786 63.031L126.369 63.5992L119.495 67.3798C118.149 68.1202 117.038 69.2245 116.29 70.5664C115.542 71.9083 115.188 73.4337 115.266 74.9679C121.284 89.3338 121.628 103.5 119.55 117.58Z" fill="#D0CDE1"/>
<path d="M124.664 84.6232L108.943 81.9715L111.533 75.541C112.444 73.2799 113.832 71.2418 115.602 69.566C117.372 67.8902 119.483 66.616 121.791 65.8304L123.338 65.3037L124.664 84.6232Z" fill="#D0CDE1"/>
<path d="M173.977 70.1664L178.816 68.15C179.305 67.946 179.745 67.6376 180.103 67.2464C180.461 66.8551 180.73 66.3905 180.89 65.8848C181.05 65.3791 181.098 64.8445 181.031 64.3184C180.963 63.7923 180.781 63.2872 180.499 62.8384V62.8384C180.194 62.3555 179.781 61.9507 179.291 61.6567C178.802 61.3627 178.25 61.1877 177.681 61.1458C177.111 61.1039 176.54 61.1962 176.013 61.4154C175.486 61.6345 175.017 61.9744 174.646 62.4076L171.055 66.5905L156.979 76.6909L147.411 72.719L146.271 80.6552L158.225 83.7687L173.977 70.1664Z" fill="#D9B59C"/>
<path d="M148.469 83.7289L156.259 76.3974L154.197 73.8772C152.354 69.3017 148.117 67.4201 143.447 65.8304L141.9 65.3037L140.679 77.7721L148.469 83.7289Z" fill="#D0CDE1"/>
</svg>
