<svg width="148" height="124" viewBox="0 0 148 124" fill="none" xmlns="http://www.w3.org/2000/svg">
<rect width="148" height="124" fill="white"/>
<path d="M17.2737 107.81L17.0215 107.753C19.8336 95.2468 26.9008 83.8903 36.9211 75.7751C44.4968 69.6493 53.507 65.5523 63.1031 63.87C72.6993 62.1876 82.5658 62.9752 91.7736 66.1585C100.981 69.3419 109.227 74.8163 115.735 82.0664C122.243 89.3164 126.799 98.1034 128.974 107.6L128.722 107.657C122.769 81.5201 99.8615 63.2653 73.015 63.2653C46.5202 63.2653 23.0776 81.9989 17.2737 107.81Z" fill="#3F3D56"/>
<path d="M136.916 101.856L137.304 104.7L134.589 104.959L134.977 101.469L136.916 101.856Z" fill="#D9B59C"/>
<path d="M124.12 62.8201C124.12 62.8201 124.378 66.3101 124.378 66.4393C124.378 66.5686 122.568 75.4875 122.568 75.4875C122.568 75.4875 119.983 80.3993 122.568 80.2701C125.154 80.1408 124.378 75.6167 124.378 75.6167L127.092 68.1197L125.929 62.8201H124.12Z" fill="#D9B59C"/>
<path d="M128.385 101.856L127.998 104.7L130.712 104.959L130.324 101.469L128.385 101.856Z" fill="#D9B59C"/>
<path d="M125.412 75.2291L124.766 76.1339C124.766 76.1339 124.378 80.0117 124.766 81.3043C125.153 82.5968 125.929 88.5428 125.929 88.9306C125.929 89.3183 126.058 89.5768 125.929 89.7061C125.8 89.8354 125.412 89.8354 125.67 90.0939C125.929 90.3524 125.929 91.128 125.929 91.128V91.7743L127.609 101.339C127.609 101.339 126.575 102.503 127.351 102.503C128.126 102.503 130.97 102.503 130.841 101.21L130.582 101.081C130.582 101.081 130.195 92.5498 130.324 92.162C130.453 91.7743 130.324 90.9987 130.324 90.9987C130.324 90.9987 130.065 90.6109 130.324 90.4817C130.582 90.3524 130.582 89.3183 130.582 89.3183L131.746 81.4335C131.746 81.4335 132.78 86.7331 133.426 87.2502C134.072 87.7672 133.943 89.0598 133.943 89.0598L134.46 100.435C134.46 100.435 133.943 101.727 134.46 101.986C134.977 102.244 137.175 103.149 137.304 101.856C137.433 100.564 138.079 89.3183 138.079 88.8013C138.079 88.2843 137.95 88.0257 138.079 87.638C138.209 87.2502 137.95 87.2502 138.079 87.2502C138.209 87.2502 137.821 86.8624 137.821 86.6039V80.2702C137.821 80.2702 137.95 78.9776 138.079 78.7191C138.209 78.4605 137.95 78.202 138.079 77.8142C138.209 77.4265 137.821 76.1339 137.821 76.1339L132.004 74.5828L125.412 75.2291Z" fill="#856852"/>
<path d="M129.936 104.183C129.936 104.183 130.583 103.537 129.678 103.537C129.097 103.549 128.525 103.681 127.997 103.925L127.351 106.251C127.351 106.251 124.701 108.384 127.674 108.126C130.647 107.867 130.195 108.061 130.195 108.061C130.195 108.061 131.1 107.802 131.229 107.544C131.358 107.285 130.97 103.537 130.97 103.537C130.97 103.537 130.583 104.571 129.936 104.183Z" fill="#856852"/>
<path d="M135.495 104.183C135.495 104.183 134.848 103.537 135.753 103.537C136.334 103.549 136.906 103.681 137.434 103.925L138.08 106.251C138.08 106.251 140.73 108.384 137.757 108.126C134.784 107.867 134.848 108.061 134.848 108.061C134.848 108.061 133.944 107.802 133.814 107.544C133.685 107.285 134.461 103.537 134.461 103.537C134.461 103.537 134.848 104.571 135.495 104.183Z" fill="#856852"/>
<path d="M39.1371 62.4236H37.9863V107.878H39.1371V62.4236Z" fill="#3F3D56"/>
<path d="M49.7571 68.2162C49.8303 84.1105 38.6478 97.0472 38.6478 97.0472C38.6478 97.0472 27.3466 84.2141 27.2733 68.3198C27.2001 52.4255 38.3825 39.4888 38.3825 39.4888C38.3825 39.4888 49.6838 52.3218 49.7571 68.2162Z" fill="#BC903D"/>
<path d="M119.208 89.0598H30.1484V107.932H119.208V89.0598Z" fill="#F2F2F2"/>
<path d="M27.3047 91.128L36.9991 70.8342H114.426L121.664 91.128H27.3047Z" fill="#74411C"/>
<path d="M87.4097 72.1267H51.4756V84.0186H87.4097V72.1267Z" fill="#F2F2F2"/>
<path d="M53.8026 62.4324L48.1152 74.3242H90.7708L87.4101 62.4324H53.8026Z" fill="#74411C"/>
<path d="M83.0145 92.8083H54.6421V107.932H83.0145V92.8083Z" fill="#CCCCCC"/>
<path d="M48.7615 93.3252H33.6382V107.932H48.7615V93.3252Z" fill="#CCCCCC"/>
<path d="M95.7474 94.2302H87.9272V107.932H95.7474V94.2302Z" fill="#D9A885"/>
<path d="M147.968 107.867H1V108.125H147.968V107.867Z" fill="#3F3D56"/>
<path d="M25.0143 77.8865H24.2549V107.882H25.0143V77.8865Z" fill="#3F3D56"/>
<path d="M32.0222 81.7089C32.0705 92.1975 24.6913 100.734 24.6913 100.734C24.6913 100.734 17.2336 92.2658 17.1853 81.7773C17.137 71.2888 24.5162 62.752 24.5162 62.752C24.5162 62.752 31.9738 71.2204 32.0222 81.7089Z" fill="#FDC251"/>
<path opacity="0.1" d="M32.0222 81.7089C32.0705 92.1975 24.6913 100.734 24.6913 100.734C24.6913 100.734 17.2336 92.2658 17.1853 81.7773C17.137 71.2888 24.5162 62.752 24.5162 62.752C24.5162 62.752 31.9738 71.2204 32.0222 81.7089Z" fill="#BC903D"/>
<path d="M15.1422 77.8865H14.3828V107.882H15.1422V77.8865Z" fill="#3F3D56"/>
<path d="M22.1501 81.7089C22.1984 92.1975 14.8192 100.734 14.8192 100.734C14.8192 100.734 7.36156 92.2658 7.31322 81.7773C7.26489 71.2888 14.6441 62.752 14.6441 62.752C14.6441 62.752 22.1017 71.2204 22.1501 81.7089Z" fill="#FDD27F"/>
<path d="M108.027 95.0056H104.213V98.5602H108.027V95.0056Z" fill="#D9A885"/>
<path d="M113.132 95.0056H109.319V98.5602H113.132V95.0056Z" fill="#D9A885"/>
<path d="M108.027 99.8528H104.213V103.537H108.027V99.8528Z" fill="#D9A885"/>
<path d="M113.132 99.8528H109.319V103.537H113.132V99.8528Z" fill="#D9A885"/>
<path d="M57.7562 75.3809H54.772V78.1627H57.7562V75.3809Z" fill="#D9A885"/>
<path d="M61.7518 75.3809H58.7676V78.1627H61.7518V75.3809Z" fill="#D9A885"/>
<path d="M57.7562 79.1743H54.772V82.0574H57.7562V79.1743Z" fill="#D9A885"/>
<path d="M61.7518 79.1743H58.7676V82.0574H61.7518V79.1743Z" fill="#D9A885"/>
<path d="M80.118 75.3809H77.1338V78.1627H80.118V75.3809Z" fill="#D9A885"/>
<path d="M84.1141 75.3809H81.1299V78.1627H84.1141V75.3809Z" fill="#D9A885"/>
<path d="M80.118 79.1743H77.1338V82.0574H80.118V79.1743Z" fill="#D9A885"/>
<path d="M84.1141 79.1743H81.1299V82.0574H84.1141V79.1743Z" fill="#D9A885"/>
<path d="M69.0018 75.3809H66.0176V78.1627H69.0018V75.3809Z" fill="#D9A885"/>
<path d="M72.9974 75.3809H70.0132V78.1627H72.9974V75.3809Z" fill="#D9A885"/>
<path d="M69.0018 79.1743H66.0176V82.0574H69.0018V79.1743Z" fill="#D9A885"/>
<path d="M72.9974 79.1743H70.0132V82.0574H72.9974V79.1743Z" fill="#D9A885"/>
<path d="M91.5508 95.6182H89.6719V97.3697H91.5508V95.6182Z" fill="#F2F2F2"/>
<path d="M94.0669 95.6182H92.188V97.3697H94.0669V95.6182Z" fill="#F2F2F2"/>
<path d="M91.5508 98.0068H89.6719V99.8221H91.5508V98.0068Z" fill="#F2F2F2"/>
<path d="M94.0669 98.0068H92.188V99.8221H94.0669V98.0068Z" fill="#F2F2F2"/>
<path d="M94.7128 102.567C94.9984 102.567 95.2299 102.336 95.2299 102.05C95.2299 101.765 94.9984 101.533 94.7128 101.533C94.4273 101.533 94.1958 101.765 94.1958 102.05C94.1958 102.336 94.4273 102.567 94.7128 102.567Z" fill="#F2F2F2"/>
<path d="M83.0792 94.4241H54.6421V94.6826H83.0792V94.4241Z" fill="#F2F2F2"/>
<path d="M83.0792 95.5874H54.6421V95.8459H83.0792V95.5874Z" fill="#F2F2F2"/>
<path d="M83.0792 96.7507H54.6421V97.0093H83.0792V96.7507Z" fill="#F2F2F2"/>
<path d="M83.0792 97.9141H54.6421V98.1726H83.0792V97.9141Z" fill="#F2F2F2"/>
<path d="M83.0792 99.0774H54.6421V99.3359H83.0792V99.0774Z" fill="#F2F2F2"/>
<path d="M83.0792 100.241H54.6421V100.499H83.0792V100.241Z" fill="#F2F2F2"/>
<path d="M83.0792 101.404H54.6421V101.663H83.0792V101.404Z" fill="#F2F2F2"/>
<path d="M83.0792 102.567H54.6421V102.826H83.0792V102.567Z" fill="#F2F2F2"/>
<path d="M83.0792 103.731H54.6421V103.989H83.0792V103.731Z" fill="#F2F2F2"/>
<path d="M83.0792 104.894H54.6421V105.153H83.0792V104.894Z" fill="#F2F2F2"/>
<path d="M83.0792 106.057H54.6421V106.316H83.0792V106.057Z" fill="#F2F2F2"/>
<path d="M48.7615 94.4241H33.6382V94.6826H48.7615V94.4241Z" fill="#F2F2F2"/>
<path d="M48.7615 95.5874H33.6382V95.8459H48.7615V95.5874Z" fill="#F2F2F2"/>
<path d="M48.7615 96.7507H33.6382V97.0093H48.7615V96.7507Z" fill="#F2F2F2"/>
<path d="M48.7615 97.9141H33.6382V98.1726H48.7615V97.9141Z" fill="#F2F2F2"/>
<path d="M48.7615 99.0774H33.6382V99.3359H48.7615V99.0774Z" fill="#F2F2F2"/>
<path d="M48.7615 100.241H33.6382V100.499H48.7615V100.241Z" fill="#F2F2F2"/>
<path d="M48.7615 101.404H33.6382V101.663H48.7615V101.404Z" fill="#F2F2F2"/>
<path d="M48.7615 102.567H33.6382V102.826H48.7615V102.567Z" fill="#F2F2F2"/>
<path d="M48.7615 103.731H33.6382V103.989H48.7615V103.731Z" fill="#F2F2F2"/>
<path d="M48.7615 104.894H33.6382V105.153H48.7615V104.894Z" fill="#F2F2F2"/>
<path d="M48.7615 106.057H33.6382V106.316H48.7615V106.057Z" fill="#F2F2F2"/>
<path d="M114.36 81.2396C120.143 81.2396 124.83 76.552 124.83 70.7696C124.83 64.9871 120.143 60.2996 114.36 60.2996C108.578 60.2996 103.89 64.9871 103.89 70.7696C103.89 76.552 108.578 81.2396 114.36 81.2396Z" fill="#FBAD18"/>
<path d="M120.953 69.7356H115.395V64.1775H113.327V69.7356H107.769V71.8038H113.327V77.3619H115.395V71.8038H120.953V69.7356Z" fill="white"/>
<path d="M127.093 52.6087C128.949 52.6087 130.453 51.104 130.453 49.248C130.453 47.3919 128.949 45.8872 127.093 45.8872C125.237 45.8872 123.732 47.3919 123.732 49.248C123.732 51.104 125.237 52.6087 127.093 52.6087Z" fill="#D9B59C"/>
<path d="M125.929 51.7037C125.929 51.7037 126.446 54.2889 126.446 54.6767C126.446 55.0645 128.644 56.2278 128.644 56.2278L131.1 53.1256C131.1 53.1256 129.548 50.9282 129.548 50.4111L125.929 51.7037Z" fill="#D9B59C"/>
<path d="M127.868 55.0646C127.868 55.0646 126.742 54.7647 126.4 54.2683C126.4 54.2683 122.827 57.779 122.827 58.4253L125.671 63.4664C125.671 63.4664 125.671 65.2761 125.929 65.4053C126.188 65.5346 125.929 65.4053 125.929 65.9224C125.929 66.4394 125.154 69.8001 125.412 70.3172C125.671 70.8342 125.929 70.4464 125.671 71.222C125.412 71.9975 124.766 76.1338 124.766 76.1338C124.766 76.1338 127.093 75.3583 130.453 76.6509C133.814 77.9435 137.821 76.1338 137.821 76.1338C137.821 76.1338 136.787 73.8072 137.046 73.0316C137.304 72.2561 136.399 70.8342 136.399 70.8342L135.753 58.9423C135.753 58.9423 136.658 53.6427 136.012 53.3842L134.719 52.8672L130.58 52.3584C130.58 52.3584 129.549 54.9353 127.868 55.0646Z" fill="#D0CDE1"/>
<path d="M124.119 57.5205L122.827 58.4253C122.827 58.4253 122.18 60.3642 122.827 61.269C123.473 62.1738 123.732 63.4664 123.732 63.4664L126.317 63.2079L124.119 57.5205Z" fill="#D0CDE1"/>
<path d="M133.685 58.6838C133.685 58.6838 132.936 60.6086 133.093 62.513C133.121 62.8539 133.236 63.182 133.426 63.4664V63.4664L124.256 67.82C124.256 67.82 120.113 68.249 121.147 70.0587C122.181 71.8683 125.929 69.1538 125.929 69.1538C125.929 69.1538 135.753 67.732 136.529 66.3101C137.304 64.8883 137.821 58.9424 137.821 58.9424L133.685 58.6838Z" fill="#D9B59C"/>
<path d="M124.527 45.6961L123.944 45.4627C123.944 45.4627 125.163 44.1207 126.859 44.2374L126.382 43.7123C126.382 43.7123 127.548 43.2455 128.608 44.4708C129.165 45.1149 129.809 45.872 130.211 46.7248H130.836L130.575 47.2986L131.487 47.8723L130.551 47.7692C130.64 48.2646 130.609 48.7739 130.462 49.2552L130.488 49.7086C130.488 49.7086 129.403 48.0299 129.403 47.7965V48.38C129.403 48.38 128.82 47.8548 128.82 47.5048L128.502 47.9132L128.343 47.2714L126.382 47.9132L126.7 47.3881L125.481 47.5631L125.958 46.9213C125.958 46.9213 124.58 47.6798 124.527 48.3216C124.474 48.9634 123.785 49.7803 123.785 49.7803L123.467 49.1968C123.467 49.1968 122.99 46.5712 124.527 45.6961Z" fill="#74411C"/>
<path d="M134.072 53.384H136.011C136.011 53.384 137.433 53.6426 137.821 56.2277C138.209 58.8129 138.596 59.4592 138.209 59.4592C137.821 59.4592 133.167 59.33 133.167 59.2007C133.167 59.0714 134.072 53.384 134.072 53.384Z" fill="#D0CDE1"/>
</svg>
