<svg width="16" height="16" viewBox="0 0 16 16" fill="none" xmlns="http://www.w3.org/2000/svg">
<path d="M15.5312 0H5.65625V4.71875H16V0.46875C16 0.209812 15.7901 0 15.5312 0Z" fill="#464646"/>
<path d="M10.3438 5.65625H5.65625V10.3438H10.3438V5.65625Z" fill="#464646"/>
<path d="M0 11.2812V15.5312C0 15.7901 0.209875 16 0.46875 16H10.3438V11.2812C10.2169 11.2812 0 11.2812 0 11.2812Z" fill="#464646"/>
<path d="M0.46875 0C0.209875 0 0 0.209812 0 0.46875V10.3438H4.71875V0H0.46875Z" fill="#464646"/>
<path d="M11.2812 5.65625V16H15.5312C15.7901 16 16 15.7901 16 15.5312V5.65625H11.2812Z" fill="#464646"/>
</svg>
