<svg width="18" height="18" viewBox="0 0 18 18" fill="none" xmlns="http://www.w3.org/2000/svg">
<path d="M8.99978 9.98979C9.54876 9.98979 9.98979 9.54429 9.98979 8.99978C9.98979 8.45526 9.54881 8.00977 8.99978 8.00977C8.45527 8.00977 8.00977 8.45526 8.00977 8.99978C8.00977 9.54429 8.45531 9.98979 8.99978 9.98979Z" fill="#464646"/>
<path d="M8.99998 0C4.02751 0 0 4.02751 0 8.99998C0 13.968 4.02751 18 8.99998 18C13.9724 18 18 13.968 18 8.99998C18 4.02751 13.9725 0 8.99998 0ZM10.971 10.971L3.59998 14.4L7.02898 7.02898L14.4 3.59998L10.971 10.971Z" fill="#464646"/>
</svg>
