<svg width="148" height="124" viewBox="0 0 148 124" fill="none" xmlns="http://www.w3.org/2000/svg">
<rect width="148" height="124" fill="white"/>
<path opacity="0.1" d="M136.57 77.2118C136.572 79.2878 136.321 81.3562 135.822 83.3714C135.654 84.0504 135.459 84.7153 135.237 85.366C134.966 86.1693 134.651 86.9573 134.294 87.7266C134.114 88.1158 133.924 88.4973 133.724 88.871C133.727 90.9998 133.289 93.1061 132.437 95.0569C130.896 98.557 128.15 101.387 124.697 103.031C122.539 104.061 120.179 104.603 117.788 104.618H35.6493C31.9948 104.626 28.4034 103.665 25.2403 101.835L25.1916 101.808C24.7411 101.544 24.3018 101.265 23.8738 100.97C22.9109 100.305 22.0062 99.559 21.1695 98.7406C20.0371 97.634 19.0392 96.3975 18.1966 95.0569C16.2175 91.9146 15.1692 88.2759 15.1728 84.5623C13.1687 81.0457 12 76.8332 12 72.3066C12 66.5955 13.8572 61.3857 16.9084 57.4419C17.5445 56.6179 18.2413 55.8427 18.9929 55.1225C19.7346 54.4099 20.5317 53.7574 21.3768 53.1712C22.0529 52.7017 22.7596 52.2777 23.492 51.9021C23.7977 51.7466 24.1044 51.5996 24.4164 51.4632C24.6903 51.3416 24.9674 51.2284 25.2477 51.1216C25.584 50.994 25.9245 50.8766 26.2693 50.7694C26.6141 50.6622 26.9543 50.5685 27.2899 50.4881C27.7835 50.3675 28.2855 50.2695 28.796 50.1941C29.219 50.1317 29.642 50.0883 30.0651 50.0555C30.4014 50.0301 30.7409 50.0164 31.0825 50.0121H31.2676C31.6441 50.0121 32.0185 50.027 32.3897 50.0523C32.4289 49.9741 32.4712 49.8947 32.5103 49.8175C32.6584 49.5352 32.8117 49.2538 32.9661 48.9789C32.9658 48.9764 32.9658 48.9739 32.9661 48.9715C32.9926 48.9228 33.019 48.8752 33.0465 48.8287C33.1713 48.6034 33.3014 48.3802 33.4346 48.1592C33.496 48.0534 33.5563 47.954 33.6187 47.8546C33.6319 47.8299 33.6463 47.8059 33.662 47.7827C33.7255 47.6769 33.79 47.5712 33.8556 47.4654C34.182 46.9437 34.5215 46.4311 34.8741 45.9276L34.964 45.7986C35.019 45.7204 35.0697 45.6442 35.1311 45.5659C35.277 45.3618 35.4272 45.1566 35.5784 44.9557C35.6842 44.8119 35.79 44.6691 35.9042 44.5327C36.1792 44.1801 36.4612 43.8276 36.7503 43.475C37.0393 43.1225 37.3397 42.7745 37.6514 42.4312C37.6937 42.3836 37.736 42.337 37.7804 42.2905L38.232 41.7977C38.2542 41.7744 38.2732 41.7532 38.2944 41.7321C38.3483 41.6739 38.4001 41.6158 38.4583 41.5597C38.7005 41.3027 38.949 41.051 39.1986 40.8003C40.4689 39.5352 41.8221 38.3561 43.2493 37.2711C43.3054 37.2267 43.3625 37.1844 43.4185 37.1421C43.6871 36.94 43.96 36.7402 44.2329 36.5434C45.7337 35.4667 47.3026 34.4882 48.9297 33.6139C49.0418 33.5493 49.1561 33.4891 49.2713 33.4298C50.7301 32.6581 52.2303 31.9675 53.7651 31.3611C54.6017 31.0301 55.4573 30.7192 56.3182 30.4347C56.8914 30.2464 57.4668 30.0677 58.0495 29.8995C58.9605 29.6372 59.8778 29.4021 60.8014 29.1941C63.5226 28.5835 66.2909 28.2063 69.0762 28.0667C69.9223 28.0237 70.7779 28.0015 71.643 28C75.8174 27.9945 79.9756 28.5205 84.0171 29.5653C84.0589 29.6285 84.1161 29.6799 84.1832 29.7149C84.2504 29.7499 84.3253 29.7672 84.401 29.7652H84.7564C84.9108 29.8075 85.0641 29.8498 85.2186 29.8942C86.0809 30.1424 86.9308 30.4135 87.7685 30.7075L87.98 30.7837C90.0474 31.5188 92.0589 32.4025 93.9989 33.4277C95.7476 34.3497 97.4314 35.39 99.0384 36.5413C99.2859 36.719 99.5298 36.8981 99.7703 37.0786C100.062 36.8917 100.359 36.7127 100.661 36.5413C101.826 35.8776 103.064 35.3499 104.35 34.9687C107.038 34.1731 109.882 34.0619 112.624 34.645C116.141 35.3906 119.324 37.2415 121.896 39.8739C122.942 40.9509 123.874 42.1341 124.676 43.4042C124.734 43.4951 124.792 43.5871 124.848 43.6802C125.537 44.8043 126.13 45.985 126.619 47.2095C126.637 47.2549 126.655 47.2973 126.671 47.3417C127.122 48.4882 127.486 49.6673 127.76 50.8688C127.773 50.9302 127.787 50.9904 127.8 51.0518C128.056 52.2145 128.23 53.3939 128.321 54.581C128.321 54.6233 128.321 54.6667 128.329 54.7111C128.373 55.3252 128.396 55.9457 128.397 56.5725C128.397 57.1331 128.378 57.6894 128.343 58.2414C128.343 58.3017 128.334 58.3641 128.329 58.4265C128.319 58.5862 128.306 58.7438 128.292 58.9046C129.1 59.5561 129.856 60.2693 130.553 61.0378C130.861 61.3741 131.16 61.7231 131.448 62.0848C132.326 63.1857 133.098 64.3674 133.753 65.6141C135.542 68.99 136.57 72.9613 136.57 77.2118Z" fill="#FDD27F"/>
<path opacity="0.1" d="M124.619 102.64C124.619 103.362 122.13 104.039 117.788 104.621H35.6491C31.9946 104.629 28.4032 103.669 25.2401 101.838L25.1914 101.811C26.4394 101.356 28.6921 100.932 31.7581 100.549L31.8956 100.532C33.2705 100.364 34.8072 100.204 36.4867 100.053C36.529 100.053 36.5724 100.047 36.6147 100.041C37.9473 99.923 39.3648 99.8119 40.8673 99.7083C40.9149 99.7083 40.9615 99.6998 41.0091 99.6977C41.5886 99.6561 42.1802 99.6166 42.7837 99.5792L43.0164 99.5644C47.4108 99.2916 52.4059 99.0737 57.823 98.9299H57.8293C58.588 98.9087 59.3548 98.89 60.1297 98.8738C60.9913 98.8534 61.8634 98.8354 62.7462 98.8199C63.4199 98.8051 64.1021 98.7945 64.7863 98.7839H64.8022C67.8894 98.7374 71.0791 98.7141 74.3408 98.7141C82.4062 98.7141 90.0294 98.8611 96.7844 99.1255H96.8035C97.842 99.1657 98.8616 99.2101 99.8557 99.2556L100.702 99.2958C101.824 99.3494 102.916 99.4068 103.98 99.4682C116.492 100.18 124.619 101.336 124.619 102.64Z" fill="#D0CDE1"/>
<g opacity="0.2">
<path opacity="0.2" d="M83.9491 98.2288C83.9457 98.3429 83.9326 98.4565 83.91 98.5683C83.1739 98.4513 82.4335 98.3455 81.689 98.251C81.689 98.2214 81.689 98.1907 81.689 98.1601C81.6959 97.8429 81.7871 97.5334 81.9534 97.2632C82.1712 96.9184 82.5023 96.7027 82.8671 96.7143C83.232 96.7259 83.5482 96.9618 83.7439 97.3182C83.8919 97.5982 83.9627 97.9125 83.9491 98.2288V98.2288Z" fill="#3F3D56"/>
<path opacity="0.2" d="M84.0096 96.4218C84.0355 95.6039 83.55 94.9248 82.9254 94.9051C82.3007 94.8854 81.7733 95.5324 81.7475 96.3503C81.7216 97.1682 82.2071 97.8473 82.8318 97.867C83.4564 97.8868 83.9838 97.2397 84.0096 96.4218Z" fill="#3F3D56"/>
<path opacity="0.2" d="M84.0677 94.611C84.0936 93.7931 83.6082 93.114 82.9835 93.0943C82.3588 93.0746 81.8314 93.7216 81.8056 94.5395C81.7797 95.3575 82.2652 96.0365 82.8899 96.0563C83.5146 96.076 84.0419 95.4289 84.0677 94.611Z" fill="#3F3D56"/>
<path opacity="0.2" d="M84.1239 92.8002C84.1497 91.9823 83.6643 91.3033 83.0396 91.2835C82.4149 91.2638 81.8876 91.9108 81.8617 92.7287C81.8359 93.5467 82.3213 94.2257 82.946 94.2455C83.5707 94.2652 84.0981 93.6182 84.1239 92.8002Z" fill="#3F3D56"/>
<path opacity="0.2" d="M84.1805 90.9899C84.2064 90.172 83.7209 89.4929 83.0963 89.4732C82.4716 89.4535 81.9442 90.1005 81.9184 90.9184C81.8925 91.7364 82.378 92.4154 83.0027 92.4352C83.6273 92.4549 84.1547 91.8078 84.1805 90.9899Z" fill="#3F3D56"/>
<path opacity="0.2" d="M79.2006 78.4262C79.0516 78.2246 78.9173 78.0125 78.7987 77.7917L81.7875 77.3972L78.5702 77.32C78.2831 76.639 78.1379 75.9065 78.1436 75.1675C78.1492 74.4285 78.3055 73.6984 78.603 73.0218L82.8461 75.3962L78.9594 72.346C79.3515 71.7118 79.8701 71.1653 80.4829 70.7406C81.0957 70.3159 81.7895 70.0221 82.5209 69.8776C83.2524 69.733 84.0058 69.7408 84.7341 69.9005C85.4623 70.0602 86.1499 70.3684 86.7537 70.8057C87.3575 71.2431 87.8647 71.8003 88.2435 72.4424C88.6224 73.0846 88.8647 73.798 88.9555 74.538C89.0462 75.2781 88.9834 76.0289 88.771 76.7435C88.5585 77.4582 88.201 78.1214 87.7207 78.6917C87.9523 79.0054 88.1492 79.3433 88.3077 79.6996L84.385 81.5821L88.5446 80.331C88.8065 81.1953 88.8487 82.1113 88.6674 82.9961C88.486 83.8809 88.0869 84.7064 87.506 85.398C88.1099 86.2174 88.471 87.1902 88.5481 88.2051C88.6252 89.2201 88.4151 90.2362 87.9418 91.1374C87.4685 92.0386 86.7512 92.7883 85.8719 93.301C84.9926 93.8137 83.9867 94.0686 82.9693 94.0365C81.952 94.0044 80.9641 93.6867 80.1189 93.1196C79.2736 92.5526 78.6049 91.7591 78.1894 90.8299C77.7738 89.9007 77.6281 88.8733 77.769 87.8653C77.9098 86.8572 78.3315 85.9091 78.9859 85.1294C78.2644 84.1502 77.893 82.9569 77.9313 81.7412C77.9697 80.5255 78.4156 79.358 79.1974 78.4262H79.2006Z" fill="#D0CDE1"/>
<path opacity="0.1" d="M88.7751 82.0834C88.7381 83.2997 88.2908 84.4679 87.506 85.3979C88.1099 86.2173 88.471 87.1901 88.5481 88.205C88.6252 89.22 88.4151 90.2361 87.9418 91.1373C87.4685 92.0385 86.7512 92.7883 85.8719 93.3009C84.9926 93.8136 83.9867 94.0685 82.9693 94.0364C81.952 94.0043 80.9641 93.6866 80.1189 93.1195C79.2736 92.5525 78.6049 91.759 78.1894 90.8298C77.7738 89.9006 77.6281 88.8732 77.769 87.8652C77.9098 86.8571 78.3315 85.909 78.9859 85.1293C78.291 84.1848 88.7942 81.4752 88.7751 82.0834Z" fill="black"/>
</g>
<g opacity="0.2">
<path opacity="0.2" d="M67.8734 98.2288C67.87 98.3429 67.8569 98.4565 67.8343 98.5683C67.0982 98.4513 66.3578 98.3455 65.6133 98.251C65.6133 98.2214 65.6133 98.1907 65.6133 98.1601C65.6202 97.8429 65.7114 97.5334 65.8777 97.2632C66.0956 96.9184 66.4266 96.7027 66.7915 96.7143C67.1563 96.7259 67.4726 96.9618 67.6682 97.3182C67.8162 97.5982 67.887 97.9125 67.8734 98.2288V98.2288Z" fill="#3F3D56"/>
<path opacity="0.2" d="M67.933 96.4221C67.9588 95.6041 67.4734 94.9251 66.8487 94.9053C66.224 94.8856 65.6967 95.5326 65.6708 96.3506C65.645 97.1685 66.1304 97.8475 66.7551 97.8673C67.3798 97.887 67.9071 97.24 67.933 96.4221Z" fill="#3F3D56"/>
<path opacity="0.2" d="M67.9911 94.6115C68.0169 93.7936 67.5315 93.1145 66.9068 93.0948C66.2821 93.075 65.7548 93.7221 65.7289 94.54C65.7031 95.3579 66.1885 96.037 66.8132 96.0567C67.4379 96.0765 67.9652 95.4294 67.9911 94.6115Z" fill="#3F3D56"/>
<path opacity="0.2" d="M68.0472 92.8007C68.0731 91.9828 67.5876 91.3037 66.963 91.284C66.3383 91.2643 65.8109 91.9113 65.7851 92.7292C65.7592 93.5472 66.2447 94.2262 66.8694 94.2459C67.494 94.2657 68.0214 93.6186 68.0472 92.8007Z" fill="#3F3D56"/>
<path opacity="0.2" d="M68.1044 90.9902C68.1302 90.1722 67.6448 89.4932 67.0201 89.4734C66.3954 89.4537 65.8681 90.1008 65.8422 90.9187C65.8164 91.7366 66.3018 92.4157 66.9265 92.4354C67.5512 92.4551 68.0785 91.8081 68.1044 90.9902Z" fill="#3F3D56"/>
<path opacity="0.2" d="M63.1249 78.4262C62.9759 78.2246 62.8416 78.0125 62.723 77.7917L65.7118 77.3972L62.4945 77.32C62.2074 76.639 62.0623 75.9065 62.0679 75.1675C62.0735 74.4285 62.2299 73.6984 62.5273 73.0218L66.7705 75.3962L62.8837 72.346C63.2758 71.7118 63.7945 71.1653 64.4073 70.7406C65.02 70.3159 65.7138 70.0221 66.4453 69.8776C67.1767 69.733 67.9301 69.7408 68.6584 69.9005C69.3866 70.0602 70.0742 70.3684 70.678 70.8057C71.2819 71.2431 71.789 71.8003 72.1679 72.4424C72.5467 73.0846 72.7891 73.798 72.8798 74.538C72.9705 75.2781 72.9077 76.0289 72.6953 76.7435C72.4828 77.4582 72.1253 78.1214 71.645 78.6917C71.8767 79.0054 72.0735 79.3433 72.232 79.6996L68.3093 81.5821L72.4689 80.331C72.7308 81.1953 72.7731 82.1113 72.5917 82.9961C72.4104 83.8809 72.0112 84.7064 71.4303 85.398C72.0342 86.2174 72.3954 87.1902 72.4724 88.2051C72.5495 89.2201 72.3394 90.2362 71.8661 91.1374C71.3929 92.0386 70.6755 92.7883 69.7962 93.301C68.9169 93.8137 67.911 94.0686 66.8936 94.0365C65.8763 94.0044 64.8885 93.6867 64.0432 93.1196C63.1979 92.5526 62.5292 91.7591 62.1137 90.8299C61.6981 89.9007 61.5524 88.8733 61.6933 87.8653C61.8341 86.8572 62.2559 85.9091 62.9102 85.1294C62.1887 84.1502 61.8173 82.9569 61.8556 81.7412C61.894 80.5255 62.3399 79.358 63.1217 78.4262H63.1249Z" fill="#D0CDE1"/>
<path opacity="0.1" d="M72.6994 82.0834C72.6624 83.2997 72.2152 84.4679 71.4303 85.3979C72.0342 86.2173 72.3954 87.1901 72.4724 88.205C72.5495 89.22 72.3394 90.2361 71.8661 91.1373C71.3929 92.0385 70.6756 92.7883 69.7962 93.3009C68.9169 93.8136 67.911 94.0685 66.8936 94.0364C65.8763 94.0043 64.8885 93.6866 64.0432 93.1195C63.1979 92.5525 62.5292 91.759 62.1137 90.8298C61.6981 89.9006 61.5524 88.8732 61.6933 87.8652C61.8341 86.8571 62.2559 85.909 62.9102 85.1293C62.2153 84.1848 72.7185 81.4752 72.6994 82.0834Z" fill="black"/>
</g>
<g opacity="0.2">
<path opacity="0.2" d="M111.786 99.3857C111.778 99.6018 111.752 99.8168 111.709 100.029C110.291 99.8024 108.864 99.6 107.426 99.4216C107.426 99.3645 107.426 99.3064 107.426 99.2471C107.44 98.6364 107.616 98.0402 107.936 97.5201C108.359 96.8569 108.994 96.4413 109.695 96.4624C110.396 96.4836 111.006 96.9394 111.387 97.6258C111.674 98.1665 111.812 98.774 111.786 99.3857V99.3857Z" fill="#3F3D56"/>
<path opacity="0.2" d="M111.901 95.9038C111.95 94.3287 111.015 93.021 109.812 92.983C108.609 92.945 107.593 94.191 107.543 95.7661C107.493 97.3413 108.429 98.649 109.632 98.687C110.835 98.725 111.851 97.479 111.901 95.9038Z" fill="#3F3D56"/>
<path opacity="0.2" d="M112.01 92.4178C112.06 90.8426 111.125 89.5349 109.922 89.4969C108.719 89.4589 107.703 90.7049 107.653 92.2801C107.603 93.8552 108.538 95.1629 109.742 95.2009C110.945 95.239 111.961 93.9929 112.01 92.4178Z" fill="#3F3D56"/>
<path opacity="0.2" d="M112.121 88.9319C112.171 87.3568 111.236 86.0491 110.033 86.0111C108.829 85.973 107.814 87.2191 107.764 88.7942C107.714 90.3693 108.649 91.6771 109.852 91.7151C111.056 91.7531 112.071 90.507 112.121 88.9319Z" fill="#3F3D56"/>
<path opacity="0.2" d="M112.108 85.2874C112.155 83.7114 111.217 82.4046 110.014 82.3685C108.81 82.3324 107.795 83.5807 107.748 85.1566C107.701 86.7325 108.638 88.0393 109.842 88.0754C111.046 88.1115 112.06 86.8633 112.108 85.2874Z" fill="#3F3D56"/>
<path opacity="0.2" d="M102.643 61.2631C102.358 60.8748 102.099 60.4674 101.87 60.0437L107.623 59.2843L101.431 59.1352C100.878 57.8243 100.598 56.4143 100.609 54.9915C100.619 53.5687 100.92 52.163 101.492 50.8604L109.662 55.4304L102.181 49.5585C102.937 48.3405 103.936 47.2915 105.116 46.4766C106.296 45.6617 107.631 45.0986 109.038 44.8222C110.444 44.5459 111.893 44.5623 113.293 44.8703C114.694 45.1784 116.015 45.7716 117.176 46.6129C118.337 47.4542 119.313 48.5256 120.041 49.7603C120.77 50.995 121.237 52.3666 121.412 53.7896C121.588 55.2126 121.468 56.6564 121.061 58.0312C120.654 59.406 119.968 60.6822 119.047 61.7803C119.492 62.3846 119.871 63.0353 120.177 63.721L112.625 67.3476L120.632 64.9362C121.137 66.5982 121.219 68.3597 120.871 70.0615C120.523 71.7632 119.757 73.3513 118.64 74.6821C119.803 76.2595 120.498 78.1322 120.646 80.086C120.794 82.0399 120.39 83.996 119.479 85.7307C118.567 87.4654 117.187 88.9087 115.494 89.8956C113.801 90.8825 111.865 91.3731 109.906 91.3114C107.948 91.2496 106.046 90.638 104.419 89.5464C102.792 88.4549 101.504 86.9274 100.704 85.1388C99.9043 83.3501 99.6238 81.3724 99.8948 79.4318C100.166 77.4912 100.977 75.666 102.237 74.1649C100.849 72.2799 100.134 69.9831 100.208 67.6432C100.281 65.3033 101.139 63.056 102.643 61.262V61.2631Z" fill="#D0CDE1"/>
<path opacity="0.1" d="M121.077 68.3027C121.007 70.6431 120.15 72.8916 118.644 74.6844C119.807 76.2618 120.502 78.1345 120.65 80.0883C120.798 82.0422 120.394 83.9983 119.482 85.733C118.571 87.4677 117.19 88.911 115.498 89.8979C113.805 90.8848 111.869 91.3754 109.91 91.3136C107.952 91.2519 106.05 90.6403 104.423 89.5487C102.796 88.4572 101.508 86.9297 100.708 85.1411C99.9082 83.3524 99.6277 81.3747 99.8987 79.4341C100.17 77.4935 100.981 75.6683 102.241 74.1672C100.893 72.3471 121.114 67.132 121.077 68.3027Z" fill="black"/>
</g>
<path d="M28.6934 99.5721L29.8028 99.569H31.367L33.3447 67.4408L52.9307 34.7574L52.0793 33.8436V31.5295L30.8974 66.6835L28.6934 99.5721Z" fill="#FDD27F"/>
<path opacity="0.1" d="M29.9214 99.5686H31.3671L33.3449 67.4405L52.9308 34.757L52.0794 33.8433L31.8769 66.9508L29.9214 99.5686Z" fill="#74411C"/>
<path d="M25.4243 99.8394L76.1739 103.723L76.2172 103.726L125.332 100.706L125.369 100.703V98.6295L71.2507 97.6364L26.1001 97.593H25.7702L25.7342 97.8257L25.4243 99.8394Z" fill="#FDD27F"/>
<path opacity="0.1" d="M25.4243 99.8394L76.1739 103.723L76.2172 103.726L125.332 100.706L125.369 100.665V98.6728H125.325L76.1739 100.314L26.1001 97.593H26.0927L26.0039 97.6512L25.7342 97.8257L25.4243 99.8394Z" fill="black"/>
<path opacity="0.1" d="M25.4243 99.8396L76.1739 103.723V100.314L26.0039 97.6514L25.7342 97.8259L25.4243 99.8396Z" fill="black"/>
<path d="M52.0728 33.8001L74.4466 57.8142L73.7549 100.055L75.6554 100.285L75.6871 100.289H77.5877L77.8151 59.6281L119.71 73.6224L120.417 98.5398L121.946 98.7111L122.464 98.7693L121.265 71.8943L77.4692 56.5187L53.4551 31.5537H52.0728V33.8001Z" fill="#FDD27F"/>
<path opacity="0.1" d="M77.6426 58.8506L77.815 59.6279L119.71 73.6223L120.417 98.5396L121.946 98.711L120.747 73.104L77.6426 58.8506Z" fill="#74411C"/>
<path opacity="0.1" d="M52.0728 33.8001L74.4466 57.8142L73.7549 100.055L75.6554 100.285L76.1736 56.4319L52.0728 31.5537V33.8001Z" fill="#74411C"/>
<path d="M77.7241 75.803L93.0902 78.8289L93.0955 78.8299L120.009 84.1317L121.241 83.6378L121.236 83.5511L121.156 81.8325L77.74 73.0596L77.7241 75.803Z" fill="#FDD27F"/>
<path opacity="0.1" d="M93.0952 78.8301L120.008 84.1319L121.24 83.638L121.236 83.5513L93.0952 78.8301Z" fill="black"/>
<path d="M94.1245 65.0759L94.5402 87.9563L94.7549 99.6948L96.6469 99.6313L97.8378 99.5911L97.4676 65.407L96.6469 65.1341L96.4671 65.0759H94.1245Z" fill="#FDD27F"/>
<path opacity="0.1" d="M94.1416 65.0706V65.0758L94.5403 87.9563L94.755 99.6947L96.6471 99.6312V65.0706H94.1416Z" fill="black"/>
<path d="M64.487 70.919C64.598 70.9793 64.7041 71.0483 64.8043 71.1252C64.9228 71.229 65.0292 71.3457 65.1216 71.4732C65.5753 72.0602 65.9941 72.7423 65.9497 73.4827C65.9507 73.5904 65.9303 73.6972 65.8898 73.797C65.8494 73.8969 65.7896 73.9877 65.7139 74.0643C65.5267 74.224 65.258 74.2314 65.0127 74.2314C64.7462 74.2314 64.4659 74.2314 64.2353 74.094C64.0048 73.9565 63.8123 73.6889 63.5394 73.6952C63.5009 73.7016 63.4616 73.7016 63.4231 73.6952C63.329 73.6646 63.3099 73.5408 63.2486 73.4626C63.1428 73.3219 62.9197 73.3568 62.7536 73.4181C62.5876 73.4795 62.4035 73.5715 62.2396 73.5006C62.1444 73.4504 62.0667 73.3726 62.0165 73.2775C61.6241 72.6429 61.5405 71.8804 61.4665 71.1432C61.421 70.6948 61.0741 69.1655 62.0313 69.5134C62.4543 69.6657 62.8499 69.9703 63.2348 70.1935L64.487 70.919Z" fill="#856852"/>
<path d="M63.5418 71.0702C63.6273 71.1317 63.7309 71.1628 63.8361 71.1586C63.9414 71.1544 64.0422 71.115 64.1224 71.0469C64.2799 70.9046 64.3803 70.7099 64.4048 70.4991C64.5106 70.4663 64.5645 70.6048 64.6322 70.6894C64.7507 70.8333 64.9918 70.8312 65.0997 70.9845C65.1748 71.0903 65.1579 71.2373 65.2107 71.3568C65.2795 71.5112 65.4498 71.5916 65.5661 71.7164C65.6759 71.8527 65.7553 72.0111 65.7988 72.1807L65.9722 72.701C66.0552 72.9174 66.1086 73.144 66.1309 73.3747C66.1418 73.49 66.1297 73.6064 66.0952 73.717C66.0607 73.8275 66.0045 73.9302 65.9299 74.0188C65.6972 74.2695 65.3154 74.2959 64.9781 74.2885C64.8654 74.2909 64.7529 74.2777 64.6439 74.2494C64.3445 74.1563 64.1531 73.8549 64.0738 73.5513C63.9945 73.2478 64.0029 72.9295 63.9564 72.6185C63.9061 72.3131 63.8173 72.0153 63.692 71.7322C63.5989 71.5123 63.343 71.1844 63.3472 70.9507C63.4234 70.9507 63.4784 71.0205 63.5418 71.0702Z" fill="#856852"/>
<path d="M63.9212 69.999C63.8718 69.8488 63.8429 69.6926 63.8355 69.5347C63.8355 69.2174 63.9804 68.9192 64.1264 68.6357L62.9175 68.7997C62.7716 68.8198 62.6087 68.8494 62.5262 68.971C62.4949 69.0313 62.4785 69.0982 62.4785 69.1661C62.4785 69.2341 62.4949 69.301 62.5262 69.3613C62.5868 69.4819 62.635 69.6084 62.67 69.7388C62.6728 69.8529 62.6859 69.9666 62.7092 70.0783C62.7468 70.1604 62.7995 70.2347 62.8646 70.2973C63.2105 70.6801 63.4696 71.1317 63.7277 71.5791C63.7203 71.5664 64.4564 70.9963 64.4267 70.8102C64.4098 70.7044 64.1972 70.5775 64.1295 70.476C64.036 70.3286 63.9658 70.1677 63.9212 69.999V69.999Z" fill="#D9B59C"/>
<path d="M74.2862 65.8667V66.9084L56.4474 70.388L55.522 70.9485H52.3291V70.3616L69.8559 66.1269L74.2862 65.8667Z" fill="#FDD27F"/>
<path opacity="0.1" d="M74.2862 66.9087L56.4474 70.3882L55.522 70.9488H52.3291L69.986 67.1699L74.2862 66.9087Z" fill="black"/>
<path d="M59.9636 95.4397C59.7649 95.199 59.4905 95.0326 59.1852 94.9677C58.8798 94.9028 58.5615 94.9432 58.282 95.0822C58.2222 95.1104 58.1695 95.1516 58.1276 95.2028C58.0219 95.3508 58.0896 95.555 58.0991 95.7379C58.1234 96.1842 57.768 96.547 57.4486 96.859C57.2773 97.0261 57.1028 97.2048 57.0256 97.4322C56.9484 97.6596 57.0055 97.9483 57.2128 98.0668C57.3033 98.1121 57.4017 98.1394 57.5026 98.1472C57.8406 98.2131 58.1873 98.2228 58.5285 98.1757C58.8658 98.1112 59.1969 97.9198 59.3428 97.6088C59.371 97.5245 59.4176 97.4476 59.4793 97.3836C59.6654 97.2366 59.951 97.4089 60.1625 97.3042C60.337 97.2175 60.3444 97.0811 60.3465 96.9013C60.3528 96.4042 60.2788 95.8416 59.9636 95.4397Z" fill="#504339"/>
<path d="M62.5025 95.4207C62.6326 95.7633 62.6506 96.1367 62.6675 96.5026C62.677 96.7141 62.6833 96.9405 62.5691 97.1192C62.4549 97.2979 62.2317 97.3921 62.0181 97.4365C61.5771 97.5274 61.0662 97.4418 60.7817 97.0917C60.5639 96.8241 60.5184 96.4571 60.5586 96.1102C60.5924 95.8257 60.6644 95.4926 60.4602 95.2906C60.4074 95.2367 60.3386 95.1986 60.29 95.1404C60.1842 95.0114 60.2011 94.8168 60.2582 94.6581C60.3326 94.5064 60.3884 94.3463 60.4243 94.1812C60.4327 94.1029 61.8563 94.2362 61.9874 94.3007C62.1662 94.3885 62.1387 94.5355 62.1926 94.7131C62.2677 94.9606 62.4115 95.1838 62.5025 95.4207Z" fill="#504339"/>
<path d="M62.7639 80.2273C63.0431 80.4082 63.151 80.7635 63.1943 81.0935C63.3139 81.9978 63.1044 82.9115 63.0886 83.8243C63.0738 85.1029 63.4439 86.4048 63.1277 87.6433C62.9384 88.3836 63.0992 89.2297 62.9215 89.9774C62.8686 90.1995 62.7713 90.409 62.7205 90.6311C62.6148 91.1123 62.7258 91.6157 62.8749 92.0863C62.9226 92.2132 62.9528 92.3459 62.9648 92.4808C62.9577 92.6886 62.905 92.8922 62.8104 93.0773L62.1759 94.5781C62.105 94.7462 61.8258 94.7737 61.6471 94.7959C61.3107 94.8361 60.9353 94.8647 60.6677 94.6563C60.4001 94.448 60.3356 94.099 60.2944 93.7732C60.2153 93.1479 60.1799 92.5178 60.1886 91.8875C60.2002 91.723 60.1856 91.5577 60.1452 91.3978C60.0871 91.217 59.9591 91.0604 59.9242 90.869C59.8798 90.6215 60.0056 90.3783 60.0522 90.1287C60.0841 89.9007 60.0805 89.6692 60.0416 89.4423C60.0004 89.1039 59.9528 88.7654 59.8988 88.4291C59.8227 87.9585 59.9316 87.4942 60.0046 87.0225C60.0733 86.5793 59.9855 86.1277 59.8988 85.6878C59.9063 86.0449 59.8618 86.4011 59.7666 86.7454C59.7106 86.9135 59.6302 87.0743 59.5815 87.2456C59.3647 88.0145 59.8269 88.8215 59.7613 89.6179C59.7307 89.9901 59.5847 90.3582 59.626 90.7252C59.6545 90.9938 59.7793 91.2402 59.865 91.4962C59.9506 91.7521 59.9951 92.0451 59.865 92.2841C59.5213 92.9335 59.7783 93.8166 60.086 94.4829C60.1485 94.601 60.2029 94.7233 60.2489 94.8488C60.3398 95.1492 60.2637 95.4717 60.288 95.7848C60.1995 95.7993 60.1087 95.7934 60.0228 95.7676C59.9368 95.7417 59.8579 95.6966 59.792 95.6357C59.7455 95.587 59.7074 95.5299 59.6619 95.4791C59.5349 95.358 59.3844 95.2641 59.2198 95.2031C59.1232 95.149 59.0131 95.1237 58.9026 95.1301C58.7863 95.1626 58.6818 95.2275 58.6011 95.3173C58.4965 95.4093 58.3856 95.4938 58.269 95.5701C58.2194 95.6082 58.1614 95.634 58.0998 95.6452C58.0689 95.65 58.0372 95.6449 58.0093 95.6307C57.9814 95.6164 57.9587 95.5937 57.9444 95.5659C57.9377 95.5482 57.9338 95.5297 57.9327 95.5109C57.8934 95.1915 57.8726 94.8702 57.8703 94.5484C57.8703 93.9953 57.2083 93.6146 57.1247 93.0678C57.0581 92.6268 57.1818 92.1773 57.1406 91.7331C57.1205 91.5046 57.057 91.2804 57.0612 91.052C57.0612 90.9039 57.0951 90.759 57.1067 90.612C57.1164 90.4488 57.1139 90.2852 57.0993 90.1223L57.0665 89.6115C57.0348 89.107 56.9999 88.592 56.8011 88.1309C56.5653 87.5924 56.4257 87.0168 56.3886 86.4302C56.3675 86.06 56.3812 85.6899 56.3389 85.3187C56.3008 84.9834 56.2162 84.6502 56.2405 84.3139C56.2606 84.0538 56.3463 83.802 56.3664 83.5419C56.4076 83.0416 56.2173 82.5551 56.0681 82.076C55.919 81.5969 55.809 81.066 56.0047 80.6038C56.0327 80.528 56.0792 80.4603 56.1401 80.4071C56.2151 80.3575 56.3005 80.3256 56.3897 80.314C58.2043 79.9329 60.0642 79.8142 61.9125 79.9618C62.2138 79.9789 62.5063 80.0701 62.7639 80.2273Z" fill="#856852"/>
<path d="M56.7592 68.9943C57.695 68.9943 58.4535 68.2357 58.4535 67.3C58.4535 66.3643 57.695 65.6057 56.7592 65.6057C55.8235 65.6057 55.0649 66.3643 55.0649 67.3C55.0649 68.2357 55.8235 68.9943 56.7592 68.9943Z" fill="#D9B59C"/>
<path d="M56.4314 69.4163C56.4558 69.5132 56.4558 69.6145 56.4314 69.7114C56.4048 69.7791 56.3673 69.8419 56.3204 69.8975C56.1564 70.1091 55.9749 70.3065 55.7778 70.4877C55.8782 70.7119 56.059 70.8904 56.2844 70.9879C56.5083 71.0832 56.7431 71.1504 56.9835 71.1878C57.1035 71.2194 57.2284 71.228 57.3516 71.2132C57.4651 71.1847 57.5726 71.1359 57.6688 71.0694L58.6101 70.5057C58.7521 70.4287 58.8837 70.3338 59.0014 70.2233C59.1741 70.0458 59.2718 69.8088 59.2743 69.5612C59.2787 69.5169 59.2666 69.4725 59.2405 69.4364C59.2044 69.405 59.1591 69.3861 59.1114 69.3825C58.7804 69.3095 58.5192 69.0409 58.3711 68.7363C58.2372 68.424 58.1506 68.0936 58.1141 67.7559L57.1104 68.2847C56.9613 68.364 56.8132 68.4433 56.6588 68.5121C56.5605 68.5565 56.3616 68.5935 56.2918 68.6834C56.1586 68.8494 56.3965 69.2164 56.4314 69.4163Z" fill="#D9B59C"/>
<path d="M55.7841 70.1798C55.6412 70.297 55.5297 70.4478 55.4595 70.6187C55.3939 70.8302 55.4595 71.0534 55.5187 71.2628C55.7963 72.1554 56.0083 73.067 56.1532 73.9904C56.2421 74.625 56.2749 75.269 56.3182 75.911C56.4071 77.2203 56.5361 79.3081 56.7085 80.6089C57.3431 80.6375 57.9618 80.4524 58.591 80.3847C59.7671 80.2599 60.9781 80.5455 62.1298 80.279C61.8506 79.1759 61.5714 77.2922 61.2922 76.1902C61.1686 75.756 61.083 75.3119 61.0362 74.8629C61.0119 74.5403 61.0267 74.2167 61.031 73.892C61.0405 73.2575 61.0056 72.6229 60.9707 71.9883C60.9305 71.248 60.8903 70.5077 60.7147 69.7832C60.7025 69.6909 60.6592 69.6055 60.592 69.541C60.4863 69.4638 60.3488 69.4913 60.2229 69.5082C59.8376 69.5572 59.4475 69.4647 59.1251 69.248C58.9855 69.1529 58.7983 69.0365 58.6682 69.1423C58.6127 69.2061 58.5761 69.2841 58.5625 69.3676C58.5049 69.5172 58.4161 69.6528 58.3019 69.7653C58.1877 69.8778 58.0509 69.9647 57.9004 70.0201C57.599 70.1293 57.2834 70.1941 56.9634 70.2126C56.8654 70.2336 56.7633 70.2221 56.6725 70.1798C56.5224 70.0878 56.5118 69.7568 56.3225 69.7345C56.1564 69.7155 55.8962 70.073 55.7841 70.1798Z" fill="#856852"/>
<path d="M58.2865 72.7627C57.8962 72.3893 57.7249 71.8478 57.4404 71.3878C57.2467 71.0784 56.9992 70.8062 56.7096 70.584C56.564 70.4879 56.4305 70.3746 56.3119 70.2466C56.2114 70.1229 56.1353 69.9579 55.983 69.9103C55.9201 69.8966 55.8547 69.8984 55.7927 69.9155C55.7306 69.9327 55.6736 69.9646 55.6266 70.0087C55.5333 70.0975 55.4451 70.1914 55.3622 70.29C54.9138 70.7543 54.1258 70.8188 53.7705 71.3561C53.6746 71.47 53.6094 71.6065 53.5812 71.7527C53.4788 72.5346 53.681 73.326 54.1459 73.9631C54.2359 74.1107 54.3742 74.2228 54.5372 74.2804C54.5151 74.4776 54.5413 74.6772 54.6134 74.862C54.8092 75.5314 55.0498 76.1868 55.3336 76.8239C55.2658 77.0731 55.2184 77.3274 55.1919 77.5843C55.1179 78.2305 55.1866 78.8863 55.1168 79.5335C55.0597 80.0623 54.9053 80.5774 54.9 81.1073C54.9 81.1919 54.9074 81.2923 54.9804 81.3357C55.0192 81.3556 55.0627 81.3648 55.1062 81.3621L56.4071 81.4013C57.1622 81.4235 57.9248 81.4457 58.6683 81.3061C58.7673 81.2914 58.8633 81.2611 58.9528 81.2162C59.2045 81.0755 59.288 80.7582 59.3282 80.4759C59.3807 80.1096 59.4016 79.7394 59.3906 79.3696C59.5482 79.8677 59.7354 80.3828 60.2113 80.5985C60.463 80.7128 60.7507 80.7043 61.0268 80.6969C61.6217 80.6704 62.2146 80.6093 62.8025 80.5139C62.8387 80.5184 62.8755 80.5144 62.9099 80.5021C62.9443 80.4898 62.9753 80.4697 63.0005 80.4433C63.0257 80.4168 63.0443 80.3849 63.0549 80.35C63.0655 80.315 63.0678 80.2781 63.0616 80.2421L63.0679 79.6647C63.0806 78.4918 62.7898 77.3707 62.6766 76.2031C62.6407 75.835 62.6438 75.4628 62.5539 75.1021C62.5169 74.9509 62.463 74.8028 62.4302 74.6505C62.402 74.5014 62.3843 74.3505 62.3773 74.1989L62.2948 73.0355C62.2557 72.4972 62.1996 71.9779 62.1584 71.4407C62.1357 70.9175 62.0599 70.398 61.9321 69.8902C61.8401 69.5729 61.6486 69.2133 61.3176 69.1742C61.141 69.1541 60.9696 69.2313 60.8015 69.2852C60.3882 69.4154 59.9446 69.4135 59.5323 69.28C59.405 69.2297 59.2723 69.1942 59.1368 69.1742C59.0686 69.1649 58.9992 69.1739 58.9356 69.2003C58.8721 69.2267 58.8167 69.2695 58.7751 69.3244C58.7341 69.407 58.7148 69.4987 58.719 69.5909C58.6693 70.6475 58.5773 71.7357 58.2865 72.7627Z" fill="#D0CDE1"/>
<path d="M56.5847 72.794C56.0972 72.28 55.5969 71.7565 54.9687 71.4297C54.7212 71.3007 54.4399 71.2034 54.166 71.252C53.8921 71.3007 53.6372 71.5386 53.6499 71.8168C53.6583 71.9892 53.763 72.1415 53.7958 72.3107C53.8339 72.5011 53.7789 72.7041 53.8381 72.8881C53.8863 73.0094 53.9582 73.1198 54.0496 73.2128L54.7984 74.1002C55.1157 74.4703 55.433 74.8458 55.8412 75.1017C56.2495 75.3577 56.7783 75.4772 57.2267 75.2953C57.5458 75.147 57.811 74.9035 57.9861 74.5983C58.1722 74.3022 58.3034 73.9785 58.4779 73.6729C58.7495 73.1845 59.1079 72.7498 59.5355 72.39C59.3155 72.3329 59.0395 72.2525 58.9009 72.0727C58.8615 72.0156 58.8278 71.9546 58.8004 71.8908L58.6291 71.5206C58.5708 71.5176 58.5126 71.5267 58.458 71.5472C58.4034 71.5678 58.3536 71.5994 58.3118 71.6402C58.2384 71.7251 58.1596 71.8053 58.076 71.8802C57.9269 71.9923 57.7249 72.023 57.5895 72.151C57.5371 72.2059 57.4897 72.2654 57.4478 72.3287C57.3454 72.4632 57.2154 72.5744 57.0666 72.6546C56.9177 72.7349 56.7534 72.7824 56.5847 72.794V72.794Z" fill="#856852"/>
<path d="M59.5744 70.5827C59.9414 69.9133 59.9245 69.1105 60.0292 68.3543C60.0405 68.1541 60.1108 67.9616 60.2312 67.8012C60.4427 67.5622 60.816 67.559 61.1354 67.5897C61.2296 67.6003 61.347 67.6447 61.3417 67.7388C61.3343 67.7725 61.3178 67.8036 61.2941 67.8287C60.9845 68.2283 60.8025 68.7118 60.7716 69.2163C60.9377 69.3316 61.1947 69.0947 61.3544 69.2163C61.4601 69.3051 61.4115 69.4807 61.348 69.6076C61.2007 69.9016 61.0487 70.1935 60.8922 70.4833C60.7672 70.7387 60.6043 70.9737 60.4089 71.1803C60.2745 71.3093 60.117 71.4108 59.9805 71.5378C59.6632 71.8349 59.4718 72.2548 59.144 72.5446C59.1163 72.5746 59.0788 72.5937 59.0382 72.5985C58.9965 72.5956 58.9572 72.578 58.9271 72.5488C58.7634 72.4156 58.6275 72.2514 58.5274 72.0655C58.4026 71.8349 58.4216 71.7673 58.6183 71.6044C58.9864 71.3135 59.3449 71.0015 59.5744 70.5827Z" fill="#D9B59C"/>
<path d="M55.9712 72.3397C56.0347 72.3788 56.1129 72.4232 56.1827 72.3904C56.2113 72.3732 56.2355 72.3497 56.2536 72.3217C56.3745 72.1603 56.4754 71.9849 56.554 71.7992C56.5675 71.773 56.5751 71.7441 56.5762 71.7146C56.5762 71.6469 56.5159 71.5972 56.4598 71.5581C56.1595 71.3667 55.8366 71.2132 55.4985 71.1012C55.2192 70.9954 54.9273 70.9034 54.6312 70.9299C54.5199 70.9373 54.4113 70.9672 54.3119 71.0178C54.2125 71.0683 54.1243 71.1384 54.0527 71.2239C53.8412 71.4957 54.1955 71.5782 54.4176 71.6766C54.9316 71.9103 55.4879 72.0457 55.9712 72.3397Z" fill="#D0CDE1"/>
<path opacity="0.1" d="M55.6379 74.1373C55.6343 74.1614 55.6365 74.1861 55.6442 74.2092C55.6519 74.2324 55.665 74.2534 55.6823 74.2705C55.713 74.1204 55.6728 73.9617 55.7045 73.8105C55.7511 73.5831 55.9721 73.4118 55.9911 73.1833C55.5861 73.104 55.6411 73.8919 55.6379 74.1373Z" fill="black"/>
<path opacity="0.2" d="M74.2863 65.8667V66.9084L69.986 67.1697L69.856 66.1269L74.2863 65.8667Z" fill="black"/>
<path d="M55.234 67.5519C55.5027 67.3329 55.3472 66.8739 55.5291 66.5799C55.6349 66.4191 55.8136 66.3345 55.9892 66.2626C56.2011 66.1635 56.4281 66.1006 56.6608 66.0765C56.7773 66.0653 56.8949 66.0805 57.0047 66.1209C57.1146 66.1614 57.2139 66.2261 57.2953 66.3102C57.3641 66.3885 57.4106 66.4837 57.4751 66.5651C57.555 66.6601 57.6592 66.7317 57.7765 66.7723C57.8938 66.8129 58.0199 66.821 58.1414 66.7957C58.2821 66.7639 58.428 66.6571 58.4185 66.5133C58.4026 66.4258 58.358 66.3461 58.2916 66.2869L57.9891 65.9517C57.6454 65.5709 57.2636 65.1669 56.7591 65.0717C56.408 65.0051 56.0484 65.0992 55.71 65.2124C55.5735 65.2579 55.4202 65.3256 55.3821 65.4641C55.3567 65.5593 55.3948 65.663 55.3726 65.7592C55.3292 65.9506 55.0839 66.0151 54.9696 66.1759C54.8554 66.3367 54.8903 66.527 54.8575 66.7047C54.8247 66.8824 54.7296 67.0558 54.7179 67.2399C54.7105 67.3509 54.7666 67.5571 54.8914 67.5973C55.0162 67.6375 55.1568 67.4197 55.234 67.5519Z" fill="#74411C"/>
<path d="M58.3161 66.3609C58.2269 65.8956 58.0346 65.4561 57.7534 65.0748C57.5034 64.7186 57.1555 64.4424 56.7519 64.2795C56.5501 64.2007 56.3331 64.1686 56.1171 64.1856C55.9012 64.2026 55.6919 64.2684 55.5049 64.3779C55.2275 64.5759 55.0115 64.8483 54.882 65.1637C54.6081 65.7538 54.5066 66.4751 54.8249 67.042C54.9518 66.8876 55.1697 66.9574 55.3622 66.9013C55.6033 66.8326 55.8074 66.6718 56.0369 66.5714C56.7297 66.2657 57.5757 66.5132 58.3161 66.3609Z" fill="#FED253"/>
<path opacity="0.1" d="M54.9866 66.3281C54.9623 66.1377 54.9465 65.9167 55.0818 65.7813C55.0886 65.773 55.0971 65.7664 55.1069 65.762C55.1166 65.7576 55.1272 65.7555 55.1379 65.7559C55.1473 65.759 55.156 65.7639 55.1635 65.7705C55.1709 65.777 55.177 65.785 55.1812 65.794C55.2594 65.9173 55.3259 66.0476 55.3801 66.1832C55.3013 66.165 55.2188 66.1709 55.1434 66.2002C55.0679 66.2294 55.003 66.2806 54.957 66.3471" fill="black"/>
<path opacity="0.1" d="M57.4584 65.7906L57.4203 65.413C57.4142 65.3819 57.4167 65.3497 57.4277 65.32C57.4437 65.2951 57.4683 65.277 57.4968 65.2691C57.5253 65.2613 57.5557 65.2644 57.5821 65.2777C57.6342 65.3065 57.677 65.3494 57.7059 65.4014C57.7939 65.5366 57.867 65.6809 57.9237 65.8319C57.7534 65.799 57.5782 65.8012 57.4087 65.8382" fill="black"/>
<path opacity="0.1" d="M58.4052 81.1145V81.9775L57.6765 82.0262H53.8438V81.1145H58.4052Z" fill="black"/>
<path d="M58.4047 81.1145V82.0261H53.8432L41.7251 66.8462V66.1292H44.2655L58.4047 81.1145Z" fill="#FDD27F"/>
<path opacity="0.1" d="M58.4047 81.1145V82.0261H53.8432L41.7251 66.8462V66.1292H44.2655L58.4047 81.1145Z" fill="black"/>
<path opacity="0.1" d="M58.4047 81.1145V82.0261H53.8432L41.7251 66.8462V66.1292L53.9088 81.1145H58.4047Z" fill="black"/>
<path d="M43.3138 96.3295C43.3218 96.3724 43.3208 96.4164 43.311 96.4589C43.3012 96.5015 43.2827 96.5415 43.2567 96.5765C43.2307 96.6116 43.1977 96.6409 43.1599 96.6626C43.122 96.6843 43.0801 96.698 43.0367 96.7028C42.7427 96.8022 42.4307 96.9006 42.2224 97.1258C42.014 97.3511 41.9728 97.7689 42.2224 97.9518C42.35 98.0288 42.4964 98.0687 42.6454 98.0671C43.1245 98.0999 43.6237 98.0935 44.0584 97.8905C44.3693 97.7467 44.6623 97.5013 45.0039 97.5235C45.1805 97.5341 45.3688 97.6166 45.5264 97.5362C45.6839 97.4558 45.7284 97.2316 45.7294 97.0444C45.7334 96.6536 45.6745 96.2647 45.5549 95.8927C45.539 95.8419 44.8664 95.8028 44.786 95.7869L43.9706 95.6811C43.8162 95.661 43.483 95.5447 43.3614 95.6737C43.2398 95.8028 43.3138 96.1761 43.3138 96.3295Z" fill="#504339"/>
<path d="M48.1796 93.6894C48.2142 93.8799 48.2702 94.0658 48.3467 94.2436C48.4599 94.5313 48.6048 94.837 48.8819 94.9766C49.1336 95.1024 49.4424 95.0569 49.6984 94.9374C49.8052 94.8932 49.8988 94.8222 49.9702 94.7312C50.0527 94.5873 50.0896 94.4217 50.0759 94.2563C50.0759 93.847 50.0516 93.424 49.8644 93.0602C49.7037 92.7429 49.4234 92.47 49.4192 92.1189L48.4557 92.305C48.4041 92.31 48.355 92.3294 48.314 92.3611C48.2834 92.3932 48.2622 92.4331 48.2526 92.4764C48.1497 92.8722 48.125 93.2842 48.1796 93.6894V93.6894Z" fill="#504339"/>
<path d="M36.6738 83.6424C36.6336 83.983 36.6505 84.3479 36.8282 84.6419C37.0059 84.9359 37.3803 85.1305 37.7039 85.0131C37.7205 85.0089 37.7361 85.0013 37.7497 84.991C37.7633 84.9806 37.7747 84.9677 37.7832 84.9528C37.7919 84.9171 37.787 84.8794 37.7695 84.8471C37.6266 84.4658 37.6384 84.0437 37.8023 83.671C37.8234 83.6223 37.8689 83.5652 37.9186 83.5843C37.9394 83.5948 37.9561 83.6119 37.9662 83.6329C38.0174 83.7215 38.043 83.8225 38.0403 83.9248C38.0253 84.0175 38.0225 84.1117 38.0318 84.2051C38.0519 84.296 38.1492 84.3817 38.2338 84.3426C38.2583 84.3275 38.2794 84.3077 38.2959 84.2843C38.3125 84.2608 38.3241 84.2342 38.33 84.2061C38.5659 83.524 38.4591 82.7784 38.3512 82.0645C38.3521 82.0481 38.3494 82.0317 38.3432 82.0165C38.3371 82.0012 38.3277 81.9875 38.3157 81.9763C38.3037 81.9651 38.2894 81.9567 38.2738 81.9517C38.2582 81.9466 38.2416 81.945 38.2253 81.9471C37.7261 81.8974 37.4533 81.7779 37.1677 82.2422C36.9224 82.6335 36.6738 83.1718 36.6738 83.6424Z" fill="#D9B59C"/>
<path d="M42.5103 81.9065C42.3623 82.522 42.2131 83.145 42.2036 83.7774C42.2062 84.1714 42.2359 84.5647 42.2925 84.9545L42.4035 85.8704C42.4416 86.1792 42.4786 86.487 42.5325 86.7927C42.5669 86.9501 42.5857 87.1106 42.5886 87.2718C42.5782 87.4306 42.5531 87.5882 42.5135 87.7424C42.447 88.0663 42.4098 88.3954 42.4024 88.726C42.3908 89.2548 42.4564 89.7836 42.4976 90.3124C42.58 91.3662 42.5676 92.4252 42.4606 93.4768C42.4179 93.7606 42.4795 94.0503 42.6341 94.2922C42.6968 94.3685 42.7484 94.4532 42.7874 94.5439C42.8667 94.7861 42.6817 95.0283 42.6341 95.2768C42.6036 95.4706 42.6513 95.6686 42.7668 95.8272C42.8822 95.9859 43.0558 96.0922 43.2496 96.1229C44.0957 96.2234 44.965 96.1779 45.7276 96.565C45.808 96.3302 45.6324 96.0637 45.7128 95.8247C45.7635 95.6766 45.9031 95.5804 45.9983 95.4556C46.1262 95.2654 46.1899 95.0394 46.1802 94.8104C46.184 94.5116 46.1309 94.2148 46.0237 93.9358C45.9338 93.7031 45.8048 93.4736 45.8122 93.224C45.8122 93.1013 45.8556 92.9723 45.8058 92.8591C45.7718 92.7941 45.7254 92.7363 45.6694 92.6889C45.3533 92.3426 45.1591 91.9025 45.1163 91.4356C45.075 90.9722 45.09 90.5056 45.1607 90.0459C45.2125 89.608 45.2823 89.1458 45.5605 88.8042C45.4315 87.7684 45.5073 86.7173 45.7836 85.7107C45.8111 85.6177 45.8545 85.5098 45.9497 85.4876C45.9875 85.4837 46.0257 85.489 46.061 85.503C46.0964 85.517 46.1278 85.5392 46.1527 85.5679C46.3188 85.7234 46.3981 85.9487 46.47 86.1644C46.5493 86.3982 46.6297 86.6478 46.5694 86.8868C46.5441 86.9925 46.4933 87.0856 46.4637 87.1872C46.3993 87.3912 46.4106 87.6116 46.4954 87.808C46.5367 87.8797 46.5627 87.9593 46.5716 88.0417C46.5618 88.1124 46.5403 88.181 46.5081 88.2448C46.4689 88.3699 46.4564 88.5019 46.4715 88.6322C46.4867 88.7625 46.529 88.8881 46.5959 89.001C46.7307 89.2255 46.897 89.4296 47.0898 89.607C46.9977 90.0129 47.0215 90.4365 47.1585 90.8296C47.1684 90.8473 47.1747 90.8668 47.1771 90.8869C47.1794 90.907 47.1778 90.9275 47.1723 90.947C47.1532 90.9872 47.1046 91.002 47.0665 91.0305C46.9608 91.1172 47.0263 91.2812 47.0972 91.3943C47.2914 91.7049 47.5059 92.0024 47.7392 92.2848C47.9507 92.5376 47.9316 93.0252 48.2468 93.1161C48.3793 93.1447 48.5163 93.1447 48.6487 93.1161C48.9596 93.0685 49.3065 92.9786 49.4588 92.7037C49.5212 92.5905 49.5466 92.453 49.6439 92.3684C49.7412 92.2838 49.8671 92.269 49.921 92.1674C49.975 92.0659 49.9147 91.9327 49.9327 91.8153C49.9506 91.6979 50.0532 91.6037 50.086 91.48C50.1643 91.1944 49.8311 90.9597 49.7856 90.6678C49.7201 90.2447 50.2531 89.9274 50.2309 89.5044C50.1844 88.5853 50.1548 87.662 50.1072 86.743C50.0474 85.9197 50.039 85.0935 50.0818 84.2692C50.1188 83.7563 50.1875 83.219 49.9993 82.742C49.7285 82.0694 48.9819 81.6918 48.2595 81.6199C47.5372 81.548 46.8169 81.7193 46.1009 81.8314C44.9126 82.0145 43.7053 82.0398 42.5103 81.9065V81.9065Z" fill="#856852"/>
<path d="M44.6567 71.798C45.5924 71.798 46.351 71.0395 46.351 70.1037C46.351 69.168 45.5924 68.4094 44.6567 68.4094C43.721 68.4094 42.9624 69.168 42.9624 70.1037C42.9624 71.0395 43.721 71.798 44.6567 71.798Z" fill="#D9B59C"/>
<path d="M43.967 72.1142C43.9095 72.2482 43.8127 72.3616 43.6894 72.4396C43.5662 72.5176 43.4222 72.5564 43.2764 72.551C43.2151 72.8048 43.3621 73.0607 43.5302 73.2606C43.8794 73.667 44.3307 73.9728 44.8375 74.1466C45.3442 74.3205 45.8882 74.356 46.4133 74.2495C46.6176 74.2129 46.8115 74.132 46.9812 74.0126C47.2101 73.8215 47.3637 73.5554 47.4149 73.2617C47.4635 72.97 47.4774 72.6735 47.4561 72.3786C47.462 72.3203 47.4454 72.262 47.4096 72.2157C47.3673 72.1829 47.315 72.1658 47.2615 72.167C46.904 72.1353 46.5307 72.1216 46.2166 71.946C45.9025 71.7704 45.6793 71.3738 45.8306 71.0481C45.8062 71.0989 45.1886 71.1232 45.1071 71.1338C44.8523 71.1697 44.5974 71.2099 44.3436 71.2564C44.2216 71.2631 44.101 71.2859 43.985 71.3241C43.8317 71.4035 43.8888 71.3643 43.9247 71.5082C43.9787 71.7281 44.058 71.8857 43.967 72.1142Z" fill="#D9B59C"/>
<path d="M45.257 73.1441C45.0288 73.1467 44.8011 73.1215 44.579 73.069C44.3548 73.0166 44.1572 72.8847 44.0227 72.6978C43.9445 72.5793 43.8937 72.4302 43.7689 72.3635C43.5648 72.2578 43.3321 72.4365 43.1693 72.6005C43.021 72.7621 42.8491 72.9005 42.6595 73.0108C42.4332 73.1303 42.1687 73.1726 41.9551 73.3133C41.7882 73.4394 41.645 73.5941 41.5321 73.7702L40.0334 75.8114C39.4316 76.6321 38.9081 77.5131 38.3719 78.3792C37.9076 79.1291 37.6644 79.9921 37.3143 80.8012C37.2866 80.8507 37.2751 80.9077 37.2815 80.9641C37.2942 81.0191 37.3608 81.0635 37.4074 81.0317C37.2498 81.1883 37.3883 81.4548 37.3513 81.6748C37.3092 81.8287 37.2215 81.9662 37.0996 82.0693C37.3324 82.0389 37.5687 82.05 37.7976 82.102C38.0342 82.1691 38.2575 82.2764 38.4576 82.4193C38.5856 82.3992 38.5739 82.1718 38.6691 82.0872C38.7262 82.0375 38.8108 82.0439 38.8859 82.0291C39.1683 81.9741 39.2804 81.6346 39.4972 81.4432C39.6781 81.2835 39.934 81.2316 40.1254 81.0814C40.4364 80.8371 40.503 80.4025 40.6659 80.0418C40.8044 79.7362 41.0223 79.4697 41.1439 79.1566C41.2232 78.9535 41.2613 78.7336 41.3745 78.5464C41.5553 78.2439 41.8959 78.0831 42.2206 77.9382C42.4257 77.8462 42.6436 77.751 42.8647 77.7658C42.853 78.2576 42.7906 78.742 42.8974 79.2222C42.9345 79.3914 42.9863 79.5564 43.0307 79.7245C43.2327 80.4818 43.2803 81.2708 43.2898 82.0513C43.7757 81.9401 44.272 81.8805 44.7705 81.8736C45.1629 81.862 45.5542 81.9127 45.9465 81.9053C46.4119 81.8969 46.872 81.807 47.3373 81.7752C47.8027 81.7435 48.2892 81.7752 48.7006 81.9868C48.6672 81.3165 48.6859 80.6447 48.7566 79.9773L48.8687 78.926C48.894 78.6206 48.941 78.3174 49.0094 78.0186C49.0707 77.7775 49.1596 77.5448 49.2273 77.3047C49.4652 76.4586 49.4219 75.5554 49.3764 74.6744C49.3531 74.2218 49.1786 73.7765 48.9734 73.3736C48.8992 73.2239 48.8143 73.0797 48.7196 72.9421C48.4717 72.6005 48.1412 72.3272 47.7592 72.1478C47.3771 71.9684 46.9558 71.8887 46.5346 71.9162C46.4808 71.9178 46.4277 71.9293 46.378 71.95C46.2888 72.0072 46.2191 72.0902 46.1782 72.188C45.9593 72.5813 45.6419 72.9108 45.257 73.1441Z" fill="#856852"/>
<path d="M43.1671 70.6654C43.2147 70.5596 43.3426 70.5205 43.4209 70.4359C43.5711 70.2751 43.5034 70.0181 43.5267 69.8013C43.5647 69.4841 43.8281 69.2186 44.1295 69.1054C44.4369 69.0068 44.764 68.9861 45.0813 69.0451C45.2341 69.0563 45.3817 69.1054 45.5107 69.1879C45.5657 69.2281 45.6165 69.2799 45.6683 69.3169C45.7628 69.374 45.8758 69.392 45.9833 69.3669C46.0908 69.3418 46.1842 69.2757 46.2437 69.1826C45.8693 68.7321 45.4547 68.2562 44.8857 68.1176C44.6905 68.0778 44.4916 68.059 44.2924 68.0616C44.029 68.0563 43.7572 68.052 43.514 68.1525C43.1829 68.2889 42.9503 68.6031 42.8307 68.9415C42.7262 69.2845 42.6703 69.6405 42.6647 69.9991C42.643 70.2383 42.643 70.4791 42.6647 70.7183C42.7056 71.045 42.827 71.3564 43.0179 71.6247C43.0438 71.6663 43.0803 71.7003 43.1237 71.723C43.606 71.9345 43.1279 70.7532 43.1671 70.6654Z" fill="#74411C"/>
<path d="M46.1881 68.9212C46.1299 68.4231 45.7745 68.0117 45.397 67.6807C45.0926 67.3936 44.7301 67.1754 44.3341 67.0408C43.9353 66.9234 43.4763 66.9488 43.1347 67.1868C42.8597 67.3782 42.6852 67.6828 42.5509 67.9895C42.3745 68.3514 42.2871 68.7503 42.296 69.1529C42.3225 69.5526 42.5171 69.9577 42.864 70.1597C42.9888 69.9757 43.2056 69.8805 43.4139 69.8054C44.322 69.4609 45.2481 69.1657 46.1881 68.9212V68.9212Z" fill="#FED253"/>
<path opacity="0.1" d="M42.9803 68.7139C43.0141 68.7139 43.0363 68.7488 43.0532 68.7774C43.1393 68.9115 43.2133 69.0531 43.2743 69.2004C43.1505 69.2269 42.938 69.2565 42.8766 69.1475C42.8438 69.0925 42.883 68.7086 42.9803 68.7139Z" fill="black"/>
<path opacity="0.1" d="M45.391 68.4749C45.3657 68.4992 45.336 68.4495 45.336 68.4135V68.0032C45.3354 67.9918 45.3379 67.9804 45.3435 67.9704C45.3478 67.9654 45.3532 67.9613 45.3592 67.9584C45.3652 67.9555 45.3717 67.9538 45.3784 67.9535C45.464 67.944 45.5349 68.0169 45.5899 68.0867C45.6733 68.1999 45.7459 68.3206 45.8067 68.4474L45.3593 68.4336" fill="black"/>
<path d="M50.9741 75.2699C51.0714 75.1775 51.1753 75.0923 51.285 75.015C51.578 74.8193 51.9323 74.7421 52.2612 74.6173C52.5901 74.4925 52.9243 74.2905 53.0523 73.9627C53.1164 73.7577 53.1372 73.5416 53.1136 73.3281C53.1167 73.2387 53.1008 73.1497 53.0671 73.0669C53.0268 72.9937 52.9695 72.9313 52.9 72.885C52.4537 72.555 51.8551 72.5286 51.3009 72.5624C50.0791 72.6382 48.8815 72.9371 47.7674 73.4444C47.7085 73.4639 47.6569 73.5008 47.6193 73.5502C47.5976 73.596 47.5878 73.6466 47.5908 73.6972C47.5711 74.0091 47.6116 74.3219 47.7103 74.6184C47.8562 74.9949 48.1566 75.2984 48.2825 75.6824C48.3396 75.8547 48.3586 76.0377 48.4083 76.2112C48.4491 76.3903 48.555 76.5479 48.7055 76.6532C49.1233 76.9028 49.5177 76.5676 49.8075 76.3074L50.9741 75.2699Z" fill="#856852"/>
<path d="M45.5033 76.7348L44.9671 75.5651C44.8885 75.403 44.8206 75.2359 44.764 75.0648C44.7027 74.8607 44.6731 74.6492 44.616 74.444C44.4277 73.7608 43.9528 73.1918 43.7212 72.5223C43.7066 72.4619 43.6767 72.4062 43.6345 72.3605C43.6007 72.3366 43.562 72.3204 43.5213 72.3131C43.4805 72.3058 43.4387 72.3075 43.3987 72.3182C43.075 72.3743 42.8223 72.6207 42.5261 72.7603C42.3886 72.8238 42.2406 72.8661 42.1031 72.939C42.0344 72.9716 41.9735 73.0186 41.9245 73.0768C41.8756 73.135 41.8398 73.2031 41.8196 73.2764C41.7868 73.4382 41.8672 73.5937 41.9349 73.7513C42.2226 74.4007 42.2882 75.1262 42.3008 75.8369C42.3104 76.3149 42.286 76.8279 42.0037 77.2118C41.4611 77.9521 41.808 79.0394 42.0111 79.9351C42.0354 80.0409 42.0639 80.1551 42.0809 80.2672C42.0988 80.4075 42.1069 80.5489 42.1052 80.6903C42.1052 81.1652 42.0787 81.6548 41.8799 82.0853C42.0762 82.1897 42.2926 82.251 42.5145 82.2651C43.1286 82.3433 43.7452 82.3983 44.3643 82.4301C44.5582 82.4483 44.7538 82.4383 44.9449 82.4004C45.1718 82.3391 45.3719 82.2039 45.5134 82.0162C45.6549 81.8285 45.7299 81.599 45.7265 81.364C45.7603 81.6569 45.8227 81.9753 46.0353 82.1784C46.2479 82.3814 46.5577 82.4121 46.8465 82.4279C47.6614 82.4712 48.4784 82.4482 49.2896 82.3592C49.3413 82.3569 49.3922 82.345 49.4397 82.3243C49.5963 82.246 49.6047 82.0303 49.592 81.8568C49.5688 81.5321 49.5444 81.2075 49.5053 80.8849C49.4721 80.6792 49.4552 80.4713 49.4545 80.263C49.4707 80.0487 49.5061 79.8364 49.5603 79.6284C49.702 78.9685 49.8141 78.2948 49.7665 77.619C49.7477 77.4543 49.741 77.2886 49.7464 77.123C49.7739 76.7496 49.9707 76.3943 49.9336 76.023C49.8279 74.9316 49.7422 73.8116 49.4376 72.7582C49.3826 72.5699 49.3128 72.3679 49.1489 72.26C48.9374 72.1183 48.6402 72.1924 48.398 72.1025C48.2843 72.0496 48.1763 71.9855 48.0754 71.911C47.8563 71.774 47.605 71.6967 47.3467 71.6868C47.1521 71.6794 46.9353 71.7228 46.8179 71.8793C46.7636 71.9674 46.7276 72.0656 46.7122 72.168C46.5588 72.8132 46.379 73.4509 46.1992 74.0887L46.0268 74.7L45.5646 76.3414C45.5192 76.5159 45.5498 76.5698 45.5033 76.7348Z" fill="#D0CDE1"/>
<path d="M48.207 70.3311L58.4373 81.0817V81.9934H53.8758L46.188 71.9598" fill="#FDD27F"/>
<path opacity="0.1" d="M48.207 70.3311L58.4373 81.0817V81.9934H53.8758L46.188 71.9598" fill="black"/>
<path opacity="0.1" d="M46.3509 71.8181L46.3836 71.8298L53.9414 81.0817H58.4373V81.9934H53.8758L46.188 71.9598L46.3509 71.8181Z" fill="black"/>
<path d="M47.5287 72.0445C47.1585 72.2063 46.7471 72.4136 46.6361 72.8028C46.6142 72.8711 46.6094 72.9438 46.6223 73.0144C46.6494 73.0973 46.701 73.1702 46.7703 73.2232C46.8396 73.2763 46.9233 73.3071 47.0105 73.3115C47.1846 73.3158 47.3578 73.2841 47.5192 73.2185L49.7032 72.4972C49.7624 72.4781 49.8301 72.4496 49.8449 72.3914C49.8487 72.3548 49.8413 72.318 49.8237 72.2857C49.756 72.1207 49.6894 71.7833 49.5477 71.668C49.4314 71.5749 49.2008 71.6077 49.0601 71.6098C48.5186 71.6141 48.0099 71.833 47.5287 72.0445Z" fill="#D9B59C"/>
<path d="M49.4752 72.5825C49.8431 72.5814 50.2089 72.6382 50.5593 72.7506C50.9111 72.8649 51.2228 73.0778 51.4572 73.3641C51.5254 73.4441 51.574 73.539 51.5989 73.6411C51.62 73.7469 51.9648 73.8104 51.8887 73.8823C52.1203 73.8453 52.0653 73.9542 52.3001 73.9521C52.5349 73.95 52.7887 73.8897 52.9294 73.7025C53.0271 73.5487 53.0706 73.3667 53.0531 73.1853C53.0562 73.0598 53.0324 72.935 52.9833 72.8194C52.8775 72.5973 52.6343 72.4778 52.4101 72.3752L50.5212 71.5111C50.4116 71.4528 50.294 71.4111 50.1722 71.3874C50.0696 71.3777 49.9663 71.3802 49.8644 71.3948L49.0088 71.4931C49.1959 71.6142 49.3482 71.782 49.4508 71.9799C49.5534 72.1777 49.6026 72.3989 49.5936 72.6216" fill="#856852"/>
</svg>
