<svg width="14" height="18" viewBox="0 0 14 18" fill="none" xmlns="http://www.w3.org/2000/svg">
<path d="M0 1.6875C0 1.23995 0.177789 0.810725 0.494257 0.494257C0.810725 0.17779 1.23995 0 1.6875 0H8.4375C8.88505 0 9.31428 0.17779 9.63074 0.494257C9.94721 0.810725 10.125 1.23995 10.125 1.6875V6.75H11.8125C12.2601 6.75 12.6893 6.92779 13.0057 7.24426C13.3222 7.56072 13.5 7.98995 13.5 8.4375V17.4375C13.5 17.5867 13.4407 17.7298 13.3352 17.8352C13.2298 17.9407 13.0867 18 12.9375 18H10.125V14.0625C10.125 13.9133 10.0657 13.7702 9.96025 13.6648C9.85476 13.5593 9.71168 13.5 9.5625 13.5H3.9375C3.78832 13.5 3.64524 13.5593 3.53975 13.6648C3.43426 13.7702 3.375 13.9133 3.375 14.0625V18H0.5625C0.413316 18 0.270242 17.9407 0.164753 17.8352C0.0592633 17.7298 0 17.5867 0 17.4375V1.6875ZM3.09375 5.0625C3.31753 5.0625 3.53214 4.97361 3.69037 4.81537C3.84861 4.65714 3.9375 4.44253 3.9375 4.21875C3.9375 3.99497 3.84861 3.78036 3.69037 3.62213C3.53214 3.46389 3.31753 3.375 3.09375 3.375C2.86997 3.375 2.65536 3.46389 2.49713 3.62213C2.33889 3.78036 2.25 3.99497 2.25 4.21875C2.25 4.44253 2.33889 4.65714 2.49713 4.81537C2.65536 4.97361 2.86997 5.0625 3.09375 5.0625ZM3.9375 7.59375C3.9375 7.36997 3.84861 7.15536 3.69037 6.99713C3.53214 6.8389 3.31753 6.75 3.09375 6.75C2.86997 6.75 2.65536 6.8389 2.49713 6.99713C2.33889 7.15536 2.25 7.36997 2.25 7.59375C2.25 7.81753 2.33889 8.03214 2.49713 8.19037C2.65536 8.34861 2.86997 8.4375 3.09375 8.4375C3.31753 8.4375 3.53214 8.34861 3.69037 8.19037C3.84861 8.03214 3.9375 7.81753 3.9375 7.59375ZM3.09375 11.8125C3.20455 11.8125 3.31427 11.7907 3.41664 11.7483C3.51901 11.7059 3.61202 11.6437 3.69037 11.5654C3.76872 11.487 3.83087 11.394 3.87327 11.2916C3.91568 11.1893 3.9375 11.0796 3.9375 10.9688C3.9375 10.8579 3.91568 10.7482 3.87327 10.6459C3.83087 10.5435 3.76872 10.4505 3.69037 10.3721C3.61202 10.2938 3.51901 10.2316 3.41664 10.1892C3.31427 10.1468 3.20455 10.125 3.09375 10.125C2.86997 10.125 2.65536 10.2139 2.49713 10.3721C2.33889 10.5304 2.25 10.745 2.25 10.9688C2.25 11.1925 2.33889 11.4071 2.49713 11.5654C2.65536 11.7236 2.86997 11.8125 3.09375 11.8125ZM7.3125 4.21875C7.3125 3.99497 7.2236 3.78036 7.06537 3.62213C6.90714 3.46389 6.69253 3.375 6.46875 3.375C6.24497 3.375 6.03036 3.46389 5.87213 3.62213C5.7139 3.78036 5.625 3.99497 5.625 4.21875C5.625 4.44253 5.7139 4.65714 5.87213 4.81537C6.03036 4.97361 6.24497 5.0625 6.46875 5.0625C6.69253 5.0625 6.90714 4.97361 7.06537 4.81537C7.2236 4.65714 7.3125 4.44253 7.3125 4.21875ZM6.46875 8.4375C6.69253 8.4375 6.90714 8.34861 7.06537 8.19037C7.2236 8.03214 7.3125 7.81753 7.3125 7.59375C7.3125 7.36997 7.2236 7.15536 7.06537 6.99713C6.90714 6.8389 6.69253 6.75 6.46875 6.75C6.24497 6.75 6.03036 6.8389 5.87213 6.99713C5.7139 7.15536 5.625 7.36997 5.625 7.59375C5.625 7.81753 5.7139 8.03214 5.87213 8.19037C6.03036 8.34861 6.24497 8.4375 6.46875 8.4375ZM7.3125 10.9688C7.3125 10.745 7.2236 10.5304 7.06537 10.3721C6.90714 10.2139 6.69253 10.125 6.46875 10.125C6.24497 10.125 6.03036 10.2139 5.87213 10.3721C5.7139 10.5304 5.625 10.745 5.625 10.9688C5.625 11.1925 5.7139 11.4071 5.87213 11.5654C6.03036 11.7236 6.24497 11.8125 6.46875 11.8125C6.69253 11.8125 6.90714 11.7236 7.06537 11.5654C7.2236 11.4071 7.3125 11.1925 7.3125 10.9688ZM9.84375 11.8125C9.95455 11.8125 10.0643 11.7907 10.1666 11.7483C10.269 11.7059 10.362 11.6437 10.4404 11.5654C10.5187 11.487 10.5809 11.394 10.6233 11.2916C10.6657 11.1893 10.6875 11.0796 10.6875 10.9688C10.6875 10.8579 10.6657 10.7482 10.6233 10.6459C10.5809 10.5435 10.5187 10.4505 10.4404 10.3721C10.362 10.2938 10.269 10.2316 10.1666 10.1892C10.0643 10.1468 9.95455 10.125 9.84375 10.125C9.61997 10.125 9.40536 10.2139 9.24713 10.3721C9.08889 10.5304 9 10.745 9 10.9688C9 11.1925 9.08889 11.4071 9.24713 11.5654C9.40536 11.7236 9.61997 11.8125 9.84375 11.8125Z" fill="#464646"/>
<path d="M9 14.625V18H7.3125V14.625H9Z" fill="#464646"/>
<path d="M6.1875 14.625H4.5V18H6.1875V14.625Z" fill="#464646"/>
</svg>
