<svg width="148" height="124" viewBox="0 0 148 124" fill="none" xmlns="http://www.w3.org/2000/svg">
<rect width="148" height="124" fill="white"/>
<path d="M28.4419 106.167L28.2368 106.12C30.5236 95.9755 36.2704 86.7629 44.4187 80.1797C50.5791 75.2104 57.9059 71.8869 65.7092 70.5221C73.5126 69.1573 81.5358 69.7962 89.0233 72.3786C96.5108 74.961 103.216 79.402 108.509 85.2833C113.801 91.1646 117.505 98.2928 119.274 105.997L119.069 106.043C114.228 84.8401 95.6002 70.0316 73.7693 70.0316C52.2244 70.0316 33.1615 85.2285 28.4419 106.167Z" fill="#3F3D56"/>
<path d="M57.8453 46.4615C60.9984 46.4615 63.5544 43.9116 63.5544 40.7661C63.5544 37.6207 60.9984 35.0708 57.8453 35.0708C54.6923 35.0708 52.1362 37.6207 52.1362 40.7661C52.1362 43.9116 54.6923 46.4615 57.8453 46.4615Z" fill="#FBAD18"/>
<path d="M33.2491 104.873C33.4271 105.529 34.037 105.936 34.037 105.936C34.037 105.936 34.3582 105.278 34.1801 104.621C34.0021 103.965 33.3922 103.558 33.3922 103.558C33.3922 103.558 33.071 104.216 33.2491 104.873Z" fill="#FDD27F"/>
<path d="M33.5106 104.732C33.9992 105.206 34.0588 105.935 34.0588 105.935C34.0588 105.935 33.3264 105.896 32.8378 105.421C32.3492 104.947 32.2896 104.217 32.2896 104.217C32.2896 104.217 33.022 104.257 33.5106 104.732Z" fill="#FBAD18"/>
<path d="M46.8082 104.873C46.9862 105.529 47.5961 105.936 47.5961 105.936C47.5961 105.936 47.9173 105.278 47.7392 104.621C47.5612 103.965 46.9513 103.558 46.9513 103.558C46.9513 103.558 46.6301 104.216 46.8082 104.873Z" fill="#FDD27F"/>
<path d="M47.0697 104.732C47.5582 105.206 47.6179 105.935 47.6179 105.935C47.6179 105.935 46.8855 105.896 46.3969 105.421C45.9083 104.947 45.8486 104.217 45.8486 104.217C45.8486 104.217 46.5811 104.257 47.0697 104.732Z" fill="#FBAD18"/>
<path d="M49.4969 52.5717L47.3501 50.8583L59.372 40.1504H89.856V49.5734L70.1058 62.8512L49.4969 52.5717Z" fill="#74411C"/>
<path d="M95.4137 46.1569V40.3643H91.3664V41.7829L89.8558 40.1504L79.9807 50.8583L76.1165 53.4282L70.125 97.0974L79.1609 106.111H100.16V51.2866L95.4137 46.1569Z" fill="#CCCCCC"/>
<path d="M79.9809 50.8582H47.3501V106.111H79.9809V50.8582Z" fill="#F2F2F2"/>
<path d="M66.0271 92.6191H60.0161V106.111H66.0271V92.6191Z" fill="#CCCCCC"/>
<path d="M53.5756 96.4741V94.3325H50.9995V96.4741H53.3609H53.5756Z" fill="#D9A885"/>
<path d="M53.3609 98.1873H50.9995V100.329H53.5756V98.1873H53.3609Z" fill="#D9A885"/>
<path d="M57.8691 94.3325H55.293V96.4741H57.8691V94.3325Z" fill="#D9A885"/>
<path d="M57.8691 98.1873H55.293V100.329H57.8691V98.1873Z" fill="#D9A885"/>
<path d="M71.1791 96.4741V94.3325H68.603V96.4741H70.9644H71.1791Z" fill="#D9A885"/>
<path d="M70.9644 98.1873H68.603V100.329H71.1791V98.1873H70.9644Z" fill="#D9A885"/>
<path d="M75.4726 94.3325H72.8965V96.4741H75.4726V94.3325Z" fill="#D9A885"/>
<path d="M75.4726 98.1873H72.8965V100.329H75.4726V98.1873Z" fill="#D9A885"/>
<path d="M89.2119 53.6422V51.5007H86.6357V53.6422H88.9973H89.2119Z" fill="#D9A885"/>
<path d="M88.9973 55.3555H86.6357V57.497H89.2119V55.3555H88.9973Z" fill="#D9A885"/>
<path d="M93.5053 51.5007H90.9292V53.6423H93.5053V51.5007Z" fill="#D9A885"/>
<path d="M93.5053 55.3555H90.9292V57.4971H93.5053V55.3555Z" fill="#D9A885"/>
<path d="M89.2119 65.6353V63.4937H86.6357V65.6353H88.9973H89.2119Z" fill="#D9A885"/>
<path d="M88.9973 67.3484H86.6357V69.49H89.2119V67.3484H88.9973Z" fill="#D9A885"/>
<path d="M93.5053 63.4937H90.9292V65.6352H93.5053V63.4937Z" fill="#D9A885"/>
<path d="M93.5053 67.3484H90.9292V69.49H93.5053V67.3484Z" fill="#D9A885"/>
<path d="M89.2119 77.6279V75.4863H86.6357V77.6279H88.9973H89.2119Z" fill="#D9A885"/>
<path d="M88.9973 79.3413H86.6357V81.4829H89.2119V79.3413H88.9973Z" fill="#D9A885"/>
<path d="M93.5053 75.4866H90.9292V77.6282H93.5053V75.4866Z" fill="#D9A885"/>
<path d="M93.5053 79.3413H90.9292V81.4829H93.5053V79.3413Z" fill="#D9A885"/>
<path d="M89.2119 89.6211V87.4795H86.6357V89.6211H88.9973H89.2119Z" fill="#D9A885"/>
<path d="M88.9973 91.3342H86.6357V93.4758H89.2119V91.3342H88.9973Z" fill="#D9A885"/>
<path d="M93.5053 87.4795H90.9292V89.6211H93.5053V87.4795Z" fill="#D9A885"/>
<path d="M93.5053 91.3342H90.9292V93.4758H93.5053V91.3342Z" fill="#D9A885"/>
<path d="M75.902 53.6423H50.9995V58.7822H75.902V53.6423Z" fill="#D9A885"/>
<path d="M75.902 63.9219H50.9995V69.0617H75.902V63.9219Z" fill="#D9A885"/>
<path d="M75.902 74.2014H50.9995V79.3412H75.902V74.2014Z" fill="#D9A885"/>
<path d="M75.902 84.481H50.9995V89.6208H75.902V84.481Z" fill="#D9A885"/>
<path d="M133.511 105.896H14V106.105H133.511V105.896Z" fill="#3F3D56"/>
<path d="M34.6312 81.6826H34.0137V106.015H34.6312V81.6826Z" fill="#3F3D56"/>
<path d="M40.3298 84.7835C40.3691 93.2919 34.3685 100.217 34.3685 100.217C34.3685 100.217 28.3041 93.3474 28.2648 84.8389C28.2255 76.3305 34.2261 69.4053 34.2261 69.4053C34.2261 69.4053 40.2905 76.275 40.3298 84.7835Z" fill="#FBAD18"/>
<path opacity="0.1" d="M40.3298 84.7835C40.3691 93.2919 34.3685 100.217 34.3685 100.217C34.3685 100.217 28.3041 93.3474 28.2648 84.8389C28.2255 76.3305 34.2261 69.4053 34.2261 69.4053C34.2261 69.4053 40.2905 76.275 40.3298 84.7835Z" fill="#FBAD18"/>
<path d="M32.3025 84.7835C32.3418 93.2919 26.3412 100.217 26.3412 100.217C26.3412 100.217 20.2768 93.3474 20.2375 84.8389C20.1982 76.3305 26.1988 69.4053 26.1988 69.4053C26.1988 69.4053 32.2631 76.275 32.3025 84.7835Z" fill="#FDD27F"/>
<path d="M113.388 50.8239C108.524 50.8463 104.564 50.918 104.564 50.918C104.564 50.918 109.271 44.6992 113.37 47.0032C117.47 49.3072 122.179 50.837 122.179 50.837C122.179 50.837 118.252 50.8016 113.388 50.8239Z" fill="#BC903D"/>
<path d="M32.3473 62.7776C27.4832 62.7999 23.5239 62.8716 23.5239 62.8716C23.5239 62.8716 28.2301 56.6528 32.3297 58.9568C36.4293 61.2609 41.1386 62.7906 41.1386 62.7906C41.1386 62.7906 37.2115 62.7552 32.3473 62.7776Z" fill="#BC903D"/>
<path d="M50.006 37.8215C45.1419 37.8439 41.1826 37.9156 41.1826 37.9156C41.1826 37.9156 45.8888 31.6968 49.9884 34.0008C54.088 36.3048 58.7973 37.8346 58.7973 37.8346C58.7973 37.8346 54.8702 37.7991 50.006 37.8215Z" fill="#BC903D"/>
<path d="M123.41 81.6826H122.793V106.015H123.41V81.6826Z" fill="#3F3D56"/>
<path d="M129.109 84.7835C129.148 93.2919 123.148 100.217 123.148 100.217C123.148 100.217 117.083 93.3474 117.044 84.8389C117.005 76.3305 123.005 69.4053 123.005 69.4053C123.005 69.4053 129.07 76.275 129.109 84.7835Z" fill="#FDD27F"/>
<path d="M100.681 90.9117H106.913V89.4111H110.351V90.9117H116.798V97.5574H110.351V105.918H106.913V97.5574H100.681L97.4575 93.913L100.681 90.9117Z" fill="#D9A885"/>
</svg>
