<svg width="148" height="124" viewBox="0 0 148 124" fill="none" xmlns="http://www.w3.org/2000/svg">
<rect width="148" height="124" fill="white"/>
<path d="M34.7892 100.91C37.4361 100.91 39.5819 96.5317 39.5819 91.131C39.5819 85.7302 37.4361 81.3521 34.7892 81.3521C32.1423 81.3521 29.9966 85.7302 29.9966 91.131C29.9966 96.5317 32.1423 100.91 34.7892 100.91Z" fill="#E6E6E6"/>
<path d="M35.2319 107.137C33.3124 95.6208 35.2126 84.1457 35.232 84.0312L35.6054 84.0945C35.5861 84.2084 33.6968 95.6232 35.6055 107.075L35.2319 107.137Z" fill="#3F3D56"/>
<path d="M39.0091 89.0283L34.6753 91.3464L34.8539 91.6804L39.1878 89.3623L39.0091 89.0283Z" fill="#3F3D56"/>
<path d="M30.2798 90.1895L30.1011 90.5234L34.4344 92.8429L34.6131 92.5089L30.2798 90.1895Z" fill="#3F3D56"/>
<path d="M131.448 37.6526H123.593V64.8436H131.448V37.6526Z" fill="#BC903D"/>
<path d="M136.636 59.7285L117.531 37L79.181 37.3506L55.9175 60.0097L56.3875 60.3119H56.2197V107.443H136.584V60.3119L136.636 59.7285Z" fill="#74411C"/>
<path d="M117.551 37.0483L93.6831 65.0306V107.443H136.584V59.7075L117.551 37.0483Z" fill="#D9A885"/>
<path d="M119.666 83.9883H110.904V91.7325H119.666V83.9883Z" fill="#3F3D56"/>
<path d="M119.666 70.584H110.904V78.2054H119.666V70.584Z" fill="#3F3D56"/>
<path d="M119.666 83.9883H110.904V91.7325H119.666V83.9883Z" fill="white"/>
<path d="M119.666 70.584H110.904V78.2054H119.666V70.584Z" fill="white"/>
<path d="M87.7334 106.061C87.7334 106.061 87.9212 102.125 91.7717 102.583Z" fill="#E6E6E6"/>
<path d="M86.6454 102.316C87.7097 102.316 88.5725 101.453 88.5725 100.389C88.5725 99.3242 87.7097 98.4614 86.6454 98.4614C85.5811 98.4614 84.7183 99.3242 84.7183 100.389C84.7183 101.453 85.5811 102.316 86.6454 102.316Z" fill="#FBAD18"/>
<path d="M86.8755 103.634H86.3315V107.442H86.8755V103.634Z" fill="#E6E6E6"/>
<path d="M23.2742 95.176C28.4513 95.176 32.6481 86.6128 32.6481 76.0495C32.6481 65.4863 28.4513 56.9231 23.2742 56.9231C18.0972 56.9231 13.9004 65.4863 13.9004 76.0495C13.9004 86.6128 18.0972 95.176 23.2742 95.176Z" fill="#FDC251"/>
<path d="M24.3183 107.327C20.569 84.8312 24.2805 62.4176 24.3184 62.1938L24.6918 62.2571C24.654 62.4803 20.9534 84.8336 24.6919 107.265L24.3183 107.327Z" fill="#3F3D56"/>
<path d="M31.6129 72.0966L23.1362 76.6306L23.3149 76.9646L31.7916 72.4306L31.6129 72.0966Z" fill="#3F3D56"/>
<path d="M14.3687 74.3677L14.1899 74.7017L22.6654 79.238L22.8441 78.9041L14.3687 74.3677Z" fill="#3F3D56"/>
<path d="M45.4753 90.7108C52.5597 90.7108 58.3027 78.9927 58.3027 64.5378C58.3027 50.0828 52.5597 38.3647 45.4753 38.3647C38.391 38.3647 32.6479 50.0828 32.6479 64.5378C32.6479 78.9927 38.391 90.7108 45.4753 90.7108Z" fill="#FBAD18"/>
<path d="M46.9731 107.327C41.8444 76.5548 46.9213 45.8952 46.9732 45.5891L47.3466 45.6524C47.2948 45.9579 42.2288 76.5572 47.3467 107.265L46.9731 107.327Z" fill="#3F3D56"/>
<path d="M56.919 59.1896L45.3193 65.394L45.498 65.728L57.0976 59.5236L56.919 59.1896Z" fill="#3F3D56"/>
<path d="M33.2554 62.2977L33.0767 62.6316L44.6747 68.8391L44.8534 68.5052L33.2554 62.2977Z" fill="#3F3D56"/>
<path d="M80.7284 81.9336H71.9668V89.6778H80.7284V81.9336Z" fill="#3F3D56"/>
<path d="M80.7284 68.5293H71.9668V76.1507H80.7284V68.5293Z" fill="#3F3D56"/>
<path d="M80.7284 81.9336H71.9668V89.6778H80.7284V81.9336Z" fill="white"/>
<path d="M80.7284 68.5293H71.9668V76.1507H80.7284V68.5293Z" fill="white"/>
<path d="M143.43 107.131H5V107.461H143.43V107.131Z" fill="#3F3D56"/>
</svg>
