<svg width="83" height="78" viewBox="0 0 83 78" fill="none" xmlns="http://www.w3.org/2000/svg">
<path d="M61.1175 58.8218L19.4676 69.5472C18.0548 69.9093 16.5561 69.6962 15.3002 68.9547C14.0443 68.2131 13.1338 67.0037 12.7685 65.5917L0.172463 16.6773C-0.189652 15.2645 0.0234322 13.7657 0.764969 12.5098C1.50651 11.2539 2.71594 10.3435 4.12793 9.97816L42.8763 0L52.7941 4.43986L65.073 52.1227C65.4351 53.5355 65.222 55.0343 64.4805 56.2902C63.7389 57.5461 62.5295 58.4565 61.1175 58.8218Z" fill="#F2F2F2"/>
<path d="M4.52284 11.5117C3.51733 11.7718 2.65607 12.4202 2.128 13.3145C1.59994 14.2089 1.4482 15.2762 1.70607 16.2823L14.3021 65.1967C14.5622 66.2022 15.2106 67.0634 16.1049 67.5915C16.9993 68.1196 18.0666 68.2713 19.0727 68.0134L60.7226 57.2881C61.7281 57.028 62.5893 56.3796 63.1174 55.4852C63.6455 54.5909 63.7972 53.5236 63.5393 52.5175L51.4507 5.57349L42.7348 1.67163L4.52284 11.5117Z" fill="white"/>
<path d="M52.6883 4.69213L46.2424 6.35202C45.7718 6.4732 45.2724 6.40248 44.854 6.15542C44.4355 5.90836 44.1324 5.50521 44.0112 5.03464L42.7852 0.273802C42.7799 0.252959 42.7805 0.231025 42.787 0.210516C42.7935 0.190007 42.8057 0.171753 42.8221 0.157847C42.8386 0.143941 42.8586 0.134947 42.8799 0.131895C42.9012 0.128843 42.9229 0.131856 42.9426 0.140591L52.7062 4.47659C52.7279 4.48624 52.7461 4.50241 52.7582 4.52286C52.7703 4.54332 52.7758 4.56703 52.7738 4.59072C52.7718 4.61442 52.7626 4.63691 52.7472 4.65508C52.7319 4.67325 52.7113 4.6862 52.6883 4.69213Z" fill="#F2F2F2"/>
<path d="M49.2972 46.4641L30.3346 51.3472C30.2181 51.3772 30.0968 51.384 29.9777 51.3671C29.8586 51.3502 29.744 51.3101 29.6404 51.2489C29.5368 51.1877 29.4463 51.1068 29.374 51.0106C29.3017 50.9145 29.249 50.805 29.219 50.6885C29.189 50.572 29.1822 50.4507 29.1991 50.3316C29.216 50.2125 29.2561 50.0979 29.3173 49.9943C29.3785 49.8907 29.4594 49.8002 29.5556 49.7279C29.6517 49.6556 29.7612 49.6029 29.8777 49.5729L48.8403 44.6898C48.9568 44.6598 49.0781 44.6531 49.1972 44.6699C49.3163 44.6868 49.4309 44.727 49.5345 44.7881C49.6381 44.8493 49.7286 44.9303 49.8009 45.0264C49.8732 45.1226 49.9259 45.232 49.9559 45.3485C49.9859 45.465 49.9927 45.5863 49.9758 45.7054C49.9589 45.8245 49.9188 45.9391 49.8576 46.0427C49.7964 46.1463 49.7155 46.2369 49.6193 46.3092C49.5232 46.3815 49.4137 46.4341 49.2972 46.4641Z" fill="#CCCCCC"/>
<path d="M53.7276 48.5158L31.1056 54.3412C30.8703 54.4018 30.6206 54.3665 30.4114 54.2429C30.2022 54.1194 30.0506 53.9178 29.99 53.6825C29.9294 53.4473 29.9648 53.1975 30.0883 52.9883C30.2118 52.7791 30.4134 52.6275 30.6487 52.567L53.2708 46.7415C53.506 46.6812 53.7555 46.7167 53.9645 46.8402C54.1736 46.9638 54.325 47.1653 54.3855 47.4004C54.4461 47.6356 54.4108 47.8851 54.2875 48.0943C54.1641 48.3034 53.9627 48.455 53.7276 48.5158Z" fill="#CCCCCC"/>
<path d="M22.5951 57.2284C24.3834 57.2284 25.833 55.7787 25.833 53.9905C25.833 52.2023 24.3834 50.7527 22.5951 50.7527C20.8069 50.7527 19.3573 52.2023 19.3573 53.9905C19.3573 55.7787 20.8069 57.2284 22.5951 57.2284Z" fill="#E6E6E6"/>
<path d="M47.2809 37.9904L22.0967 44.4732C21.3688 44.6597 20.5968 44.5498 19.9498 44.1678C19.3029 43.7857 18.8339 43.1626 18.6458 42.4352L13.3681 21.9327C13.1816 21.2048 13.2914 20.4327 13.6735 19.7858C14.0556 19.1389 14.6786 18.6699 15.4061 18.4818L40.5903 11.9989C41.3181 11.8125 42.0902 11.9223 42.7371 12.3044C43.3841 12.6864 43.8531 13.3095 44.0412 14.0369L49.3189 34.5395C49.5053 35.2673 49.3955 36.0394 49.0134 36.6863C48.6314 37.3333 48.0083 37.8022 47.2809 37.9904Z" fill="white"/>
<path d="M47.2809 37.9904L22.0967 44.4732C21.3688 44.6597 20.5968 44.5498 19.9498 44.1678C19.3029 43.7857 18.8339 43.1626 18.6458 42.4352L13.3681 21.9327C13.1816 21.2048 13.2914 20.4327 13.6735 19.7858C14.0556 19.1389 14.6786 18.6699 15.4061 18.4818L40.5903 11.9989C41.3181 11.8125 42.0902 11.9223 42.7371 12.3044C43.3841 12.6864 43.8531 13.3095 44.0412 14.0369L49.3189 34.5395C49.5053 35.2673 49.3955 36.0394 49.0134 36.6863C48.6314 37.3333 48.0083 37.8022 47.2809 37.9904ZM15.4892 18.8046C14.8473 18.9706 14.2976 19.3844 13.9605 19.9553C13.6233 20.5261 13.5264 21.2073 13.691 21.8495L18.9686 42.3521C19.1346 42.9939 19.5484 43.5437 20.1193 43.8808C20.6901 44.2179 21.3713 44.3148 22.0135 44.1503L47.1978 37.6675C47.8396 37.5015 48.3894 37.0877 48.7265 36.5169C49.0636 35.946 49.1605 35.2648 48.996 34.6226L43.7183 14.12C43.5523 13.4782 43.1385 12.9284 42.5677 12.5913C41.9968 12.2542 41.3156 12.1573 40.6734 12.3218L15.4892 18.8046Z" fill="#E6E6E6"/>
<path d="M39.3128 18.8927L26.6026 22.1645C26.4915 22.1955 26.3727 22.1832 26.2704 22.13C26.168 22.0768 26.0896 21.9867 26.0511 21.878C26.0332 21.8212 26.027 21.7613 26.033 21.702C26.0389 21.6428 26.0569 21.5853 26.0858 21.5332C26.1147 21.4812 26.154 21.4355 26.2011 21.3991C26.2482 21.3626 26.3023 21.3362 26.36 21.3213L39.2981 17.9908C39.8207 18.2557 39.6832 18.7973 39.3126 18.8927L39.3128 18.8927Z" fill="#F2F2F2"/>
<path d="M39.8866 21.1222L27.1765 24.394C27.0653 24.425 26.9466 24.4127 26.8442 24.3595C26.7418 24.3063 26.6635 24.2162 26.6249 24.1075C26.607 24.0507 26.6009 23.9908 26.6068 23.9315C26.6128 23.8723 26.6308 23.8148 26.6597 23.7627C26.6886 23.7106 26.7278 23.665 26.7749 23.6286C26.8221 23.5921 26.8761 23.5657 26.9338 23.5508L39.872 20.2203C40.3946 20.4852 40.2571 21.0268 39.8865 21.1222L39.8866 21.1222Z" fill="#F2F2F2"/>
<path d="M24.7556 26.3705L20.8766 27.369C20.7499 27.4015 20.6155 27.3824 20.5029 27.3159C20.3903 27.2494 20.3087 27.1409 20.276 27.0143L19.0976 22.4368C19.0651 22.3101 19.0843 22.1757 19.1508 22.0631C19.2173 21.9505 19.3257 21.8688 19.4524 21.8361L23.3314 20.8376C23.458 20.8051 23.5924 20.8243 23.705 20.8908C23.8176 20.9573 23.8993 21.0657 23.932 21.1923L25.1104 25.7699C25.1428 25.8965 25.1237 26.0309 25.0572 26.1436C24.9907 26.2562 24.8823 26.3378 24.7556 26.3705V26.3705Z" fill="#E6E6E6"/>
<path d="M41.0247 25.6966L21.6267 30.6899C21.5155 30.7209 21.3968 30.7086 21.2944 30.6554C21.192 30.6022 21.1137 30.5122 21.0751 30.4034C21.0572 30.3466 21.051 30.2867 21.057 30.2275C21.063 30.1682 21.081 30.1108 21.1099 30.0587C21.1388 30.0066 21.178 29.9609 21.2251 29.9245C21.2723 29.8881 21.3263 29.8616 21.384 29.8468L41.0102 24.7947C41.5328 25.0595 41.3953 25.6011 41.0247 25.6965L41.0247 25.6966Z" fill="#F2F2F2"/>
<path d="M41.5985 27.9265L22.2005 32.9199C22.0894 32.9509 21.9706 32.9386 21.8683 32.8854C21.7659 32.8322 21.6875 32.7422 21.649 32.6334C21.6311 32.5766 21.6249 32.5167 21.6309 32.4575C21.6368 32.3982 21.6548 32.3408 21.6837 32.2887C21.7126 32.2366 21.7519 32.1909 21.799 32.1545C21.8461 32.118 21.9002 32.0916 21.9579 32.0767L41.584 27.0247C42.1067 27.2895 41.9692 27.8311 41.5985 27.9265V27.9265Z" fill="#F2F2F2"/>
<path d="M42.1723 30.1553L22.7742 35.1486C22.6631 35.1797 22.5444 35.1673 22.442 35.1142C22.3396 35.061 22.2612 34.9709 22.2227 34.8622C22.2048 34.8054 22.1986 34.7455 22.2046 34.6862C22.2106 34.6269 22.2286 34.5695 22.2575 34.5174C22.2864 34.4653 22.3256 34.4197 22.3727 34.3832C22.4198 34.3468 22.4739 34.3204 22.5316 34.3055L42.1578 29.2534C42.6804 29.5182 42.5429 30.0599 42.1723 30.1553Z" fill="#F2F2F2"/>
<path d="M42.7464 32.3853L23.3483 37.3786C23.2372 37.4096 23.1185 37.3973 23.0161 37.3441C22.9137 37.291 22.8353 37.2009 22.7968 37.0921C22.7789 37.0353 22.7727 36.9755 22.7787 36.9162C22.7847 36.8569 22.8027 36.7995 22.8316 36.7474C22.8605 36.6953 22.8997 36.6497 22.9468 36.6132C22.9939 36.5768 23.048 36.5503 23.1057 36.5355L42.7319 31.4834C43.2545 31.7482 43.117 32.2899 42.7464 32.3853L42.7464 32.3853Z" fill="#F2F2F2"/>
<path d="M43.3201 34.614L23.9221 39.6074C23.8109 39.6384 23.6922 39.6261 23.5898 39.5729C23.4874 39.5197 23.4091 39.4296 23.3705 39.3209C23.3526 39.2641 23.3465 39.2042 23.3524 39.145C23.3584 39.0857 23.3764 39.0283 23.4053 38.9762C23.4342 38.9241 23.4734 38.8784 23.5205 38.842C23.5677 38.8055 23.6217 38.7791 23.6794 38.7642L43.3056 33.7122C43.8282 33.977 43.6907 34.5186 43.3201 34.614Z" fill="#F2F2F2"/>
<path d="M22.834 55.1254C22.7635 55.1437 22.689 55.1386 22.6216 55.1108L22.6174 55.1091L21.7354 54.7351C21.6945 54.7178 21.6573 54.6926 21.6262 54.6609C21.595 54.6292 21.5704 54.5917 21.5537 54.5504C21.537 54.5092 21.5287 54.4651 21.5291 54.4207C21.5295 54.3762 21.5386 54.3323 21.556 54.2914C21.5734 54.2505 21.5987 54.2134 21.6304 54.1823C21.6622 54.1512 21.6997 54.1266 21.741 54.11C21.7822 54.0934 21.8263 54.0851 21.8708 54.0856C21.9152 54.086 21.9591 54.0953 22 54.1127L22.5716 54.3558L23.3205 52.5939C23.3379 52.5531 23.3632 52.5161 23.3948 52.485C23.4265 52.4539 23.464 52.4293 23.5052 52.4127C23.5463 52.3961 23.5904 52.3878 23.6348 52.3882C23.6792 52.3886 23.723 52.3978 23.7639 52.4151L23.764 52.4152L23.7595 52.4267L23.7642 52.4151C23.8466 52.4503 23.9117 52.5168 23.9453 52.5999C23.9788 52.683 23.9779 52.7761 23.9429 52.8586L23.0618 54.9302C23.0413 54.9779 23.0102 55.0204 22.9707 55.0541C22.9313 55.0879 22.8845 55.1122 22.8342 55.125L22.834 55.1254Z" fill="white"/>
<path d="M77.0927 77.4618H34.084C32.6255 77.4602 31.2272 76.8801 30.1959 75.8488C29.1646 74.8175 28.5845 73.4192 28.5829 71.9607V21.4506C28.5845 19.9921 29.1646 18.5938 30.1959 17.5625C31.2272 16.5312 32.6255 15.9511 34.084 15.9495H74.0965L82.5938 22.7223V71.9607C82.5921 73.4192 82.012 74.8175 80.9807 75.8488C79.9494 76.8801 78.5511 77.4602 77.0927 77.4618Z" fill="#E6E6E6"/>
<path d="M34.0841 17.5331C33.0455 17.5343 32.0497 17.9474 31.3153 18.6818C30.5809 19.4162 30.1678 20.4119 30.1666 21.4505V71.9607C30.1678 72.9993 30.5809 73.9951 31.3153 74.7295C32.0497 75.4639 33.0455 75.877 34.0841 75.8782H77.0927C78.1314 75.877 79.1271 75.4639 79.8615 74.7295C80.5959 73.9951 81.009 72.9993 81.0102 71.9607V23.4852L73.5427 17.5331H34.0841Z" fill="white"/>
<path d="M68.7275 32.2201H49.1463C48.9033 32.2201 48.6703 32.1236 48.4985 31.9518C48.3267 31.78 48.2302 31.547 48.2302 31.304C48.2302 31.0611 48.3267 30.8281 48.4985 30.6563C48.6703 30.4845 48.9033 30.3879 49.1463 30.3879H68.7275C68.9705 30.3879 69.2035 30.4845 69.3753 30.6563C69.5471 30.8281 69.6436 31.0611 69.6436 31.304C69.6436 31.547 69.5471 31.78 69.3753 31.9518C69.2035 32.1236 68.9705 32.2201 68.7275 32.2201Z" fill="white"/>
<path d="M72.5065 35.3118H49.1464C48.9037 35.3114 48.671 35.2148 48.4994 35.043C48.3279 34.8713 48.2316 34.6384 48.2316 34.3957C48.2316 34.1529 48.3279 33.9201 48.4994 33.7484C48.671 33.5766 48.9037 33.4799 49.1464 33.4796H72.5065C72.6269 33.4795 72.7462 33.503 72.8574 33.549C72.9687 33.595 73.0699 33.6624 73.1551 33.7475C73.2403 33.8326 73.3078 33.9336 73.354 34.0448C73.4001 34.1561 73.4238 34.2753 73.4238 34.3957C73.4238 34.5161 73.4001 34.6353 73.354 34.7465C73.3078 34.8578 73.2403 34.9588 73.1551 35.0439C73.0699 35.129 72.9687 35.1964 72.8574 35.2424C72.7462 35.2884 72.6269 35.3119 72.5065 35.3118Z" fill="white"/>
<path d="M68.7277 44.2432H49.1471C48.9042 44.2432 48.6712 44.3397 48.4994 44.5115C48.3276 44.6832 48.2311 44.9162 48.2311 45.1592C48.2311 45.4021 48.3276 45.6351 48.4994 45.8069C48.6712 45.9787 48.9042 46.0752 49.1471 46.0752H68.7277C68.9707 46.0752 69.2036 45.9787 69.3754 45.8069C69.5472 45.6351 69.6437 45.4021 69.6437 45.1592C69.6437 44.9162 69.5472 44.6832 69.3754 44.5115C69.2036 44.3397 68.9707 44.2432 68.7277 44.2432Z" fill="#CCCCCC"/>
<path d="M72.5068 47.3354H49.1471C48.9042 47.3354 48.6712 47.432 48.4994 47.6037C48.3276 47.7755 48.2311 48.0085 48.2311 48.2515C48.2311 48.4944 48.3276 48.7274 48.4994 48.8992C48.6712 49.071 48.9042 49.1675 49.1471 49.1675H72.5068C72.7497 49.1675 72.9827 49.071 73.1545 48.8992C73.3263 48.7274 73.4228 48.4944 73.4228 48.2515C73.4228 48.0085 73.3263 47.7755 73.1545 47.6037C72.9827 47.432 72.7497 47.3354 72.5068 47.3354Z" fill="#CCCCCC"/>
<path d="M68.7275 59.9315H49.1463C48.9033 59.9315 48.6703 59.835 48.4985 59.6632C48.3267 59.4914 48.2302 59.2584 48.2302 59.0154C48.2302 58.7725 48.3267 58.5395 48.4985 58.3677C48.6703 58.1959 48.9033 58.0994 49.1463 58.0994H68.7275C68.9705 58.0994 69.2035 58.1959 69.3753 58.3677C69.5471 58.5395 69.6436 58.7725 69.6436 59.0154C69.6436 59.2584 69.5471 59.4914 69.3753 59.6632C69.2035 59.835 68.9705 59.9315 68.7275 59.9315Z" fill="#CCCCCC"/>
<path d="M72.5065 63.0235H49.1464C48.9037 63.0231 48.671 62.9265 48.4994 62.7547C48.3279 62.5829 48.2316 62.3501 48.2316 62.1074C48.2316 61.8646 48.3279 61.6318 48.4994 61.46C48.671 61.2883 48.9037 61.1916 49.1464 61.1913H72.5065C72.6269 61.1911 72.7462 61.2147 72.8574 61.2607C72.9687 61.3066 73.0699 61.3741 73.1551 61.4592C73.2403 61.5442 73.3078 61.6453 73.354 61.7565C73.4001 61.8677 73.4238 61.987 73.4238 62.1074C73.4238 62.2278 73.4001 62.347 73.354 62.4582C73.3078 62.5694 73.2403 62.6705 73.1551 62.7556C73.0699 62.8407 72.9687 62.9081 72.8574 62.9541C72.7462 63 72.6269 63.0236 72.5065 63.0235Z" fill="#CCCCCC"/>
<path d="M40.9922 36.0877C42.7804 36.0877 44.2301 34.6381 44.2301 32.8499C44.2301 31.0617 42.7804 29.6121 40.9922 29.6121C39.204 29.6121 37.7544 31.0617 37.7544 32.8499C37.7544 34.6381 39.204 36.0877 40.9922 36.0877Z" fill="white"/>
<path d="M40.6714 34.085C40.5985 34.0851 40.5276 34.0615 40.4693 34.0178L40.4657 34.0151L39.7048 33.433C39.6694 33.406 39.6397 33.3724 39.6174 33.3339C39.5951 33.2954 39.5806 33.2529 39.5747 33.2089C39.5689 33.1648 39.5717 33.12 39.5832 33.077C39.5947 33.0341 39.6145 32.9938 39.6416 32.9585C39.6686 32.9232 39.7024 32.8936 39.7409 32.8714C39.7794 32.8491 39.8219 32.8347 39.866 32.8289C39.9101 32.8232 39.9549 32.8261 39.9978 32.8377C40.0408 32.8492 40.081 32.8692 40.1162 32.8963L40.6091 33.2743L41.7738 31.7548C41.8008 31.7196 41.8345 31.69 41.8729 31.6678C41.9114 31.6456 41.9538 31.6312 41.9978 31.6253C42.0418 31.6195 42.0865 31.6224 42.1294 31.6339C42.1723 31.6454 42.2125 31.6652 42.2477 31.6922L42.2478 31.6923L42.2406 31.7023L42.248 31.6923C42.3191 31.7469 42.3656 31.8275 42.3773 31.9163C42.389 32.0052 42.365 32.0951 42.3105 32.1663L40.9406 33.9527C40.9089 33.9939 40.8682 34.0272 40.8215 34.05C40.7749 34.0729 40.7236 34.0847 40.6716 34.0846L40.6714 34.085Z" fill="white"/>
<path d="M44.5628 46.7054C44.563 47.1306 44.4794 47.5518 44.3168 47.9447C44.1542 48.3376 43.9157 48.6947 43.6151 48.9955C43.3145 49.2962 42.9576 49.5349 42.5647 49.6977C42.1719 49.8605 41.7508 49.9443 41.3255 49.9444C41.2977 49.9449 41.2699 49.9438 41.2422 49.941C40.6055 49.9247 39.9878 49.721 39.4664 49.3554C38.945 48.9897 38.5429 48.4785 38.3106 47.8855C38.0783 47.2925 38.026 46.6442 38.1603 46.0217C38.2946 45.3991 38.6096 44.83 39.0657 44.3856C39.5218 43.9411 40.0989 43.6411 40.7247 43.523C41.3505 43.4049 41.9972 43.4739 42.584 43.7215C43.1707 43.9691 43.6714 44.3843 44.0234 44.915C44.3754 45.4458 44.563 46.0685 44.5628 46.7054Z" fill="#CCCCCC"/>
<path d="M40.9922 63.7992C42.7804 63.7992 44.2301 62.3495 44.2301 60.5613C44.2301 58.7731 42.7804 57.3235 40.9922 57.3235C39.204 57.3235 37.7544 58.7731 37.7544 60.5613C37.7544 62.3495 39.204 63.7992 40.9922 63.7992Z" fill="#CCCCCC"/>
<path d="M82.4285 22.9403H75.7724C75.2864 22.9403 74.8204 22.7473 74.4768 22.4037C74.1332 22.0601 73.9402 21.5941 73.9402 21.1082V16.192C73.9402 16.1705 73.9462 16.1494 73.9577 16.1312C73.9691 16.1129 73.9855 16.0983 74.0048 16.0889C74.0242 16.0796 74.0459 16.0758 74.0672 16.0782C74.0886 16.0806 74.1089 16.0889 74.1258 16.1023L82.4996 22.7361C82.5183 22.7508 82.5318 22.771 82.5385 22.7939C82.5451 22.8167 82.5445 22.841 82.5367 22.8635C82.5289 22.8859 82.5142 22.9054 82.4949 22.9192C82.4755 22.9329 82.4523 22.9403 82.4285 22.9403Z" fill="#CCCCCC"/>
<path d="M44.5629 46.7052C44.563 47.1305 44.4794 47.5516 44.3168 47.9446C44.1542 48.3375 43.9158 48.6945 43.6151 48.9953C43.3145 49.2961 42.9576 49.5347 42.5647 49.6975C42.1719 49.8603 41.7508 49.9442 41.3256 49.9442C41.2977 49.9448 41.2699 49.9437 41.2422 49.9409C40.8239 48.8976 40.6627 47.769 40.772 46.6502C40.8814 45.5315 41.2582 44.4555 41.8707 43.5129C42.6239 43.642 43.3071 44.0333 43.7998 44.6174C44.2924 45.2016 44.5627 45.9411 44.5629 46.7052Z" fill="white"/>
<path d="M48.2302 45.16C48.2307 44.917 48.3274 44.684 48.4992 44.5122C48.6711 44.3403 48.904 44.2436 49.1471 44.2432H54.0264C54.3114 44.8228 54.5139 45.4395 54.6282 46.0752H49.1471C48.9042 46.0751 48.6713 45.9788 48.4994 45.8072C48.3275 45.6356 48.2307 45.4029 48.2302 45.16Z" fill="white"/>
<path d="M54.7416 47.3354C54.7419 47.9542 54.6601 48.5703 54.4982 49.1675H49.1471C48.9042 49.1675 48.6712 49.071 48.4994 48.8992C48.3276 48.7274 48.2311 48.4944 48.2311 48.2515C48.2311 48.0085 48.3276 47.7755 48.4994 47.6037C48.6712 47.432 48.9042 47.3354 49.1471 47.3354H54.7416Z" fill="white"/>
<path d="M66.8143 58.6341C66.6762 58.8605 66.4537 59.0228 66.1959 59.0853C65.9381 59.1478 65.6661 59.1052 65.4396 58.9671L53.7698 51.849C53.6576 51.7806 53.5601 51.6908 53.4826 51.5846C53.4052 51.4785 53.3495 51.3582 53.3185 51.2306C53.2876 51.1029 53.2821 50.9704 53.3024 50.8407C53.3227 50.7109 53.3683 50.5864 53.4367 50.4742C53.5051 50.3621 53.5949 50.2645 53.701 50.1871C53.8071 50.1097 53.9274 50.0539 54.0551 50.023C54.1828 49.9921 54.3153 49.9866 54.445 50.0069C54.5748 50.0271 54.6993 50.0728 54.8115 50.1412L66.4813 57.2593C66.7077 57.3975 66.8701 57.6199 66.9325 57.8777C66.995 58.1355 66.9525 58.4076 66.8143 58.6341Z" fill="#CCCCCC"/>
<path d="M55.1444 51.5157C54.3203 52.8668 53.1141 53.9432 51.6782 54.6087C50.2424 55.2742 48.6415 55.499 47.0779 55.2547C45.5143 55.0104 44.0582 54.3078 42.8939 53.236C41.7296 52.1642 40.9092 50.7711 40.5366 49.233C40.164 47.695 40.2558 46.0809 40.8005 44.5951C41.3452 43.1092 42.3183 41.8182 43.5967 40.8853C44.8751 39.9525 46.4014 39.4196 47.9826 39.3542C49.5638 39.2889 51.1289 39.6938 52.48 40.5179C54.2898 41.6247 55.5868 43.4041 56.0863 45.4659C56.5858 47.5277 56.247 49.7034 55.1444 51.5157ZM43.1899 44.224C42.5718 45.2373 42.2681 46.4111 42.3172 47.597C42.3662 48.7829 42.7658 49.9277 43.4655 50.8865C44.1651 51.8453 45.1334 52.5751 46.2478 52.9836C47.3622 53.3921 48.5727 53.461 49.7263 53.1815C50.8798 52.902 51.9246 52.2868 52.7285 51.4135C53.5324 50.5403 54.0593 49.4483 54.2425 48.2756C54.4258 47.1029 54.2572 45.9022 53.758 44.8253C53.2589 43.7484 52.4516 42.8438 51.4383 42.2257C50.079 41.3987 48.4472 41.1446 46.9009 41.5193C45.3546 41.8939 44.02 42.8666 43.1899 44.224Z" fill="#CCCCCC"/>
</svg>
