<svg width="18" height="18" viewBox="0 0 18 18" fill="none" xmlns="http://www.w3.org/2000/svg">
<path d="M3.81104 10.1094V14.9935H8.47275V12.7179L6.80579 10.1094H3.81104Z" fill="#464646"/>
<path d="M3.81104 16.0479H8.47275V17.9998H3.81104V16.0479Z" fill="#464646"/>
<path d="M9.52734 16.0479H14.1891V17.9998H9.52734V16.0479Z" fill="#464646"/>
<path d="M9.52734 13.0908H14.1891V14.9931H9.52734V13.0908Z" fill="#464646"/>
<path d="M0 7.12744H2.75625V9.05457H0V7.12744Z" fill="#464646"/>
<path d="M3.81104 7.12744H6.56729V9.05457H3.81104V7.12744Z" fill="#464646"/>
<path d="M0 10.1094H2.75625V18.0001H0V10.1094Z" fill="#464646"/>
<path d="M15.2437 13.0908H17.9999V17.9998H15.2437V13.0908Z" fill="#464646"/>
<path d="M15.2437 7.12744H17.9999V12.0364H15.2437V7.12744Z" fill="#464646"/>
<path d="M8.48308 7.12744H7.62207V9.42782L9.28901 12.0364H14.1893V7.57052L11.5578 10.2004L8.48308 7.12744Z" fill="#464646"/>
<path d="M11.5593 0C9.56701 0 7.94873 1.61831 7.94873 3.60745C7.94873 4.57144 8.32424 5.47762 9.00606 6.15902L11.5578 8.70933L14.1095 6.15906C14.7913 5.47762 15.1668 4.57144 15.1668 3.60749C15.1668 1.61831 13.5485 0 11.5593 0ZM11.5578 5.89922C10.2941 5.89922 9.266 4.87114 9.266 3.60745C9.266 2.34376 10.2941 1.31569 11.5578 1.31569C12.8215 1.31569 13.8495 2.3438 13.8495 3.60745C13.8495 4.87114 12.8214 5.89922 11.5578 5.89922Z" fill="#464646"/>
<path d="M11.5574 2.37061C10.8753 2.37061 10.3203 2.92558 10.3203 3.60768C10.3203 4.28978 10.8753 4.84475 11.5574 4.84475C12.2395 4.84475 12.7945 4.28981 12.7945 3.60768C12.7945 2.92558 12.2395 2.37061 11.5574 2.37061Z" fill="#464646"/>
</svg>
