<svg width="148" height="129" viewBox="0 0 148 129" fill="none" xmlns="http://www.w3.org/2000/svg">
<rect y="5" width="148" height="124" fill="white"/>
<path d="M79.9378 49.9084C78.969 49.9077 78.0134 50.1318 77.1459 50.5632C76.2785 50.9945 75.523 51.6212 74.939 52.3941C74.312 52.1243 73.6279 52.0144 72.9481 52.0743C72.2682 52.1342 71.6138 52.362 71.0437 52.7372C70.4736 53.1124 70.0056 53.6233 69.6817 54.2241C69.3578 54.8249 69.1881 55.4966 69.188 56.1792H86.2085C86.2085 55.3557 86.0463 54.5403 85.7312 53.7795C85.416 53.0187 84.9541 52.3274 84.3718 51.7451C83.7895 51.1628 83.0983 50.7009 82.3375 50.3858C81.5767 50.0706 80.7613 49.9084 79.9378 49.9084Z" fill="#E6E6E6"/>
<path d="M103.45 45.5691H28.9575C27.9613 45.5705 27.0063 45.9669 26.3019 46.6713C25.5975 47.3757 25.2011 48.3307 25.1997 49.3269V105.251C25.2011 106.248 25.5975 107.203 26.3019 107.907C27.0063 108.611 27.9613 109.008 28.9575 109.009H103.45C104.446 109.008 105.401 108.611 106.105 107.907C106.81 107.203 107.206 106.248 107.208 105.251V49.3269C107.206 48.3307 106.81 47.3757 106.105 46.6713C105.401 45.9669 104.446 45.5705 103.45 45.5691V45.5691ZM106.765 105.251C106.764 106.13 106.415 106.973 105.793 107.595C105.172 108.216 104.329 108.566 103.45 108.567H28.9575C28.0784 108.566 27.2357 108.216 26.6141 107.595C25.9925 106.973 25.6429 106.13 25.6418 105.251V49.3269C25.6429 48.4478 25.9925 47.6051 26.6141 46.9835C27.2357 46.3619 28.0784 46.0122 28.9575 46.0112H103.45C104.329 46.0122 105.172 46.3619 105.793 46.9835C106.415 47.6051 106.764 48.4478 106.765 49.3269V105.251Z" fill="#74411C"/>
<path d="M37.6889 85.7992C46.906 85.7992 54.3778 78.3274 54.3778 69.1103C54.3778 59.8933 46.906 52.4214 37.6889 52.4214C28.4719 52.4214 21 59.8933 21 69.1103C21 78.3274 28.4719 85.7992 37.6889 85.7992Z" fill="#FDD27F"/>
<path d="M107.208 92.8883V97.5148H25.1997V92.8662L25.6418 92.2296L51.6412 54.7911C51.7591 54.6213 51.9164 54.4825 52.0996 54.3866C52.2829 54.2908 52.4866 54.2407 52.6934 54.2407C52.9001 54.2407 53.1039 54.2908 53.2871 54.3866C53.4703 54.4825 53.6276 54.6213 53.7455 54.7911L71.1816 79.8952L83.5933 62.1807C83.7113 62.0117 83.8684 61.8738 84.0512 61.7786C84.234 61.6833 84.4371 61.6336 84.6432 61.6336C84.8493 61.6336 85.0524 61.6833 85.2352 61.7786C85.418 61.8738 85.5751 62.0117 85.6932 62.1807L106.765 92.2561L107.208 92.8883Z" fill="#BC903D"/>
<path d="M43.2152 102.82H30.1735C30.115 102.82 30.0589 102.796 30.0176 102.755C29.9763 102.713 29.9531 102.657 29.9531 102.599C29.9531 102.54 29.9763 102.484 30.0176 102.443C30.0589 102.401 30.115 102.378 30.1735 102.378H43.2152C43.2738 102.378 43.33 102.401 43.3715 102.442C43.4129 102.484 43.4362 102.54 43.4362 102.599C43.4362 102.657 43.4129 102.714 43.3715 102.755C43.33 102.796 43.2738 102.82 43.2152 102.82V102.82Z" fill="#74411C"/>
<path d="M62.8884 102.82H49.8467C49.8176 102.82 49.7888 102.814 49.7619 102.803C49.735 102.792 49.7106 102.776 49.69 102.755C49.6694 102.735 49.653 102.71 49.6419 102.683C49.6307 102.657 49.625 102.628 49.625 102.599C49.625 102.57 49.6307 102.541 49.6419 102.514C49.653 102.487 49.6694 102.463 49.69 102.442C49.7106 102.422 49.735 102.405 49.7619 102.394C49.7888 102.383 49.8176 102.378 49.8467 102.378H62.8884C62.947 102.378 63.0032 102.401 63.0447 102.442C63.0862 102.484 63.1094 102.54 63.1094 102.599C63.1094 102.657 63.0862 102.714 63.0447 102.755C63.0032 102.796 62.947 102.82 62.8884 102.82V102.82Z" fill="#74411C"/>
<path d="M82.5609 102.82H69.5192C69.4607 102.82 69.4046 102.796 69.3633 102.755C69.322 102.713 69.2988 102.657 69.2988 102.599C69.2988 102.54 69.322 102.484 69.3633 102.443C69.4046 102.401 69.4607 102.378 69.5192 102.378H82.5609C82.6195 102.378 82.6757 102.401 82.7172 102.442C82.7586 102.484 82.7819 102.54 82.7819 102.599C82.7819 102.657 82.7586 102.714 82.7172 102.755C82.6757 102.796 82.6195 102.82 82.5609 102.82V102.82Z" fill="#74411C"/>
<path d="M102.234 102.82H89.1925C89.134 102.82 89.078 102.796 89.0367 102.755C88.9954 102.713 88.9722 102.657 88.9722 102.599C88.9722 102.54 88.9954 102.484 89.0367 102.443C89.078 102.401 89.134 102.378 89.1925 102.378H102.234C102.293 102.378 102.349 102.401 102.391 102.442C102.432 102.484 102.455 102.54 102.455 102.599C102.455 102.657 102.432 102.714 102.391 102.755C102.349 102.796 102.293 102.82 102.234 102.82V102.82Z" fill="#74411C"/>
<path d="M98.1544 24.2666C106.158 10.8646 119.39 4.02734 127.709 8.99527C136.027 13.9632 136.282 28.855 128.278 42.2571C120.275 55.6592 107.043 62.4964 98.7241 57.5284C90.4056 52.5605 90.1505 37.6687 98.1544 24.2666Z" fill="#FDD27F"/>
<path d="M97.4071 96.8704C94.2394 93.1655 92.2574 88.5747 91.3868 83.799C90.5544 79.0451 90.742 74.1684 91.9371 69.4924C93.0629 64.9685 94.9937 60.6768 97.4276 56.7099C100.011 52.4997 103.165 48.6732 106.615 45.1472C110.259 41.4238 114.223 38.0316 118.278 34.7673C118.783 34.3605 119.29 33.9554 119.798 33.5522C120.131 33.2873 119.66 32.82 119.329 33.0832C115.185 36.375 111.11 39.7674 107.337 43.4834C103.733 47.0335 100.404 50.8861 97.6411 55.1318C95.0634 59.0924 92.97 63.3987 91.6643 67.948C90.2916 72.6212 89.8933 77.5265 90.4942 82.3598C91.1289 87.2198 92.8751 91.9887 95.8155 95.9335C96.1741 96.4145 96.5483 96.8832 96.9382 97.3395C97.2155 97.6638 97.6836 97.1937 97.4071 96.8705L97.4071 96.8704Z" fill="#CCCCCC"/>
<path d="M107.348 43.8953C106.518 41.3661 106.034 38.7361 105.911 36.077C105.786 33.4169 106.016 30.7521 106.596 28.153C106.923 26.6934 107.361 25.2609 107.906 23.8679C108.02 23.5755 107.55 23.4473 107.437 23.7368C106.459 26.2465 105.825 28.8766 105.552 31.556C105.276 34.2362 105.358 36.9411 105.794 39.5998C106.041 41.0986 106.402 42.5761 106.876 44.019C106.974 44.3156 107.446 44.194 107.348 43.8953L107.348 43.8953Z" fill="#CCCCCC"/>
<path d="M66.5352 60.3792C65.34 60.3783 64.1609 60.6548 63.0907 61.1869C62.0205 61.7191 61.0885 62.4923 60.3678 63.4458C59.5944 63.113 58.7503 62.9774 57.9115 63.0513C57.0727 63.1252 56.2654 63.4062 55.562 63.8692C54.8586 64.3321 54.2812 64.9625 53.8816 65.7037C53.482 66.4448 53.2727 67.2737 53.2725 68.1157H74.2718C74.2718 67.0998 74.0717 66.0937 73.6829 65.1551C73.2941 64.2164 72.7242 63.3636 72.0058 62.6451C71.2874 61.9267 70.4345 61.3569 69.4959 60.9681C68.5572 60.5793 67.5512 60.3792 66.5352 60.3792V60.3792Z" fill="#FDD27F"/>
</svg>
