<svg width="148" height="124" viewBox="0 0 148 124" fill="none" xmlns="http://www.w3.org/2000/svg">
<rect width="148" height="124" fill="white"/>
<path d="M104.64 23.37C112.056 10.9522 124.317 4.61715 132.024 9.22023C139.732 13.8233 139.968 27.6215 132.552 40.0393C125.136 52.4571 112.876 58.7921 105.168 54.1891C97.4606 49.586 97.2242 35.7878 104.64 23.37Z" fill="#FDD27F"/>
<path d="M84.9378 44.9084C83.969 44.9077 83.0134 45.1318 82.1459 45.5632C81.2785 45.9945 80.523 46.6212 79.939 47.3941C79.312 47.1243 78.6279 47.0144 77.9481 47.0743C77.2682 47.1342 76.6138 47.362 76.0437 47.7372C75.4736 48.1124 75.0056 48.6233 74.6817 49.2241C74.3578 49.8249 74.1881 50.4966 74.188 51.1792H91.2085C91.2085 50.3557 91.0463 49.5403 90.7312 48.7795C90.416 48.0187 89.9541 47.3274 89.3718 46.7451C88.7895 46.1628 88.0983 45.7009 87.3375 45.3858C86.5767 45.0706 85.7613 44.9084 84.9378 44.9084Z" fill="#E6E6E6"/>
<path d="M42.6889 80.7992C51.906 80.7992 59.3778 73.3274 59.3778 64.1103C59.3778 54.8933 51.906 47.4214 42.6889 47.4214C33.4719 47.4214 26 54.8933 26 64.1103C26 73.3274 33.4719 80.7992 42.6889 80.7992Z" fill="#FDD27F"/>
<path d="M112.208 87.8883V92.5148H30.1997V87.8662L30.6418 87.2296L56.6412 49.7911C56.7591 49.6213 56.9164 49.4825 57.0996 49.3866C57.2829 49.2908 57.4866 49.2407 57.6934 49.2407C57.9001 49.2407 58.1039 49.2908 58.2871 49.3866C58.4703 49.4825 58.6276 49.6213 58.7455 49.7911L76.1816 74.8952L88.5933 57.1807C88.7113 57.0117 88.8684 56.8738 89.0512 56.7786C89.234 56.6833 89.4371 56.6336 89.6432 56.6336C89.8493 56.6336 90.0524 56.6833 90.2352 56.7786C90.418 56.8738 90.5751 57.0117 90.6932 57.1807L111.765 87.2561L112.208 87.8883Z" fill="#BC903D"/>
<path d="M48.2152 97.8198H35.1735C35.115 97.8196 35.0589 97.7962 35.0176 97.7548C34.9763 97.7134 34.9531 97.6572 34.9531 97.5987C34.9531 97.5402 34.9763 97.4841 35.0176 97.4427C35.0589 97.4012 35.115 97.3779 35.1735 97.3777H48.2152C48.2738 97.3777 48.33 97.401 48.3715 97.4424C48.4129 97.4839 48.4362 97.5401 48.4362 97.5987C48.4362 97.6574 48.4129 97.7136 48.3715 97.755C48.33 97.7965 48.2738 97.8198 48.2152 97.8198V97.8198Z" fill="#74411C"/>
<path d="M67.8884 97.8198H54.8467C54.8176 97.8199 54.7888 97.8142 54.7619 97.8032C54.735 97.7921 54.7106 97.7758 54.69 97.7553C54.6694 97.7347 54.653 97.7103 54.6419 97.6835C54.6307 97.6566 54.625 97.6278 54.625 97.5987C54.625 97.5697 54.6307 97.5408 54.6419 97.514C54.653 97.4871 54.6694 97.4627 54.69 97.4422C54.7106 97.4217 54.735 97.4054 54.7619 97.3943C54.7888 97.3832 54.8176 97.3776 54.8467 97.3777H67.8884C67.947 97.3777 68.0032 97.401 68.0447 97.4424C68.0862 97.4839 68.1094 97.5401 68.1094 97.5987C68.1094 97.6574 68.0862 97.7136 68.0447 97.755C68.0032 97.7965 67.947 97.8198 67.8884 97.8198V97.8198Z" fill="#74411C"/>
<path d="M87.5609 97.8198H74.5192C74.4607 97.8196 74.4046 97.7962 74.3633 97.7548C74.322 97.7134 74.2988 97.6572 74.2988 97.5987C74.2988 97.5402 74.322 97.4841 74.3633 97.4427C74.4046 97.4012 74.4607 97.3779 74.5192 97.3777H87.5609C87.6195 97.3777 87.6757 97.401 87.7172 97.4424C87.7586 97.4839 87.7819 97.5401 87.7819 97.5987C87.7819 97.6574 87.7586 97.7136 87.7172 97.755C87.6757 97.7965 87.6195 97.8198 87.5609 97.8198V97.8198Z" fill="#74411C"/>
<path d="M107.234 97.8198H94.1925C94.134 97.8196 94.078 97.7962 94.0367 97.7548C93.9954 97.7134 93.9722 97.6572 93.9722 97.5987C93.9722 97.5402 93.9954 97.4841 94.0367 97.4427C94.078 97.4012 94.134 97.3779 94.1925 97.3777H107.234C107.293 97.3777 107.349 97.401 107.391 97.4424C107.432 97.4839 107.455 97.5401 107.455 97.5987C107.455 97.6574 107.432 97.7136 107.391 97.755C107.349 97.7965 107.293 97.8198 107.234 97.8198V97.8198Z" fill="#74411C"/>
<path d="M102.407 91.8704C99.2394 88.1655 97.2574 83.5747 96.3868 78.799C95.5544 74.0451 95.742 69.1684 96.9371 64.4924C98.0629 59.9685 99.9937 55.6768 102.428 51.7099C105.011 47.4997 108.165 43.6732 111.615 40.1472C115.259 36.4238 119.223 33.0316 123.278 29.7673C123.783 29.3605 124.29 28.9554 124.798 28.5522C125.131 28.2873 124.66 27.82 124.329 28.0832C120.185 31.375 116.11 34.7674 112.337 38.4834C108.733 42.0335 105.404 45.8861 102.641 50.1318C100.063 54.0924 97.97 58.3987 96.6643 62.948C95.2916 67.6212 94.8933 72.5265 95.4942 77.3598C96.1289 82.2198 97.8751 86.9887 100.816 90.9335C101.174 91.4145 101.548 91.8832 101.938 92.3395C102.215 92.6638 102.684 92.1937 102.407 91.8705L102.407 91.8704Z" fill="#CCCCCC"/>
<path d="M112.348 38.8953C111.518 36.3661 111.034 33.7361 110.911 31.077C110.786 28.4169 111.016 25.7521 111.596 23.153C111.923 21.6934 112.361 20.2609 112.906 18.8679C113.02 18.5755 112.55 18.4473 112.437 18.7368C111.459 21.2465 110.825 23.8766 110.552 26.556C110.276 29.2362 110.358 31.9411 110.794 34.5998C111.041 36.0986 111.402 37.5761 111.876 39.019C111.974 39.3156 112.446 39.194 112.348 38.8953L112.348 38.8953Z" fill="#CCCCCC"/>
<path d="M71.5352 55.3792C70.34 55.3783 69.1609 55.6548 68.0907 56.1869C67.0205 56.7191 66.0885 57.4923 65.3678 58.4458C64.5944 58.113 63.7503 57.9774 62.9115 58.0513C62.0727 58.1252 61.2654 58.4062 60.562 58.8692C59.8586 59.3321 59.2812 59.9625 58.8816 60.7037C58.482 61.4448 58.2727 62.2737 58.2725 63.1157H79.2718C79.2718 62.0998 79.0717 61.0937 78.6829 60.1551C78.2941 59.2164 77.7242 58.3636 77.0058 57.6451C76.2874 56.9267 75.4345 56.3569 74.4959 55.9681C73.5572 55.5793 72.5512 55.3792 71.5352 55.3792V55.3792Z" fill="#FDD27F"/>
<path d="M108.45 40.5691H33.9575C32.9613 40.5705 32.0063 40.9669 31.3019 41.6713C30.5975 42.3757 30.2011 43.3307 30.1997 44.3269V100.251C30.2011 101.248 30.5975 102.203 31.3019 102.907C32.0063 103.611 32.9613 104.008 33.9575 104.009H108.45C109.446 104.008 110.401 103.611 111.105 102.907C111.81 102.203 112.206 101.248 112.208 100.251V44.3269C112.206 43.3307 111.81 42.3757 111.105 41.6713C110.401 40.9669 109.446 40.5705 108.45 40.5691V40.5691ZM111.765 100.251C111.764 101.13 111.415 101.973 110.793 102.595C110.172 103.216 109.329 103.566 108.45 103.567H33.9575C33.0784 103.566 32.2357 103.216 31.6141 102.595C30.9925 101.973 30.6429 101.13 30.6418 100.251V44.3269C30.6429 43.4478 30.9925 42.6051 31.6141 41.9835C32.2357 41.3619 33.0784 41.0122 33.9575 41.0112H108.45C109.329 41.0122 110.172 41.3619 110.793 41.9835C111.415 42.6051 111.764 43.4478 111.765 44.3269V100.251Z" fill="#74411C"/>
</svg>
