<svg width="93" height="20" viewBox="0 0 93 20" fill="none" xmlns="http://www.w3.org/2000/svg">
<path d="M11.8418 20H8.91211V13.9062H3.19922V20H0.269531V5.78125H3.19922V11.543H8.91211V5.78125H11.8418V20ZM17.5254 20H14.5957V5.78125H17.5254V20ZM17.4668 4.9707H15.1523L12.457 1.94336H15.5332L17.4668 4.9707ZM31.8125 20H28.8828L23.1797 10.6445V20H20.25V5.78125H23.1797L28.8926 15.1562V5.78125H31.8125V20ZM45.9434 20H43.0137V13.9062H37.3008V20H34.3711V5.78125H37.3008V11.543H43.0137V5.78125H45.9434V20ZM61.5195 17.0703H56.3828L55.4062 20H52.291L57.584 5.78125H60.2988L65.6211 20H62.5059L61.5195 17.0703ZM57.1738 14.6973H60.7285L58.9414 9.375L57.1738 14.6973ZM57.916 4.61914L57.7695 3.31055C58.2448 3.28451 58.5866 3.22591 58.7949 3.13477C59.0098 3.03711 59.1172 2.88411 59.1172 2.67578C59.1172 2.22656 58.6549 2.00195 57.7305 2.00195L57.7988 0.683594C59.0228 0.683594 59.944 0.852865 60.5625 1.19141C61.1875 1.52995 61.5 1.99544 61.5 2.58789C61.5 2.97201 61.3665 3.28776 61.0996 3.53516C60.8327 3.77604 60.4779 3.92904 60.0352 3.99414V4.61914H57.916ZM78.5117 20H75.582L69.8789 10.6445V20H66.9492V5.78125H69.8789L75.5918 15.1562V5.78125H78.5117V20ZM92.6426 20H89.7129V13.9062H84V20H81.0703V5.78125H84V11.543H89.7129V5.78125H92.6426V20Z" fill="#464646"/>
</svg>
